Aaram.ufo
<glyph name="dollar" format="1">
  <advance width="336"/>
  <unicode hex="0024"/>
  <outline>
    <contour>
      <point x="254" y="556" type="line"/>
      <point x="254" y="614" type="line" smooth="yes"/>
      <point x="254" y="635"/>
      <point x="236" y="670"/>
      <point x="220" y="681" type="qcurve"/>
      <point x="220" y="385" type="line"/>
      <point x="240" y="379"/>
      <point x="254" y="366" type="qcurve" smooth="yes"/>
      <point x="258" y="362"/>
      <point x="265" y="355"/>
      <point x="268" y="351" type="qcurve" smooth="yes"/>
      <point x="268" y="350"/>
      <point x="269" y="350" type="qcurve" smooth="yes"/>
      <point x="280" y="335"/>
      <point x="292" y="298"/>
      <point x="292" y="276" type="qcurve" smooth="yes"/>
      <point x="292" y="125" type="line" smooth="yes"/>
      <point x="292" y="88"/>
      <point x="252" y="28"/>
      <point x="220" y="14" type="qcurve"/>
      <point x="220" y="-57" type="line" smooth="yes"/>
      <point x="220" y="-76"/>
      <point x="201" y="-76" type="qcurve" smooth="yes"/>
      <point x="193" y="-76"/>
      <point x="183" y="-65"/>
      <point x="183" y="-57" type="qcurve" smooth="yes"/>
      <point x="183" y="3" type="line"/>
      <point x="170" y="3" type="line" smooth="yes"/>
      <point x="167" y="3"/>
      <point x="160" y="3"/>
      <point x="157" y="4" type="qcurve" smooth="yes"/>
      <point x="157" y="-57" type="line" smooth="yes"/>
      <point x="157" y="-76"/>
      <point x="138" y="-76" type="qcurve" smooth="yes"/>
      <point x="130" y="-76"/>
      <point x="119" y="-65"/>
      <point x="119" y="-57" type="qcurve" smooth="yes"/>
      <point x="119" y="14" type="line"/>
      <point x="87" y="28"/>
      <point x="48" y="88"/>
      <point x="48" y="125" type="qcurve" smooth="yes"/>
      <point x="48" y="161" type="line"/>
      <point x="86" y="161" type="line"/>
      <point x="86" y="125" type="line" smooth="yes"/>
      <point x="86" y="104"/>
      <point x="104" y="69"/>
      <point x="119" y="58" type="qcurve"/>
      <point x="119" y="353" type="line"/>
      <point x="100" y="359"/>
      <point x="86" y="372" type="qcurve" smooth="yes"/>
      <point x="82" y="376"/>
      <point x="75" y="383"/>
      <point x="72" y="387" type="qcurve" smooth="yes"/>
      <point x="51" y="414"/>
      <point x="48" y="454" type="qcurve" smooth="yes"/>
      <point x="48" y="462" type="line"/>
      <point x="48" y="465" type="line"/>
      <point x="48" y="614" type="line" smooth="yes"/>
      <point x="48" y="651"/>
      <point x="87" y="711"/>
      <point x="119" y="725" type="qcurve"/>
      <point x="119" y="796" type="line" smooth="yes"/>
      <point x="119" y="804"/>
      <point x="130" y="815"/>
      <point x="138" y="815" type="qcurve" smooth="yes"/>
      <point x="157" y="815"/>
      <point x="157" y="796" type="qcurve" smooth="yes"/>
      <point x="157" y="735" type="line" smooth="yes"/>
      <point x="160" y="736"/>
      <point x="167" y="736"/>
      <point x="170" y="736" type="qcurve" smooth="yes"/>
      <point x="178" y="736"/>
      <point x="183" y="735" type="qcurve"/>
      <point x="183" y="796" type="line" smooth="yes"/>
      <point x="183" y="804"/>
      <point x="193" y="815"/>
      <point x="201" y="815" type="qcurve" smooth="yes"/>
      <point x="220" y="815"/>
      <point x="220" y="796" type="qcurve" smooth="yes"/>
      <point x="220" y="725" type="line"/>
      <point x="252" y="711"/>
      <point x="292" y="651"/>
      <point x="292" y="614" type="qcurve" smooth="yes"/>
      <point x="292" y="556" type="line"/>
    </contour>
    <contour>
      <point x="86" y="429" type="line"/>
      <point x="97" y="404"/>
      <point x="119" y="393" type="qcurve"/>
      <point x="119" y="681" type="line"/>
      <point x="104" y="670"/>
      <point x="86" y="635"/>
      <point x="86" y="614" type="qcurve" smooth="yes"/>
    </contour>
    <contour>
      <point x="170" y="41" type="qcurve" smooth="yes"/>
      <point x="178" y="41"/>
      <point x="183" y="42" type="qcurve"/>
      <point x="183" y="350" type="line"/>
      <point x="157" y="350" type="line"/>
      <point x="157" y="42" type="line" smooth="yes"/>
      <point x="160" y="41"/>
      <point x="167" y="41"/>
    </contour>
    <contour>
      <point x="254" y="308" type="line"/>
      <point x="249" y="321"/>
      <point x="231" y="340"/>
      <point x="220" y="345" type="qcurve"/>
      <point x="220" y="57" type="line"/>
      <point x="236" y="69"/>
      <point x="254" y="104"/>
      <point x="254" y="125" type="qcurve" smooth="yes"/>
    </contour>
    <contour>
      <point x="183" y="697" type="line"/>
      <point x="178" y="698"/>
      <point x="170" y="698" type="qcurve" smooth="yes"/>
      <point x="167" y="698"/>
      <point x="160" y="698"/>
      <point x="157" y="697" type="qcurve" smooth="yes"/>
      <point x="157" y="388" type="line"/>
      <point x="183" y="388" type="line"/>
    </contour>
  </outline>
</glyph>
<glyph name="percent" format="1">
  <advance width="535"/>
  <unicode hex="0025"/>
  <outline>
    <contour>
      <point x="238" y="451" type="line" smooth="yes"/>
      <point x="238" y="409"/>
      <point x="181" y="352"/>
      <point x="139" y="352" type="qcurve" smooth="yes"/>
      <point x="98" y="352"/>
      <point x="41" y="409"/>
      <point x="41" y="451" type="qcurve" smooth="yes"/>
      <point x="41" y="578" type="line" smooth="yes"/>
      <point x="41" y="619"/>
      <point x="98" y="676"/>
      <point x="139" y="676" type="qcurve" smooth="yes"/>
      <point x="181" y="676"/>
      <point x="238" y="619"/>
      <point x="238" y="578" type="qcurve" smooth="yes"/>
    </contour>
    <contour>
      <point x="139" y="393" type="qcurve" smooth="yes"/>
      <point x="163" y="393"/>
      <point x="197" y="427"/>
      <point x="197" y="451" type="qcurve" smooth="yes"/>
      <point x="197" y="578" type="line" smooth="yes"/>
      <point x="197" y="602"/>
      <point x="163" y="636"/>
      <point x="139" y="636" type="qcurve" smooth="yes"/>
      <point x="115" y="636"/>
      <point x="81" y="602"/>
      <point x="81" y="578" type="qcurve" smooth="yes"/>
      <point x="81" y="451" type="line" smooth="yes"/>
      <point x="81" y="427"/>
      <point x="115" y="393"/>
    </contour>
    <contour>
      <point x="404" y="341" type="qcurve" smooth="yes"/>
      <point x="425" y="341"/>
      <point x="461" y="325"/>
      <point x="488" y="298"/>
      <point x="503" y="262"/>
      <point x="503" y="242" type="qcurve" smooth="yes"/>
      <point x="503" y="115" type="line" smooth="yes"/>
      <point x="503" y="73"/>
      <point x="446" y="16"/>
      <point x="404" y="16" type="qcurve" smooth="yes"/>
      <point x="363" y="16"/>
      <point x="306" y="73"/>
      <point x="306" y="115" type="qcurve" smooth="yes"/>
      <point x="306" y="242" type="line" smooth="yes"/>
      <point x="306" y="262"/>
      <point x="321" y="298"/>
      <point x="348" y="325"/>
      <point x="384" y="341"/>
    </contour>
    <contour>
      <point x="404" y="57" type="qcurve" smooth="yes"/>
      <point x="428" y="57"/>
      <point x="462" y="91"/>
      <point x="462" y="115" type="qcurve" smooth="yes"/>
      <point x="462" y="242" type="line" smooth="yes"/>
      <point x="462" y="266"/>
      <point x="428" y="300"/>
      <point x="404" y="300" type="qcurve" smooth="yes"/>
      <point x="380" y="300"/>
      <point x="346" y="266"/>
      <point x="346" y="242" type="qcurve" smooth="yes"/>
      <point x="346" y="115" type="line" smooth="yes"/>
      <point x="346" y="91"/>
      <point x="380" y="57"/>
    </contour>
    <contour>
      <point x="355" y="731" type="qcurve" smooth="yes"/>
      <point x="378" y="719"/>
      <point x="402" y="686"/>
      <point x="406" y="645"/>
      <point x="395" y="600"/>
      <point x="383" y="577" type="qcurve" smooth="yes"/>
      <point x="176" y="12" type="line" smooth="yes"/>
      <point x="173" y="4"/>
      <point x="158" y="-1"/>
      <point x="150" y="3" type="qcurve" smooth="yes"/>
      <point x="143" y="7"/>
      <point x="138" y="21"/>
      <point x="141" y="29" type="qcurve" smooth="yes"/>
      <point x="348" y="594" type="line" smooth="yes"/>
      <point x="356" y="610"/>
      <point x="367" y="640"/>
      <point x="367" y="666"/>
      <point x="354" y="688"/>
      <point x="338" y="696" type="qcurve" smooth="yes"/>
      <point x="330" y="700"/>
      <point x="325" y="714"/>
      <point x="329" y="722" type="qcurve" smooth="yes"/>
      <point x="333" y="730"/>
      <point x="348" y="735"/>
    </contour>
  </outline>
</glyph>
<glyph name="ampersand" format="1">
  <advance width="431"/>
  <unicode hex="0026"/>
  <outline>
    <contour>
      <point x="402" y="429" type="qcurve" smooth="yes"/>
      <point x="402" y="386"/>
      <point x="347" y="323"/>
      <point x="305" y="318" type="qcurve"/>
      <point x="305" y="121" type="line" smooth="yes"/>
      <point x="305" y="96"/>
      <point x="286" y="51"/>
      <point x="253" y="18"/>
      <point x="208" y="-1"/>
      <point x="183" y="-1" type="qcurve" smooth="yes"/>
      <point x="158" y="-1"/>
      <point x="113" y="18"/>
      <point x="80" y="51"/>
      <point x="61" y="96"/>
      <point x="61" y="121" type="qcurve" smooth="yes"/>
      <point x="61" y="317" type="line"/>
      <point x="58" y="317" type="line" smooth="yes"/>
      <point x="50" y="317"/>
      <point x="40" y="328"/>
      <point x="40" y="336" type="qcurve" smooth="yes"/>
      <point x="40" y="344"/>
      <point x="50" y="355"/>
      <point x="58" y="355" type="qcurve" smooth="yes"/>
      <point x="61" y="355" type="line"/>
      <point x="61" y="611" type="line" smooth="yes"/>
      <point x="61" y="636"/>
      <point x="80" y="681"/>
      <point x="113" y="714"/>
      <point x="158" y="733"/>
      <point x="183" y="733" type="qcurve" smooth="yes"/>
      <point x="208" y="733"/>
      <point x="253" y="714"/>
      <point x="286" y="681"/>
      <point x="305" y="636"/>
      <point x="305" y="611" type="qcurve" smooth="yes"/>
      <point x="305" y="570" type="line"/>
      <point x="305" y="555" type="line"/>
      <point x="305" y="552" type="line" smooth="yes"/>
      <point x="305" y="532"/>
      <point x="299" y="498"/>
      <point x="277" y="473"/>
      <point x="232" y="459"/>
      <point x="193" y="459" type="qcurve" smooth="yes"/>
      <point x="191" y="459" type="line" smooth="yes"/>
      <point x="183" y="459"/>
      <point x="172" y="469"/>
      <point x="172" y="477" type="qcurve" smooth="yes"/>
      <point x="172" y="496"/>
      <point x="191" y="496" type="qcurve" smooth="yes"/>
      <point x="193" y="496" type="line" smooth="yes"/>
      <point x="219" y="496"/>
      <point x="248" y="506"/>
      <point x="263" y="522"/>
      <point x="267" y="545"/>
      <point x="267" y="558" type="qcurve" smooth="yes"/>
      <point x="267" y="567" type="line"/>
      <point x="267" y="570" type="line"/>
      <point x="267" y="571" type="line"/>
      <point x="267" y="611" type="line" smooth="yes"/>
      <point x="267" y="628"/>
      <point x="254" y="659"/>
      <point x="231" y="682"/>
      <point x="201" y="695"/>
      <point x="183" y="695" type="qcurve" smooth="yes"/>
      <point x="148" y="695"/>
      <point x="99" y="646"/>
      <point x="99" y="611" type="qcurve" smooth="yes"/>
      <point x="99" y="355" type="line"/>
      <point x="290" y="355" type="line" smooth="yes"/>
      <point x="321" y="355"/>
      <point x="364" y="398"/>
      <point x="364" y="429" type="qcurve" smooth="yes"/>
      <point x="364" y="437"/>
      <point x="375" y="448"/>
      <point x="383" y="448" type="qcurve" smooth="yes"/>
      <point x="391" y="448"/>
      <point x="402" y="437"/>
    </contour>
    <contour>
      <point x="183" y="37" type="qcurve" smooth="yes"/>
      <point x="201" y="37"/>
      <point x="231" y="50"/>
      <point x="254" y="73"/>
      <point x="267" y="104"/>
      <point x="267" y="121" type="qcurve" smooth="yes"/>
      <point x="267" y="317" type="line"/>
      <point x="99" y="317" type="line"/>
      <point x="99" y="121" type="line" smooth="yes"/>
      <point x="99" y="86"/>
      <point x="148" y="37"/>
    </contour>
  </outline>
</glyph>
<glyph name="parenleft" format="1">
  <advance width="260"/>
  <unicode hex="0028"/>
  <outline>
    <contour>
      <point x="114" y="0" type="line"/>
      <point x="98" y="0"/>
      <point x="95" y="15" type="qcurve" smooth="yes"/>
      <point x="94" y="18"/>
      <point x="79" y="87"/>
      <point x="62" y="189"/>
      <point x="48" y="310"/>
      <point x="48" y="366" type="qcurve" smooth="yes"/>
      <point x="48" y="427"/>
      <point x="62" y="550"/>
      <point x="79" y="650"/>
      <point x="94" y="714"/>
      <point x="95" y="717" type="qcurve" smooth="yes"/>
      <point x="98" y="732"/>
      <point x="114" y="732" type="qcurve" smooth="yes"/>
      <point x="197" y="732" type="line" smooth="yes"/>
      <point x="205" y="732"/>
      <point x="216" y="721"/>
      <point x="216" y="713" type="qcurve" smooth="yes"/>
      <point x="216" y="705"/>
      <point x="205" y="693"/>
      <point x="197" y="693" type="qcurve" smooth="yes"/>
      <point x="129" y="693" type="line"/>
      <point x="125" y="676"/>
      <point x="111" y="606"/>
      <point x="97" y="517"/>
      <point x="87" y="415"/>
      <point x="87" y="366" type="qcurve" smooth="yes"/>
      <point x="87" y="321"/>
      <point x="97" y="221"/>
      <point x="111" y="130"/>
      <point x="125" y="57"/>
      <point x="129" y="39" type="qcurve"/>
      <point x="197" y="39" type="line" smooth="yes"/>
      <point x="205" y="39"/>
      <point x="216" y="27"/>
      <point x="216" y="19" type="qcurve" smooth="yes"/>
      <point x="216" y="11"/>
      <point x="205" y="0"/>
      <point x="197" y="0" type="qcurve" smooth="yes"/>
      <point x="114" y="0" type="line"/>
    </contour>
  </outline>
</glyph>
<glyph name="asterisk" format="1">
  <advance width="564"/>
  <unicode hex="002A"/>
  <outline>
    <contour>
      <point x="492" y="551" type="line"/>
      <point x="499" y="551"/>
      <point x="508" y="541"/>
      <point x="508" y="535" type="qcurve" smooth="yes"/>
      <point x="508" y="528"/>
      <point x="499" y="518"/>
      <point x="492" y="518" type="qcurve" smooth="yes"/>
      <point x="313" y="518" type="line"/>
      <point x="440" y="392" type="line" smooth="yes"/>
      <point x="445" y="387"/>
      <point x="445" y="375"/>
      <point x="440" y="370" type="qcurve" smooth="yes"/>
      <point x="435" y="365"/>
      <point x="428" y="365" type="qcurve" smooth="yes"/>
      <point x="422" y="365"/>
      <point x="417" y="370" type="qcurve" smooth="yes"/>
      <point x="291" y="496" type="line"/>
      <point x="291" y="317" type="line" smooth="yes"/>
      <point x="291" y="311"/>
      <point x="282" y="302"/>
      <point x="275" y="302" type="qcurve" smooth="yes"/>
      <point x="268" y="302"/>
      <point x="259" y="311"/>
      <point x="259" y="317" type="qcurve" smooth="yes"/>
      <point x="259" y="496" type="line"/>
      <point x="133" y="370" type="line" smooth="yes"/>
      <point x="128" y="365"/>
      <point x="122" y="365" type="qcurve" smooth="yes"/>
      <point x="117" y="365"/>
      <point x="110" y="370" type="qcurve" smooth="yes"/>
      <point x="106" y="374"/>
      <point x="106" y="381" type="qcurve" smooth="yes"/>
      <point x="106" y="386"/>
      <point x="110" y="392" type="qcurve" smooth="yes"/>
      <point x="237" y="518" type="line"/>
      <point x="59" y="518" type="line" smooth="yes"/>
      <point x="51" y="518"/>
      <point x="42" y="528"/>
      <point x="42" y="535" type="qcurve" smooth="yes"/>
      <point x="42" y="541"/>
      <point x="51" y="551"/>
      <point x="59" y="551" type="qcurve" smooth="yes"/>
      <point x="237" y="551" type="line"/>
      <point x="110" y="676" type="line" smooth="yes"/>
      <point x="108" y="679"/>
      <point x="106" y="684"/>
      <point x="106" y="688" type="qcurve" smooth="yes"/>
      <point x="106" y="693"/>
      <point x="110" y="699" type="qcurve" smooth="yes"/>
      <point x="117" y="704"/>
      <point x="122" y="704" type="qcurve" smooth="yes"/>
      <point x="128" y="704"/>
      <point x="133" y="699" type="qcurve" smooth="yes"/>
      <point x="259" y="573" type="line"/>
      <point x="259" y="751" type="line" smooth="yes"/>
      <point x="259" y="767"/>
      <point x="275" y="767" type="qcurve" smooth="yes"/>
      <point x="291" y="767"/>
      <point x="291" y="751" type="qcurve" smooth="yes"/>
      <point x="291" y="573" type="line"/>
      <point x="417" y="699" type="line" smooth="yes"/>
      <point x="422" y="704"/>
      <point x="428" y="704" type="qcurve" smooth="yes"/>
      <point x="435" y="704"/>
      <point x="440" y="699" type="qcurve" smooth="yes"/>
      <point x="444" y="693"/>
      <point x="444" y="688" type="qcurve" smooth="yes"/>
      <point x="444" y="684"/>
      <point x="442" y="679"/>
      <point x="440" y="676" type="qcurve" smooth="yes"/>
      <point x="313" y="551" type="line"/>
      <point x="492" y="551" type="line"/>
    </contour>
  </outline>
</glyph>
<glyph name="plus" format="1">
  <advance width="555"/>
  <unicode hex="002B"/>
  <outline>
    <contour>
      <point x="495" y="404" type="line"/>
      <point x="503" y="404"/>
      <point x="514" y="394"/>
      <point x="514" y="386" type="qcurve" smooth="yes"/>
      <point x="514" y="378"/>
      <point x="503" y="368"/>
      <point x="495" y="368" type="qcurve" smooth="yes"/>
      <point x="454" y="368" type="line"/>
      <point x="299" y="368" type="line"/>
      <point x="299" y="213" type="line"/>
      <point x="299" y="171" type="line" smooth="yes"/>
      <point x="299" y="163"/>
      <point x="289" y="153"/>
      <point x="281" y="153" type="qcurve" smooth="yes"/>
      <point x="273" y="153"/>
      <point x="263" y="163"/>
      <point x="263" y="171" type="qcurve" smooth="yes"/>
      <point x="263" y="213" type="line"/>
      <point x="263" y="368" type="line"/>
      <point x="108" y="368" type="line"/>
      <point x="66" y="368" type="line" smooth="yes"/>
      <point x="58" y="368"/>
      <point x="48" y="378"/>
      <point x="48" y="386" type="qcurve" smooth="yes"/>
      <point x="48" y="394"/>
      <point x="58" y="404"/>
      <point x="66" y="404" type="qcurve" smooth="yes"/>
      <point x="108" y="404" type="line"/>
      <point x="263" y="404" type="line"/>
      <point x="263" y="559" type="line"/>
      <point x="263" y="600" type="line" smooth="yes"/>
      <point x="263" y="608"/>
      <point x="273" y="619"/>
      <point x="281" y="619" type="qcurve" smooth="yes"/>
      <point x="289" y="619"/>
      <point x="299" y="608"/>
      <point x="299" y="600" type="qcurve" smooth="yes"/>
      <point x="299" y="559" type="line"/>
      <point x="299" y="404" type="line"/>
      <point x="454" y="404" type="line"/>
      <point x="495" y="404" type="line"/>
    </contour>
  </outline>
</glyph>
<glyph name="comma" format="1">
  <advance width="98"/>
  <unicode hex="002C"/>
  <outline>
    <contour>
      <point x="68" y="51" type="qcurve" smooth="yes"/>
      <point x="76" y="51"/>
      <point x="87" y="40"/>
      <point x="87" y="32" type="qcurve" smooth="yes"/>
      <point x="87" y="18" type="line" smooth="yes"/>
      <point x="87" y="6"/>
      <point x="76" y="1" type="qcurve"/>
      <point x="62" y="-21" type="line" smooth="yes"/>
      <point x="59" y="-25"/>
      <point x="55" y="-25" type="qcurve" smooth="yes"/>
      <point x="53" y="-25"/>
      <point x="52" y="-24"/>
      <point x="51" y="-24" type="qcurve" smooth="yes"/>
      <point x="44" y="-19"/>
      <point x="48" y="-13" type="qcurve" smooth="yes"/>
      <point x="58" y="2" type="line"/>
      <point x="49" y="8"/>
      <point x="49" y="18" type="qcurve" smooth="yes"/>
      <point x="49" y="32" type="line" smooth="yes"/>
      <point x="49" y="40"/>
      <point x="60" y="51"/>
    </contour>
  </outline>
</glyph>
<glyph name="period" format="1">
  <advance width="141"/>
  <unicode hex="002E"/>
  <outline>
    <contour>
      <point x="67" y="48" type="qcurve" smooth="yes"/>
      <point x="75" y="48"/>
      <point x="85" y="38"/>
      <point x="85" y="30" type="qcurve" smooth="yes"/>
      <point x="85" y="16" type="line" smooth="yes"/>
      <point x="85" y="8"/>
      <point x="75" y="-2"/>
      <point x="67" y="-2" type="qcurve" smooth="yes"/>
      <point x="59" y="-2"/>
      <point x="49" y="8"/>
      <point x="49" y="16" type="qcurve" smooth="yes"/>
      <point x="49" y="30" type="line" smooth="yes"/>
      <point x="49" y="38"/>
      <point x="59" y="48"/>
    </contour>
  </outline>
</glyph>
<glyph name="zero" format="1">
  <advance width="363"/>
  <unicode hex="0030"/>
  <outline>
    <contour>
      <point x="180" y="720" type="qcurve" smooth="yes"/>
      <point x="205" y="720"/>
      <point x="248" y="701"/>
      <point x="281" y="668"/>
      <point x="300" y="625"/>
      <point x="300" y="600" type="qcurve" smooth="yes"/>
      <point x="300" y="117" type="line" smooth="yes"/>
      <point x="300" y="92"/>
      <point x="281" y="48"/>
      <point x="248" y="15"/>
      <point x="205" y="-4"/>
      <point x="180" y="-4" type="qcurve" smooth="yes"/>
      <point x="155" y="-4"/>
      <point x="112" y="15"/>
      <point x="79" y="48"/>
      <point x="60" y="92"/>
      <point x="60" y="117" type="qcurve" smooth="yes"/>
      <point x="60" y="600" type="line" smooth="yes"/>
      <point x="60" y="625"/>
      <point x="79" y="668"/>
      <point x="112" y="701"/>
      <point x="155" y="720"/>
    </contour>
    <contour>
      <point x="180" y="683" type="qcurve" smooth="yes"/>
      <point x="145" y="683"/>
      <point x="97" y="634"/>
      <point x="97" y="600" type="qcurve" smooth="yes"/>
      <point x="97" y="464" type="line" smooth="yes"/>
      <point x="98" y="463"/>
      <point x="98" y="462"/>
      <point x="99" y="461" type="qcurve" smooth="yes"/>
      <point x="171" y="322" type="line" smooth="yes"/>
      <point x="184" y="296"/>
      <point x="237" y="277"/>
      <point x="263" y="288" type="qcurve"/>
      <point x="263" y="440" type="line"/>
      <point x="263" y="441" type="line"/>
      <point x="263" y="600" type="line" smooth="yes"/>
      <point x="263" y="634"/>
      <point x="215" y="683"/>
    </contour>
    <contour>
      <point x="180" y="33" type="qcurve" smooth="yes"/>
      <point x="215" y="33"/>
      <point x="263" y="82"/>
      <point x="263" y="117" type="qcurve" smooth="yes"/>
      <point x="263" y="249" type="line"/>
      <point x="226" y="239"/>
      <point x="155" y="270"/>
      <point x="137" y="305" type="qcurve" smooth="yes"/>
      <point x="97" y="383" type="line"/>
      <point x="97" y="117" type="line" smooth="yes"/>
      <point x="97" y="82"/>
      <point x="145" y="33"/>
    </contour>
  </outline>
</glyph>
<glyph name="one" format="1">
  <advance width="212"/>
  <unicode hex="0031"/>
  <outline>
    <contour>
      <point x="134" y="17" type="line" smooth="yes"/>
      <point x="134" y="9"/>
      <point x="123" y="-2"/>
      <point x="115" y="-2" type="qcurve" smooth="yes"/>
      <point x="107" y="-2"/>
      <point x="97" y="9"/>
      <point x="97" y="17" type="qcurve" smooth="yes"/>
      <point x="97" y="682" type="line"/>
      <point x="86" y="683"/>
      <point x="74" y="686"/>
      <point x="68" y="683"/>
      <point x="67" y="672"/>
      <point x="67" y="659" type="qcurve" smooth="yes"/>
      <point x="67" y="651"/>
      <point x="56" y="640"/>
      <point x="48" y="640" type="qcurve" smooth="yes"/>
      <point x="40" y="640"/>
      <point x="30" y="651"/>
      <point x="30" y="659" type="qcurve" smooth="yes"/>
      <point x="30" y="681"/>
      <point x="38" y="706"/>
      <point x="56" y="717"/>
      <point x="86" y="719"/>
      <point x="109" y="719" type="qcurve" smooth="yes"/>
      <point x="115" y="719" type="line" smooth="yes"/>
      <point x="130" y="719"/>
      <point x="134" y="703" type="qcurve"/>
    </contour>
  </outline>
</glyph>
<glyph name="two" format="1">
  <advance width="342"/>
  <unicode hex="0032"/>
  <outline>
    <contour>
      <point x="171" y="719" type="qcurve" smooth="yes"/>
      <point x="196" y="719"/>
      <point x="239" y="700"/>
      <point x="272" y="667"/>
      <point x="291" y="624"/>
      <point x="291" y="599" type="qcurve" smooth="yes"/>
      <point x="291" y="377" type="line"/>
      <point x="291" y="369" type="line"/>
      <point x="291" y="349" type="line"/>
      <point x="291" y="340" type="line"/>
      <point x="278" y="340" type="line"/>
      <point x="143" y="340" type="line"/>
      <point x="88" y="340" type="line"/>
      <point x="88" y="119" type="line" smooth="yes"/>
      <point x="88" y="84"/>
      <point x="136" y="36"/>
      <point x="171" y="36" type="qcurve" smooth="yes"/>
      <point x="205" y="36"/>
      <point x="253" y="84"/>
      <point x="253" y="119" type="qcurve" smooth="yes"/>
      <point x="253" y="152" type="line"/>
      <point x="291" y="152" type="line"/>
      <point x="291" y="119" type="line" smooth="yes"/>
      <point x="291" y="94"/>
      <point x="272" y="51"/>
      <point x="239" y="18"/>
      <point x="196" y="-1"/>
      <point x="171" y="-1" type="qcurve" smooth="yes"/>
      <point x="146" y="-1"/>
      <point x="103" y="18"/>
      <point x="70" y="51"/>
      <point x="51" y="94"/>
      <point x="51" y="119" type="qcurve" smooth="yes"/>
      <point x="51" y="340" type="line"/>
      <point x="51" y="377" type="line"/>
      <point x="74" y="377" type="line"/>
      <point x="88" y="377" type="line"/>
      <point x="199" y="377" type="line"/>
      <point x="253" y="377" type="line"/>
      <point x="253" y="441" type="line"/>
      <point x="253" y="442" type="line"/>
      <point x="253" y="599" type="line" smooth="yes"/>
      <point x="253" y="634"/>
      <point x="205" y="682"/>
      <point x="171" y="682" type="qcurve" smooth="yes"/>
      <point x="136" y="682"/>
      <point x="88" y="634"/>
      <point x="88" y="599" type="qcurve" smooth="yes"/>
      <point x="88" y="540" type="line"/>
      <point x="51" y="540" type="line"/>
      <point x="51" y="599" type="line" smooth="yes"/>
      <point x="51" y="624"/>
      <point x="70" y="667"/>
      <point x="103" y="700"/>
      <point x="146" y="719"/>
    </contour>
  </outline>
</glyph>
<glyph name="four" format="1">
  <advance width="371"/>
  <unicode hex="0034"/>
  <outline>
    <contour>
      <point x="279" y="719" type="qcurve" smooth="yes"/>
      <point x="287" y="719"/>
      <point x="298" y="709"/>
      <point x="298" y="701" type="qcurve" smooth="yes"/>
      <point x="298" y="494" type="line"/>
      <point x="298" y="460" type="line"/>
      <point x="298" y="17" type="line" smooth="yes"/>
      <point x="298" y="9"/>
      <point x="287" y="-1"/>
      <point x="279" y="-1" type="qcurve" smooth="yes"/>
      <point x="271" y="-1"/>
      <point x="260" y="9"/>
      <point x="260" y="17" type="qcurve" smooth="yes"/>
      <point x="260" y="373" type="line"/>
      <point x="244" y="358"/>
      <point x="202" y="340"/>
      <point x="178" y="340" type="qcurve" smooth="yes"/>
      <point x="153" y="340"/>
      <point x="110" y="359"/>
      <point x="77" y="392"/>
      <point x="58" y="435"/>
      <point x="58" y="460" type="qcurve" smooth="yes"/>
      <point x="58" y="701" type="line" smooth="yes"/>
      <point x="58" y="709"/>
      <point x="69" y="719"/>
      <point x="77" y="719" type="qcurve" smooth="yes"/>
      <point x="85" y="719"/>
      <point x="95" y="709"/>
      <point x="95" y="701" type="qcurve" smooth="yes"/>
      <point x="95" y="460" type="line" smooth="yes"/>
      <point x="95" y="425"/>
      <point x="143" y="377"/>
      <point x="178" y="377" type="qcurve" smooth="yes"/>
      <point x="212" y="377"/>
      <point x="260" y="425"/>
      <point x="260" y="460" type="qcurve" smooth="yes"/>
      <point x="260" y="494" type="line"/>
      <point x="260" y="701" type="line" smooth="yes"/>
      <point x="260" y="709"/>
      <point x="271" y="719"/>
    </contour>
  </outline>
</glyph>
<glyph name="five" format="1">
  <advance width="340"/>
  <unicode hex="0035"/>
  <outline>
    <contour>
      <point x="252" y="564" type="line"/>
      <point x="252" y="597" type="line" smooth="yes"/>
      <point x="252" y="632"/>
      <point x="204" y="680"/>
      <point x="170" y="680" type="qcurve" smooth="yes"/>
      <point x="136" y="680"/>
      <point x="88" y="632"/>
      <point x="88" y="597" type="qcurve" smooth="yes"/>
      <point x="88" y="376" type="line"/>
      <point x="142" y="376" type="line"/>
      <point x="276" y="376" type="line"/>
      <point x="289" y="376" type="line"/>
      <point x="289" y="368" type="line"/>
      <point x="289" y="348" type="line"/>
      <point x="289" y="339" type="line"/>
      <point x="289" y="118" type="line" smooth="yes"/>
      <point x="289" y="93"/>
      <point x="270" y="50"/>
      <point x="238" y="18"/>
      <point x="195" y="-1"/>
      <point x="170" y="-1" type="qcurve" smooth="yes"/>
      <point x="145" y="-1"/>
      <point x="102" y="18"/>
      <point x="70" y="50"/>
      <point x="51" y="93"/>
      <point x="51" y="118" type="qcurve" smooth="yes"/>
      <point x="51" y="177" type="line"/>
      <point x="88" y="177" type="line"/>
      <point x="88" y="118" type="line" smooth="yes"/>
      <point x="88" y="84"/>
      <point x="136" y="36"/>
      <point x="170" y="36" type="qcurve" smooth="yes"/>
      <point x="204" y="36"/>
      <point x="252" y="84"/>
      <point x="252" y="118" type="qcurve" smooth="yes"/>
      <point x="252" y="275" type="line"/>
      <point x="252" y="276" type="line"/>
      <point x="252" y="339" type="line"/>
      <point x="198" y="339" type="line"/>
      <point x="88" y="339" type="line"/>
      <point x="74" y="339" type="line"/>
      <point x="51" y="339" type="line"/>
      <point x="51" y="376" type="line"/>
      <point x="51" y="597" type="line" smooth="yes"/>
      <point x="51" y="622"/>
      <point x="70" y="665"/>
      <point x="102" y="698"/>
      <point x="145" y="717"/>
      <point x="170" y="717" type="qcurve" smooth="yes"/>
      <point x="195" y="717"/>
      <point x="238" y="698"/>
      <point x="270" y="665"/>
      <point x="289" y="622"/>
      <point x="289" y="597" type="qcurve" smooth="yes"/>
      <point x="289" y="564" type="line"/>
    </contour>
  </outline>
</glyph>
<glyph name="six" format="1">
  <advance width="349"/>
  <unicode hex="0036"/>
  <outline>
    <contour>
      <point x="263" y="542" type="line"/>
      <point x="263" y="599" type="line" smooth="yes"/>
      <point x="263" y="634"/>
      <point x="215" y="682"/>
      <point x="180" y="682" type="qcurve" smooth="yes"/>
      <point x="146" y="682"/>
      <point x="97" y="634"/>
      <point x="97" y="599" type="qcurve" smooth="yes"/>
      <point x="97" y="490" type="line"/>
      <point x="97" y="418" type="line"/>
      <point x="104" y="401"/>
      <point x="129" y="379"/>
      <point x="146" y="377" type="qcurve" smooth="yes"/>
      <point x="207" y="377" type="line"/>
      <point x="216" y="377" type="line" smooth="yes"/>
      <point x="241" y="374"/>
      <point x="263" y="355" type="qcurve" smooth="yes"/>
      <point x="269" y="350"/>
      <point x="276" y="340" type="qcurve"/>
      <point x="277" y="340" type="line"/>
      <point x="288" y="325"/>
      <point x="300" y="288"/>
      <point x="300" y="268" type="qcurve" smooth="yes"/>
      <point x="300" y="119" type="line" smooth="yes"/>
      <point x="300" y="94"/>
      <point x="281" y="51"/>
      <point x="248" y="18"/>
      <point x="205" y="-1"/>
      <point x="180" y="-1" type="qcurve" smooth="yes"/>
      <point x="155" y="-1"/>
      <point x="112" y="18"/>
      <point x="79" y="51"/>
      <point x="60" y="94"/>
      <point x="60" y="119" type="qcurve" smooth="yes"/>
      <point x="60" y="442" type="line"/>
      <point x="60" y="449" type="line"/>
      <point x="60" y="453" type="line"/>
      <point x="60" y="490" type="line"/>
      <point x="60" y="599" type="line" smooth="yes"/>
      <point x="60" y="624"/>
      <point x="79" y="667"/>
      <point x="112" y="700"/>
      <point x="155" y="719"/>
      <point x="180" y="719" type="qcurve" smooth="yes"/>
      <point x="205" y="719"/>
      <point x="248" y="700"/>
      <point x="281" y="667"/>
      <point x="300" y="624"/>
      <point x="300" y="599" type="qcurve" smooth="yes"/>
      <point x="300" y="542" type="line"/>
    </contour>
    <contour>
      <point x="144" y="340" type="line" smooth="yes"/>
      <point x="118" y="343"/>
      <point x="97" y="361" type="qcurve"/>
      <point x="97" y="119" type="line" smooth="yes"/>
      <point x="97" y="84"/>
      <point x="146" y="36"/>
      <point x="180" y="36" type="qcurve" smooth="yes"/>
      <point x="215" y="36"/>
      <point x="263" y="84"/>
      <point x="263" y="119" type="qcurve" smooth="yes"/>
      <point x="263" y="299" type="line"/>
      <point x="256" y="316"/>
      <point x="231" y="338"/>
      <point x="214" y="340" type="qcurve" smooth="yes"/>
      <point x="152" y="340" type="line"/>
    </contour>
  </outline>
</glyph>
<glyph name="seven" format="1">
  <advance width="327"/>
  <unicode hex="0037"/>
  <outline>
    <contour>
      <point x="285" y="699" type="qcurve" smooth="yes"/>
      <point x="285" y="695"/>
      <point x="284" y="693" type="qcurve" smooth="yes"/>
      <point x="76" y="7" type="line" smooth="yes"/>
      <point x="71" y="1"/>
      <point x="55" y="-1"/>
      <point x="50" y="4" type="qcurve" smooth="yes"/>
      <point x="43" y="11"/>
      <point x="46" y="24"/>
      <point x="47" y="30" type="qcurve" smooth="yes"/>
      <point x="244" y="680" type="line"/>
      <point x="133" y="680" type="line" smooth="yes"/>
      <point x="103" y="680"/>
      <point x="83" y="661"/>
      <point x="83" y="630" type="qcurve" smooth="yes"/>
      <point x="83" y="622"/>
      <point x="72" y="612"/>
      <point x="64" y="612" type="qcurve" smooth="yes"/>
      <point x="56" y="612"/>
      <point x="46" y="622"/>
      <point x="46" y="630" type="qcurve" smooth="yes"/>
      <point x="46" y="676"/>
      <point x="87" y="718"/>
      <point x="133" y="718" type="qcurve" smooth="yes"/>
      <point x="266" y="718" type="line" smooth="yes"/>
      <point x="285" y="718"/>
    </contour>
  </outline>
</glyph>
<glyph name="eight" format="1">
  <advance width="350"/>
  <unicode hex="0038"/>
  <outline>
    <contour>
      <point x="294" y="560" type="line" smooth="yes"/>
      <point x="294" y="527"/>
      <point x="262" y="473"/>
      <point x="236" y="457" type="qcurve"/>
      <point x="262" y="441"/>
      <point x="294" y="386"/>
      <point x="294" y="353" type="qcurve" smooth="yes"/>
      <point x="294" y="119" type="line" smooth="yes"/>
      <point x="294" y="94"/>
      <point x="275" y="51"/>
      <point x="242" y="18"/>
      <point x="199" y="-1"/>
      <point x="174" y="-1" type="qcurve" smooth="yes"/>
      <point x="149" y="-1"/>
      <point x="106" y="18"/>
      <point x="73" y="51"/>
      <point x="54" y="94"/>
      <point x="54" y="119" type="qcurve" smooth="yes"/>
      <point x="54" y="353" type="line" smooth="yes"/>
      <point x="54" y="386"/>
      <point x="86" y="441"/>
      <point x="112" y="457" type="qcurve"/>
      <point x="86" y="473"/>
      <point x="54" y="527"/>
      <point x="54" y="560" type="qcurve" smooth="yes"/>
      <point x="54" y="602" type="line" smooth="yes"/>
      <point x="54" y="627"/>
      <point x="73" y="671"/>
      <point x="106" y="704"/>
      <point x="149" y="723"/>
      <point x="174" y="723" type="qcurve" smooth="yes"/>
      <point x="199" y="723"/>
      <point x="242" y="704"/>
      <point x="275" y="671"/>
      <point x="294" y="627"/>
      <point x="294" y="602" type="qcurve" smooth="yes"/>
    </contour>
    <contour>
      <point x="257" y="353" type="line" smooth="yes"/>
      <point x="257" y="388"/>
      <point x="209" y="436"/>
      <point x="174" y="436" type="qcurve" smooth="yes"/>
      <point x="139" y="436"/>
      <point x="91" y="388"/>
      <point x="91" y="353" type="qcurve" smooth="yes"/>
      <point x="91" y="176" type="line"/>
      <point x="91" y="175" type="line"/>
      <point x="91" y="119" type="line" smooth="yes"/>
      <point x="91" y="85"/>
      <point x="139" y="36"/>
      <point x="174" y="36" type="qcurve" smooth="yes"/>
      <point x="209" y="36"/>
      <point x="257" y="85"/>
      <point x="257" y="119" type="qcurve" smooth="yes"/>
    </contour>
    <contour>
      <point x="257" y="602" type="line" smooth="yes"/>
      <point x="257" y="637"/>
      <point x="209" y="685"/>
      <point x="174" y="685" type="qcurve" smooth="yes"/>
      <point x="139" y="685"/>
      <point x="91" y="637"/>
      <point x="91" y="602" type="qcurve" smooth="yes"/>
      <point x="91" y="616" type="line"/>
      <point x="91" y="615" type="line"/>
      <point x="91" y="560" type="line" smooth="yes"/>
      <point x="91" y="525"/>
      <point x="139" y="477"/>
      <point x="174" y="477" type="qcurve" smooth="yes"/>
      <point x="209" y="477"/>
      <point x="257" y="525"/>
      <point x="257" y="560" type="qcurve" smooth="yes"/>
    </contour>
  </outline>
</glyph>
<glyph name="greater" format="1">
  <advance width="424"/>
  <unicode hex="003E"/>
  <outline>
    <contour>
      <point x="59" y="-1" type="qcurve" smooth="yes"/>
      <point x="51" y="-1"/>
      <point x="47" y="3" type="qcurve" smooth="yes"/>
      <point x="40" y="8"/>
      <point x="40" y="25"/>
      <point x="45" y="31" type="qcurve" smooth="yes"/>
      <point x="338" y="367" type="line"/>
      <point x="45" y="703" type="line" smooth="yes"/>
      <point x="40" y="709"/>
      <point x="40" y="725"/>
      <point x="47" y="731" type="qcurve" smooth="yes"/>
      <point x="53" y="736"/>
      <point x="69" y="735"/>
      <point x="74" y="729" type="qcurve" smooth="yes"/>
      <point x="390" y="367" type="line"/>
      <point x="74" y="5" type="line" smooth="yes"/>
      <point x="68" y="-1"/>
    </contour>
  </outline>
</glyph>
<glyph name="question" format="1">
  <advance width="311"/>
  <unicode hex="003F"/>
  <outline>
    <contour>
      <point x="278" y="459" type="line"/>
      <point x="278" y="451" type="line" smooth="yes"/>
      <point x="275" y="412"/>
      <point x="254" y="385" type="qcurve" smooth="yes"/>
      <point x="251" y="380"/>
      <point x="244" y="373"/>
      <point x="240" y="369" type="qcurve" smooth="yes"/>
      <point x="219" y="351"/>
      <point x="193" y="348" type="qcurve" smooth="yes"/>
      <point x="190" y="347"/>
      <point x="184" y="347" type="qcurve" smooth="yes"/>
      <point x="121" y="347" type="line" smooth="yes"/>
      <point x="105" y="345"/>
      <point x="79" y="323"/>
      <point x="72" y="306" type="qcurve"/>
      <point x="72" y="100" type="line"/>
      <point x="34" y="100" type="line"/>
      <point x="34" y="274" type="line" smooth="yes"/>
      <point x="34" y="295"/>
      <point x="46" y="333"/>
      <point x="57" y="347" type="qcurve" smooth="yes"/>
      <point x="58" y="348" type="line" smooth="yes"/>
      <point x="63" y="356"/>
      <point x="72" y="363" type="qcurve" smooth="yes"/>
      <point x="94" y="382"/>
      <point x="120" y="385" type="qcurve" smooth="yes"/>
      <point x="122" y="385"/>
      <point x="126" y="386"/>
      <point x="128" y="386" type="qcurve" smooth="yes"/>
      <point x="191" y="386" type="line" smooth="yes"/>
      <point x="207" y="388"/>
      <point x="233" y="410"/>
      <point x="240" y="427" type="qcurve"/>
      <point x="240" y="611" type="line" smooth="yes"/>
      <point x="240" y="646"/>
      <point x="191" y="695"/>
      <point x="156" y="695" type="qcurve" smooth="yes"/>
      <point x="121" y="695"/>
      <point x="72" y="646"/>
      <point x="72" y="611" type="qcurve" smooth="yes"/>
      <point x="72" y="553" type="line"/>
      <point x="34" y="553" type="line"/>
      <point x="34" y="611" type="line" smooth="yes"/>
      <point x="34" y="636"/>
      <point x="53" y="681"/>
      <point x="86" y="714"/>
      <point x="131" y="733"/>
      <point x="156" y="733" type="qcurve" smooth="yes"/>
      <point x="181" y="733"/>
      <point x="226" y="714"/>
      <point x="259" y="681"/>
      <point x="278" y="636"/>
      <point x="278" y="611" type="qcurve" smooth="yes"/>
      <point x="278" y="462" type="line"/>
    </contour>
    <contour>
      <point x="53" y="53" type="qcurve" smooth="yes"/>
      <point x="61" y="53"/>
      <point x="72" y="42"/>
      <point x="72" y="34" type="qcurve" smooth="yes"/>
      <point x="72" y="20" type="line" smooth="yes"/>
      <point x="72" y="12"/>
      <point x="61" y="1"/>
      <point x="53" y="1" type="qcurve" smooth="yes"/>
      <point x="34" y="1"/>
      <point x="34" y="20" type="qcurve" smooth="yes"/>
      <point x="34" y="34" type="line" smooth="yes"/>
      <point x="34" y="42"/>
      <point x="45" y="53"/>
    </contour>
  </outline>
</glyph>
<glyph name="C" format="1">
  <advance width="350"/>
  <unicode hex="0043"/>
  <outline>
    <contour>
      <point x="262" y="552" type="line"/>
      <point x="262" y="611" type="line" smooth="yes"/>
      <point x="262" y="646"/>
      <point x="213" y="695"/>
      <point x="178" y="695" type="qcurve" smooth="yes"/>
      <point x="143" y="695"/>
      <point x="94" y="646"/>
      <point x="94" y="611" type="qcurve" smooth="yes"/>
      <point x="94" y="122" type="line" smooth="yes"/>
      <point x="94" y="104"/>
      <point x="107" y="74"/>
      <point x="130" y="51"/>
      <point x="161" y="38"/>
      <point x="178" y="38" type="qcurve" smooth="yes"/>
      <point x="195" y="38"/>
      <point x="226" y="51"/>
      <point x="249" y="74"/>
      <point x="262" y="104"/>
      <point x="262" y="122" type="qcurve" smooth="yes"/>
      <point x="262" y="157" type="line"/>
      <point x="300" y="157" type="line"/>
      <point x="300" y="122" type="line" smooth="yes"/>
      <point x="300" y="97"/>
      <point x="281" y="52"/>
      <point x="248" y="19"/>
      <point x="203" y="0"/>
      <point x="178" y="0" type="qcurve" smooth="yes"/>
      <point x="153" y="0"/>
      <point x="108" y="19"/>
      <point x="75" y="52"/>
      <point x="56" y="97"/>
      <point x="56" y="122" type="qcurve" smooth="yes"/>
      <point x="56" y="611" type="line" smooth="yes"/>
      <point x="56" y="636"/>
      <point x="75" y="681"/>
      <point x="108" y="714"/>
      <point x="153" y="733"/>
      <point x="178" y="733" type="qcurve" smooth="yes"/>
      <point x="203" y="733"/>
      <point x="248" y="714"/>
      <point x="281" y="681"/>
      <point x="300" y="636"/>
      <point x="300" y="611" type="qcurve" smooth="yes"/>
      <point x="300" y="552" type="line"/>
    </contour>
  </outline>
</glyph>
<glyph name="D" format="1">
  <advance width="368"/>
  <unicode hex="0044"/>
  <outline>
    <contour>
      <point x="187" y="733" type="qcurve" smooth="yes"/>
      <point x="212" y="733"/>
      <point x="257" y="714"/>
      <point x="290" y="681"/>
      <point x="309" y="636"/>
      <point x="309" y="611" type="qcurve" smooth="yes"/>
      <point x="309" y="122" type="line" smooth="yes"/>
      <point x="309" y="97"/>
      <point x="290" y="52"/>
      <point x="257" y="19"/>
      <point x="212" y="0"/>
      <point x="187" y="0" type="qcurve" smooth="yes"/>
      <point x="162" y="0"/>
      <point x="120" y="18"/>
      <point x="103" y="34" type="qcurve"/>
      <point x="103" y="20" type="line" smooth="yes"/>
      <point x="103" y="12"/>
      <point x="92" y="1"/>
      <point x="84" y="1" type="qcurve" smooth="yes"/>
      <point x="76" y="1"/>
      <point x="65" y="12"/>
      <point x="65" y="20" type="qcurve" smooth="yes"/>
      <point x="65" y="119" type="line"/>
      <point x="65" y="122" type="line"/>
      <point x="65" y="611" type="line"/>
      <point x="65" y="614" type="line"/>
      <point x="65" y="713" type="line" smooth="yes"/>
      <point x="65" y="721"/>
      <point x="76" y="732"/>
      <point x="84" y="732" type="qcurve" smooth="yes"/>
      <point x="92" y="732"/>
      <point x="103" y="721"/>
      <point x="103" y="713" type="qcurve" smooth="yes"/>
      <point x="103" y="699" type="line"/>
      <point x="120" y="715"/>
      <point x="162" y="733"/>
    </contour>
    <contour>
      <point x="271" y="450" type="line"/>
      <point x="271" y="451" type="line"/>
      <point x="271" y="611" type="line" smooth="yes"/>
      <point x="271" y="646"/>
      <point x="222" y="695"/>
      <point x="187" y="695" type="qcurve" smooth="yes"/>
      <point x="152" y="695"/>
      <point x="103" y="646"/>
      <point x="103" y="611" type="qcurve" smooth="yes"/>
      <point x="103" y="122" type="line" smooth="yes"/>
      <point x="103" y="87"/>
      <point x="152" y="38"/>
      <point x="187" y="38" type="qcurve" smooth="yes"/>
      <point x="222" y="38"/>
      <point x="271" y="87"/>
      <point x="271" y="122" type="qcurve" smooth="yes"/>
    </contour>
  </outline>
</glyph>
<glyph name="E" format="1">
  <advance width="341"/>
  <unicode hex="0045"/>
  <outline>
    <contour>
      <point x="263" y="552" type="line"/>
      <point x="263" y="611" type="line" smooth="yes"/>
      <point x="263" y="646"/>
      <point x="214" y="695"/>
      <point x="179" y="695" type="qcurve" smooth="yes"/>
      <point x="144" y="695"/>
      <point x="95" y="646"/>
      <point x="95" y="611" type="qcurve" smooth="yes"/>
      <point x="95" y="386" type="line"/>
      <point x="189" y="386" type="line" smooth="yes"/>
      <point x="220" y="386"/>
      <point x="263" y="429"/>
      <point x="263" y="460" type="qcurve" smooth="yes"/>
      <point x="263" y="479"/>
      <point x="282" y="479" type="qcurve" smooth="yes"/>
      <point x="290" y="479"/>
      <point x="301" y="468"/>
      <point x="301" y="460" type="qcurve" smooth="yes"/>
      <point x="301" y="437"/>
      <point x="283" y="396"/>
      <point x="253" y="366"/>
      <point x="212" y="348"/>
      <point x="189" y="348" type="qcurve" smooth="yes"/>
      <point x="95" y="348" type="line"/>
      <point x="95" y="122" type="line" smooth="yes"/>
      <point x="95" y="87"/>
      <point x="144" y="38"/>
      <point x="179" y="38" type="qcurve" smooth="yes"/>
      <point x="214" y="38"/>
      <point x="263" y="87"/>
      <point x="263" y="122" type="qcurve" smooth="yes"/>
      <point x="263" y="157" type="line"/>
      <point x="301" y="157" type="line"/>
      <point x="301" y="122" type="line" smooth="yes"/>
      <point x="301" y="97"/>
      <point x="282" y="52"/>
      <point x="249" y="19"/>
      <point x="204" y="0"/>
      <point x="179" y="0" type="qcurve" smooth="yes"/>
      <point x="154" y="0"/>
      <point x="109" y="19"/>
      <point x="76" y="52"/>
      <point x="57" y="97"/>
      <point x="57" y="122" type="qcurve" smooth="yes"/>
      <point x="57" y="611" type="line" smooth="yes"/>
      <point x="57" y="636"/>
      <point x="76" y="681"/>
      <point x="109" y="714"/>
      <point x="154" y="733"/>
      <point x="179" y="733" type="qcurve" smooth="yes"/>
      <point x="204" y="733"/>
      <point x="249" y="714"/>
      <point x="282" y="681"/>
      <point x="301" y="636"/>
      <point x="301" y="611" type="qcurve" smooth="yes"/>
      <point x="301" y="552" type="line"/>
    </contour>
  </outline>
</glyph>
<glyph name="G" format="1">
  <advance width="359"/>
  <unicode hex="0047"/>
  <outline>
    <contour>
      <point x="272" y="554" type="line"/>
      <point x="272" y="612" type="line" smooth="yes"/>
      <point x="272" y="647"/>
      <point x="223" y="696"/>
      <point x="188" y="696" type="qcurve" smooth="yes"/>
      <point x="153" y="696"/>
      <point x="104" y="647"/>
      <point x="104" y="612" type="qcurve" smooth="yes"/>
      <point x="104" y="123" type="line" smooth="yes"/>
      <point x="104" y="88"/>
      <point x="153" y="39"/>
      <point x="188" y="39" type="qcurve" smooth="yes"/>
      <point x="223" y="39"/>
      <point x="272" y="88"/>
      <point x="272" y="123" type="qcurve" smooth="yes"/>
      <point x="272" y="350" type="line"/>
      <point x="187" y="350" type="line"/>
      <point x="171" y="360"/>
      <point x="173" y="378"/>
      <point x="187" y="388" type="qcurve"/>
      <point x="272" y="388" type="line"/>
      <point x="291" y="388" type="line" smooth="yes"/>
      <point x="299" y="388"/>
      <point x="310" y="377"/>
      <point x="310" y="369" type="qcurve" smooth="yes"/>
      <point x="310" y="123" type="line" smooth="yes"/>
      <point x="310" y="98"/>
      <point x="291" y="53"/>
      <point x="258" y="20"/>
      <point x="213" y="1"/>
      <point x="188" y="1" type="qcurve" smooth="yes"/>
      <point x="163" y="1"/>
      <point x="118" y="20"/>
      <point x="85" y="53"/>
      <point x="66" y="98"/>
      <point x="66" y="123" type="qcurve" smooth="yes"/>
      <point x="66" y="612" type="line" smooth="yes"/>
      <point x="66" y="637"/>
      <point x="85" y="682"/>
      <point x="118" y="715"/>
      <point x="163" y="734"/>
      <point x="188" y="734" type="qcurve" smooth="yes"/>
      <point x="213" y="734"/>
      <point x="258" y="715"/>
      <point x="291" y="682"/>
      <point x="310" y="637"/>
      <point x="310" y="612" type="qcurve" smooth="yes"/>
      <point x="310" y="554" type="line"/>
    </contour>
  </outline>
</glyph>
<glyph name="I" format="1">
  <advance width="238"/>
  <unicode hex="0049"/>
  <outline>
    <contour>
      <point x="186" y="61" type="qcurve" smooth="yes"/>
      <point x="186" y="27"/>
      <point x="155" y="3"/>
      <point x="128" y="1" type="qcurve" smooth="yes"/>
      <point x="125" y="-1"/>
      <point x="120" y="-1" type="qcurve" smooth="yes"/>
      <point x="115" y="-1"/>
      <point x="113" y="0" type="qcurve" smooth="yes"/>
      <point x="82" y="0" type="line"/>
      <point x="76" y="0" type="line" smooth="yes"/>
      <point x="68" y="0"/>
      <point x="57" y="10"/>
      <point x="57" y="18" type="qcurve" smooth="yes"/>
      <point x="57" y="37"/>
      <point x="76" y="37" type="qcurve" smooth="yes"/>
      <point x="82" y="37" type="line" smooth="yes"/>
      <point x="87" y="37"/>
      <point x="96" y="37"/>
      <point x="101" y="36" type="qcurve"/>
      <point x="101" y="117" type="line"/>
      <point x="101" y="612" type="line"/>
      <point x="101" y="696" type="line"/>
      <point x="96" y="693"/>
      <point x="91" y="682"/>
      <point x="91" y="671" type="qcurve" smooth="yes"/>
      <point x="91" y="652"/>
      <point x="72" y="652" type="qcurve" smooth="yes"/>
      <point x="64" y="652"/>
      <point x="54" y="663"/>
      <point x="54" y="671" type="qcurve" smooth="yes"/>
      <point x="54" y="694"/>
      <point x="69" y="719"/>
      <point x="96" y="730"/>
      <point x="134" y="732"/>
      <point x="157" y="732" type="qcurve" smooth="yes"/>
      <point x="164" y="732" type="line" smooth="yes"/>
      <point x="183" y="732"/>
      <point x="183" y="713" type="qcurve" smooth="yes"/>
      <point x="183" y="705"/>
      <point x="172" y="694"/>
      <point x="164" y="694" type="qcurve" smooth="yes"/>
      <point x="157" y="694" type="line" smooth="yes"/>
      <point x="152" y="694"/>
      <point x="143" y="695"/>
      <point x="138" y="695" type="qcurve"/>
      <point x="138" y="612" type="line"/>
      <point x="138" y="117" type="line"/>
      <point x="138" y="36" type="line"/>
      <point x="149" y="39"/>
      <point x="149" y="61" type="qcurve" smooth="yes"/>
      <point x="149" y="69"/>
      <point x="159" y="80"/>
      <point x="167" y="80" type="qcurve" smooth="yes"/>
      <point x="175" y="80"/>
      <point x="186" y="69"/>
    </contour>
  </outline>
</glyph>
<glyph name="J" format="1">
  <advance width="260"/>
  <unicode hex="004A"/>
  <outline>
    <contour>
      <point x="202" y="734" type="line"/>
      <point x="210" y="734"/>
      <point x="221" y="723"/>
      <point x="221" y="715" type="qcurve" smooth="yes"/>
      <point x="221" y="707"/>
      <point x="210" y="696"/>
      <point x="202" y="696" type="qcurve" smooth="yes"/>
      <point x="195" y="696" type="line" smooth="yes"/>
      <point x="190" y="696"/>
      <point x="179" y="696"/>
      <point x="174" y="697" type="qcurve"/>
      <point x="174" y="123" type="line" smooth="yes"/>
      <point x="174" y="98"/>
      <point x="155" y="53"/>
      <point x="122" y="20"/>
      <point x="77" y="1"/>
      <point x="52" y="1" type="qcurve" smooth="yes"/>
      <point x="44" y="1"/>
      <point x="33" y="12"/>
      <point x="33" y="20" type="qcurve" smooth="yes"/>
      <point x="33" y="28"/>
      <point x="44" y="39"/>
      <point x="52" y="39" type="qcurve" smooth="yes"/>
      <point x="87" y="39"/>
      <point x="136" y="88"/>
      <point x="136" y="123" type="qcurve" smooth="yes"/>
      <point x="136" y="696" type="line"/>
      <point x="129" y="689"/>
      <point x="129" y="672" type="qcurve" smooth="yes"/>
      <point x="129" y="664"/>
      <point x="118" y="654"/>
      <point x="110" y="654" type="qcurve" smooth="yes"/>
      <point x="102" y="654"/>
      <point x="91" y="664"/>
      <point x="91" y="672" type="qcurve" smooth="yes"/>
      <point x="91" y="695"/>
      <point x="106" y="720"/>
      <point x="134" y="732"/>
      <point x="172" y="734"/>
      <point x="195" y="734" type="qcurve" smooth="yes"/>
      <point x="202" y="734" type="line"/>
    </contour>
  </outline>
</glyph>
<glyph name="K" format="1">
  <advance width="395"/>
  <unicode hex="004B"/>
  <outline>
    <contour>
      <point x="347" y="723" type="qcurve" smooth="yes"/>
      <point x="355" y="720"/>
      <point x="361" y="706"/>
      <point x="358" y="699" type="qcurve" smooth="yes"/>
      <point x="355" y="691"/>
      <point x="341" y="685"/>
      <point x="334" y="688" type="qcurve" smooth="yes"/>
      <point x="301" y="700"/>
      <point x="238" y="671"/>
      <point x="226" y="639" type="qcurve" smooth="yes"/>
      <point x="113" y="401" type="line" smooth="yes"/>
      <point x="111" y="396"/>
      <point x="107" y="393" type="qcurve"/>
      <point x="111" y="390"/>
      <point x="113" y="385" type="qcurve" smooth="yes"/>
      <point x="237" y="91" type="line" smooth="yes"/>
      <point x="251" y="59"/>
      <point x="291" y="31"/>
      <point x="323" y="44" type="qcurve" smooth="yes"/>
      <point x="331" y="47"/>
      <point x="345" y="42"/>
      <point x="348" y="34" type="qcurve" smooth="yes"/>
      <point x="351" y="26"/>
      <point x="345" y="12"/>
      <point x="337" y="9" type="qcurve" smooth="yes"/>
      <point x="290" y="-10"/>
      <point x="221" y="30"/>
      <point x="202" y="77" type="qcurve" smooth="yes"/>
      <point x="98" y="323" type="line"/>
      <point x="98" y="19" type="line" smooth="yes"/>
      <point x="98" y="11"/>
      <point x="88" y="0"/>
      <point x="80" y="0" type="qcurve" smooth="yes"/>
      <point x="61" y="0"/>
      <point x="61" y="19" type="qcurve" smooth="yes"/>
      <point x="61" y="609" type="line" smooth="yes"/>
      <point x="61" y="634"/>
      <point x="68" y="679"/>
      <point x="87" y="712"/>
      <point x="119" y="731"/>
      <point x="144" y="731" type="qcurve" smooth="yes"/>
      <point x="152" y="731"/>
      <point x="162" y="720"/>
      <point x="162" y="712" type="qcurve" smooth="yes"/>
      <point x="162" y="704"/>
      <point x="152" y="693"/>
      <point x="144" y="693" type="qcurve" smooth="yes"/>
      <point x="126" y="693"/>
      <point x="108" y="680"/>
      <point x="99" y="657"/>
      <point x="98" y="627"/>
      <point x="98" y="609" type="qcurve" smooth="yes"/>
      <point x="98" y="458" type="line"/>
      <point x="190" y="653" type="line" smooth="yes"/>
      <point x="199" y="676"/>
      <point x="233" y="711"/>
      <point x="275" y="730"/>
      <point x="323" y="732"/>
    </contour>
  </outline>
</glyph>
<glyph name="L" format="1">
  <advance width="320"/>
  <unicode hex="004C"/>
  <outline>
    <contour>
      <point x="258" y="38" type="qcurve" smooth="yes"/>
      <point x="266" y="38"/>
      <point x="276" y="27"/>
      <point x="276" y="19" type="qcurve" smooth="yes"/>
      <point x="276" y="11"/>
      <point x="266" y="0"/>
      <point x="258" y="0" type="qcurve" smooth="yes"/>
      <point x="232" y="0"/>
      <point x="170" y="4"/>
      <point x="114" y="21"/>
      <point x="77" y="52"/>
      <point x="77" y="79" type="qcurve" smooth="yes"/>
      <point x="77" y="668" type="line"/>
      <point x="77" y="714" type="line" smooth="yes"/>
      <point x="77" y="722"/>
      <point x="88" y="733"/>
      <point x="96" y="733" type="qcurve" smooth="yes"/>
      <point x="104" y="733"/>
      <point x="115" y="722"/>
      <point x="115" y="714" type="qcurve" smooth="yes"/>
      <point x="115" y="645" type="line"/>
      <point x="115" y="79" type="line" smooth="yes"/>
      <point x="115" y="62"/>
      <point x="146" y="46"/>
      <point x="191" y="38"/>
      <point x="240" y="38"/>
    </contour>
  </outline>
</glyph>
<glyph name="M" format="1">
  <advance width="579"/>
  <unicode hex="004D"/>
  <outline>
    <contour>
      <point x="391" y="734" type="qcurve" smooth="yes"/>
      <point x="416" y="734"/>
      <point x="461" y="715"/>
      <point x="494" y="682"/>
      <point x="513" y="637"/>
      <point x="513" y="612" type="qcurve" smooth="yes"/>
      <point x="513" y="20" type="line" smooth="yes"/>
      <point x="513" y="12"/>
      <point x="502" y="1"/>
      <point x="494" y="1" type="qcurve" smooth="yes"/>
      <point x="486" y="1"/>
      <point x="475" y="12"/>
      <point x="475" y="20" type="qcurve" smooth="yes"/>
      <point x="475" y="612" type="line" smooth="yes"/>
      <point x="475" y="629"/>
      <point x="462" y="660"/>
      <point x="439" y="683"/>
      <point x="409" y="696"/>
      <point x="391" y="696" type="qcurve" smooth="yes"/>
      <point x="358" y="696"/>
      <point x="310" y="650"/>
      <point x="308" y="617" type="qcurve" smooth="yes"/>
      <point x="308" y="612" type="line"/>
      <point x="308" y="367" type="line" smooth="yes"/>
      <point x="308" y="359"/>
      <point x="297" y="349"/>
      <point x="289" y="349" type="qcurve" smooth="yes"/>
      <point x="284" y="349"/>
      <point x="282" y="350" type="qcurve" smooth="yes"/>
      <point x="270" y="355"/>
      <point x="270" y="368" type="qcurve" smooth="yes"/>
      <point x="270" y="612" type="line"/>
      <point x="270" y="617" type="line" smooth="yes"/>
      <point x="268" y="650"/>
      <point x="220" y="696"/>
      <point x="187" y="696" type="qcurve" smooth="yes"/>
      <point x="169" y="696"/>
      <point x="139" y="683"/>
      <point x="116" y="660"/>
      <point x="103" y="629"/>
      <point x="103" y="612" type="qcurve" smooth="yes"/>
      <point x="103" y="20" type="line" smooth="yes"/>
      <point x="103" y="12"/>
      <point x="92" y="1"/>
      <point x="84" y="1" type="qcurve" smooth="yes"/>
      <point x="76" y="1"/>
      <point x="65" y="12"/>
      <point x="65" y="20" type="qcurve" smooth="yes"/>
      <point x="65" y="612" type="line" smooth="yes"/>
      <point x="65" y="637"/>
      <point x="84" y="682"/>
      <point x="117" y="715"/>
      <point x="162" y="734"/>
      <point x="187" y="734" type="qcurve" smooth="yes"/>
      <point x="219" y="734"/>
      <point x="272" y="703"/>
      <point x="289" y="677" type="qcurve"/>
      <point x="306" y="703"/>
      <point x="359" y="734"/>
    </contour>
  </outline>
</glyph>
<glyph name="N" format="1">
  <advance width="372"/>
  <unicode hex="004E"/>
  <outline>
    <contour>
      <point x="185" y="733" type="qcurve" smooth="yes"/>
      <point x="210" y="733"/>
      <point x="254" y="714"/>
      <point x="287" y="681"/>
      <point x="306" y="636"/>
      <point x="306" y="611" type="qcurve" smooth="yes"/>
      <point x="306" y="19" type="line" smooth="yes"/>
      <point x="306" y="11"/>
      <point x="296" y="0"/>
      <point x="288" y="0" type="qcurve" smooth="yes"/>
      <point x="269" y="0"/>
      <point x="269" y="19" type="qcurve" smooth="yes"/>
      <point x="269" y="611" type="line" smooth="yes"/>
      <point x="269" y="629"/>
      <point x="256" y="659"/>
      <point x="233" y="682"/>
      <point x="202" y="695"/>
      <point x="185" y="695" type="qcurve" smooth="yes"/>
      <point x="168" y="695"/>
      <point x="137" y="682"/>
      <point x="114" y="659"/>
      <point x="101" y="629"/>
      <point x="101" y="611" type="qcurve" smooth="yes"/>
      <point x="101" y="19" type="line" smooth="yes"/>
      <point x="101" y="0"/>
      <point x="82" y="0" type="qcurve" smooth="yes"/>
      <point x="74" y="0"/>
      <point x="63" y="11"/>
      <point x="63" y="19" type="qcurve" smooth="yes"/>
      <point x="63" y="611" type="line" smooth="yes"/>
      <point x="63" y="636"/>
      <point x="82" y="681"/>
      <point x="115" y="714"/>
      <point x="160" y="733"/>
    </contour>
  </outline>
</glyph>
<glyph name="O" format="1">
  <advance width="363"/>
  <unicode hex="004F"/>
  <outline>
    <contour>
      <point x="180" y="734" type="qcurve" smooth="yes"/>
      <point x="205" y="734"/>
      <point x="250" y="715"/>
      <point x="283" y="682"/>
      <point x="302" y="637"/>
      <point x="302" y="612" type="qcurve" smooth="yes"/>
      <point x="302" y="123" type="line" smooth="yes"/>
      <point x="302" y="98"/>
      <point x="283" y="53"/>
      <point x="250" y="20"/>
      <point x="205" y="1"/>
      <point x="180" y="1" type="qcurve" smooth="yes"/>
      <point x="155" y="1"/>
      <point x="110" y="20"/>
      <point x="77" y="53"/>
      <point x="58" y="98"/>
      <point x="58" y="123" type="qcurve" smooth="yes"/>
      <point x="58" y="612" type="line" smooth="yes"/>
      <point x="58" y="637"/>
      <point x="77" y="682"/>
      <point x="110" y="715"/>
      <point x="155" y="734"/>
    </contour>
    <contour>
      <point x="264" y="451" type="line"/>
      <point x="264" y="452" type="line"/>
      <point x="264" y="612" type="line" smooth="yes"/>
      <point x="264" y="647"/>
      <point x="215" y="696"/>
      <point x="180" y="696" type="qcurve" smooth="yes"/>
      <point x="145" y="696"/>
      <point x="96" y="647"/>
      <point x="96" y="612" type="qcurve" smooth="yes"/>
      <point x="96" y="123" type="line" smooth="yes"/>
      <point x="96" y="105"/>
      <point x="109" y="75"/>
      <point x="132" y="52"/>
      <point x="163" y="39"/>
      <point x="180" y="39" type="qcurve" smooth="yes"/>
      <point x="197" y="39"/>
      <point x="228" y="52"/>
      <point x="251" y="75"/>
      <point x="264" y="105"/>
      <point x="264" y="123" type="qcurve" smooth="yes"/>
    </contour>
  </outline>
</glyph>
<glyph name="P" format="1">
  <advance width="364"/>
  <unicode hex="0050"/>
  <outline>
    <contour>
      <point x="308" y="455" type="line"/>
      <point x="307" y="455" type="line"/>
      <point x="306" y="433"/>
      <point x="288" y="394"/>
      <point x="258" y="366"/>
      <point x="218" y="349"/>
      <point x="196" y="349" type="qcurve" smooth="yes"/>
      <point x="102" y="349" type="line"/>
      <point x="102" y="35" type="line"/>
      <point x="102" y="19" type="line" smooth="yes"/>
      <point x="102" y="0"/>
      <point x="83" y="0" type="qcurve" smooth="yes"/>
      <point x="75" y="0"/>
      <point x="64" y="11"/>
      <point x="64" y="19" type="qcurve" smooth="yes"/>
      <point x="64" y="123" type="line"/>
      <point x="64" y="611" type="line"/>
      <point x="64" y="612" type="line" smooth="yes"/>
      <point x="64" y="637"/>
      <point x="84" y="681"/>
      <point x="117" y="713"/>
      <point x="161" y="732"/>
      <point x="186" y="732" type="qcurve" smooth="yes"/>
      <point x="211" y="732"/>
      <point x="256" y="713"/>
      <point x="289" y="680"/>
      <point x="308" y="636"/>
      <point x="308" y="611" type="qcurve" smooth="yes"/>
    </contour>
    <contour>
      <point x="196" y="387" type="line" smooth="yes"/>
      <point x="227" y="387"/>
      <point x="270" y="430"/>
      <point x="270" y="460" type="qcurve" smooth="yes"/>
      <point x="270" y="461" type="line"/>
      <point x="270" y="611" type="line" smooth="yes"/>
      <point x="270" y="646"/>
      <point x="221" y="695"/>
      <point x="186" y="695" type="qcurve" smooth="yes"/>
      <point x="151" y="695"/>
      <point x="102" y="646"/>
      <point x="102" y="611" type="qcurve" smooth="yes"/>
      <point x="102" y="387" type="line"/>
    </contour>
  </outline>
</glyph>
<glyph name="Q" format="1">
  <advance width="395"/>
  <unicode hex="0051"/>
  <outline>
    <contour>
      <point x="358" y="38" type="qcurve" smooth="yes"/>
      <point x="366" y="38"/>
      <point x="377" y="27"/>
      <point x="377" y="19" type="qcurve" smooth="yes"/>
      <point x="377" y="11"/>
      <point x="366" y="0"/>
      <point x="358" y="0" type="qcurve" smooth="yes"/>
      <point x="328" y="0"/>
      <point x="291" y="26"/>
      <point x="280" y="49" type="qcurve"/>
      <point x="263" y="26"/>
      <point x="213" y="0"/>
      <point x="183" y="0" type="qcurve" smooth="yes"/>
      <point x="158" y="0"/>
      <point x="113" y="19"/>
      <point x="80" y="52"/>
      <point x="61" y="97"/>
      <point x="61" y="122" type="qcurve" smooth="yes"/>
      <point x="61" y="611" type="line" smooth="yes"/>
      <point x="61" y="636"/>
      <point x="80" y="681"/>
      <point x="113" y="714"/>
      <point x="158" y="733"/>
      <point x="183" y="733" type="qcurve" smooth="yes"/>
      <point x="208" y="733"/>
      <point x="253" y="714"/>
      <point x="286" y="681"/>
      <point x="305" y="636"/>
      <point x="305" y="611" type="qcurve" smooth="yes"/>
      <point x="305" y="250" type="line"/>
      <point x="305" y="122" type="line" smooth="yes"/>
      <point x="305" y="105"/>
      <point x="309" y="74"/>
      <point x="320" y="51"/>
      <point x="341" y="38"/>
    </contour>
    <contour>
      <point x="183" y="38" type="qcurve" smooth="yes"/>
      <point x="209" y="38"/>
      <point x="251" y="66"/>
      <point x="261" y="89" type="qcurve"/>
      <point x="256" y="103"/>
      <point x="234" y="120"/>
      <point x="214" y="120" type="qcurve" smooth="yes"/>
      <point x="206" y="120"/>
      <point x="195" y="131"/>
      <point x="195" y="139" type="qcurve" smooth="yes"/>
      <point x="195" y="147"/>
      <point x="206" y="158"/>
      <point x="214" y="158" type="qcurve" smooth="yes"/>
      <point x="246" y="158"/>
      <point x="267" y="142" type="qcurve"/>
      <point x="267" y="250" type="line"/>
      <point x="267" y="450" type="line"/>
      <point x="267" y="451" type="line"/>
      <point x="267" y="611" type="line" smooth="yes"/>
      <point x="267" y="646"/>
      <point x="218" y="695"/>
      <point x="183" y="695" type="qcurve" smooth="yes"/>
      <point x="148" y="695"/>
      <point x="99" y="646"/>
      <point x="99" y="611" type="qcurve" smooth="yes"/>
      <point x="99" y="122" type="line" smooth="yes"/>
      <point x="99" y="87"/>
      <point x="148" y="38"/>
    </contour>
  </outline>
</glyph>
<glyph name="R" format="1">
  <advance width="353"/>
  <unicode hex="0052"/>
  <outline>
    <contour>
      <point x="306" y="455" type="line"/>
      <point x="305" y="433"/>
      <point x="287" y="394"/>
      <point x="257" y="366"/>
      <point x="218" y="349"/>
      <point x="196" y="349" type="qcurve"/>
      <point x="223" y="117" type="line" smooth="yes"/>
      <point x="225" y="100"/>
      <point x="233" y="70"/>
      <point x="246" y="48"/>
      <point x="268" y="37"/>
      <point x="285" y="39" type="qcurve" smooth="yes"/>
      <point x="293" y="41"/>
      <point x="305" y="31"/>
      <point x="306" y="23" type="qcurve" smooth="yes"/>
      <point x="308" y="15"/>
      <point x="298" y="3"/>
      <point x="290" y="2" type="qcurve" smooth="yes"/>
      <point x="265" y="-1"/>
      <point x="228" y="14"/>
      <point x="203" y="44"/>
      <point x="189" y="87"/>
      <point x="186" y="112" type="qcurve" smooth="yes"/>
      <point x="158" y="349" type="line"/>
      <point x="101" y="349" type="line"/>
      <point x="101" y="35" type="line"/>
      <point x="101" y="19" type="line" smooth="yes"/>
      <point x="101" y="0"/>
      <point x="82" y="0" type="qcurve" smooth="yes"/>
      <point x="74" y="0"/>
      <point x="63" y="11"/>
      <point x="63" y="19" type="qcurve" smooth="yes"/>
      <point x="63" y="123" type="line"/>
      <point x="63" y="611" type="line"/>
      <point x="63" y="612" type="line" smooth="yes"/>
      <point x="63" y="637"/>
      <point x="83" y="681"/>
      <point x="116" y="713"/>
      <point x="160" y="732"/>
      <point x="185" y="732" type="qcurve" smooth="yes"/>
      <point x="210" y="732"/>
      <point x="255" y="713"/>
      <point x="288" y="680"/>
      <point x="307" y="636"/>
      <point x="307" y="611" type="qcurve" smooth="yes"/>
      <point x="307" y="455" type="line"/>
    </contour>
    <contour>
      <point x="195" y="387" type="line" smooth="yes"/>
      <point x="226" y="387"/>
      <point x="269" y="430"/>
      <point x="269" y="460" type="qcurve" smooth="yes"/>
      <point x="269" y="461" type="line"/>
      <point x="269" y="611" type="line" smooth="yes"/>
      <point x="269" y="646"/>
      <point x="220" y="695"/>
      <point x="185" y="695" type="qcurve" smooth="yes"/>
      <point x="150" y="695"/>
      <point x="101" y="646"/>
      <point x="101" y="611" type="qcurve" smooth="yes"/>
      <point x="101" y="387" type="line"/>
    </contour>
  </outline>
</glyph>
<glyph name="S" format="1">
  <advance width="338"/>
  <unicode hex="0053"/>
  <outline>
    <contour>
      <point x="251" y="553" type="line"/>
      <point x="251" y="611" type="line" smooth="yes"/>
      <point x="251" y="646"/>
      <point x="202" y="695"/>
      <point x="167" y="695" type="qcurve" smooth="yes"/>
      <point x="132" y="695"/>
      <point x="83" y="646"/>
      <point x="83" y="611" type="qcurve" smooth="yes"/>
      <point x="83" y="427" type="line"/>
      <point x="90" y="410"/>
      <point x="116" y="387"/>
      <point x="132" y="385" type="qcurve" smooth="yes"/>
      <point x="195" y="385" type="line"/>
      <point x="203" y="385" type="line" smooth="yes"/>
      <point x="230" y="382"/>
      <point x="251" y="363" type="qcurve" smooth="yes"/>
      <point x="255" y="360"/>
      <point x="262" y="352"/>
      <point x="265" y="348" type="qcurve" smooth="yes"/>
      <point x="266" y="347" type="line" smooth="yes"/>
      <point x="277" y="332"/>
      <point x="289" y="295"/>
      <point x="289" y="274" type="qcurve" smooth="yes"/>
      <point x="289" y="122" type="line" smooth="yes"/>
      <point x="289" y="97"/>
      <point x="270" y="52"/>
      <point x="237" y="19"/>
      <point x="192" y="0"/>
      <point x="167" y="0" type="qcurve" smooth="yes"/>
      <point x="142" y="0"/>
      <point x="97" y="19"/>
      <point x="64" y="52"/>
      <point x="45" y="97"/>
      <point x="45" y="122" type="qcurve" smooth="yes"/>
      <point x="45" y="158" type="line"/>
      <point x="83" y="158" type="line"/>
      <point x="83" y="122" type="line" smooth="yes"/>
      <point x="83" y="87"/>
      <point x="132" y="38"/>
      <point x="167" y="38" type="qcurve" smooth="yes"/>
      <point x="202" y="38"/>
      <point x="251" y="87"/>
      <point x="251" y="122" type="qcurve" smooth="yes"/>
      <point x="251" y="305" type="line"/>
      <point x="244" y="322"/>
      <point x="219" y="345"/>
      <point x="202" y="347" type="qcurve" smooth="yes"/>
      <point x="139" y="347" type="line" smooth="yes"/>
      <point x="133" y="347"/>
      <point x="131" y="348" type="qcurve" smooth="yes"/>
      <point x="117" y="349"/>
      <point x="94" y="360"/>
      <point x="83" y="369" type="qcurve" smooth="yes"/>
      <point x="79" y="373"/>
      <point x="72" y="380"/>
      <point x="69" y="385" type="qcurve" smooth="yes"/>
      <point x="48" y="412"/>
      <point x="45" y="451" type="qcurve" smooth="yes"/>
      <point x="45" y="459" type="line"/>
      <point x="45" y="462" type="line"/>
      <point x="45" y="611" type="line" smooth="yes"/>
      <point x="45" y="636"/>
      <point x="64" y="681"/>
      <point x="97" y="714"/>
      <point x="142" y="733"/>
      <point x="167" y="733" type="qcurve" smooth="yes"/>
      <point x="192" y="733"/>
      <point x="237" y="714"/>
      <point x="270" y="681"/>
      <point x="289" y="636"/>
      <point x="289" y="611" type="qcurve" smooth="yes"/>
      <point x="289" y="553" type="line"/>
    </contour>
  </outline>
</glyph>
<glyph name="T" format="1">
  <advance width="406"/>
  <unicode hex="0054"/>
  <outline>
    <contour>
      <point x="336" y="732" type="line"/>
      <point x="344" y="732"/>
      <point x="355" y="722"/>
      <point x="355" y="714" type="qcurve" smooth="yes"/>
      <point x="355" y="706"/>
      <point x="344" y="695"/>
      <point x="336" y="695" type="qcurve" smooth="yes"/>
      <point x="229" y="695" type="line"/>
      <point x="229" y="20" type="line" smooth="yes"/>
      <point x="229" y="1"/>
      <point x="210" y="1" type="qcurve" smooth="yes"/>
      <point x="202" y="1"/>
      <point x="192" y="12"/>
      <point x="192" y="20" type="qcurve" smooth="yes"/>
      <point x="192" y="695" type="line"/>
      <point x="167" y="695" type="line" smooth="yes"/>
      <point x="136" y="695"/>
      <point x="93" y="652"/>
      <point x="93" y="621" type="qcurve" smooth="yes"/>
      <point x="93" y="613"/>
      <point x="82" y="602"/>
      <point x="74" y="602" type="qcurve" smooth="yes"/>
      <point x="66" y="602"/>
      <point x="55" y="613"/>
      <point x="55" y="621" type="qcurve" smooth="yes"/>
      <point x="55" y="644"/>
      <point x="73" y="685"/>
      <point x="103" y="715"/>
      <point x="144" y="732"/>
      <point x="167" y="732" type="qcurve" smooth="yes"/>
      <point x="336" y="732" type="line"/>
    </contour>
  </outline>
</glyph>
<glyph name="U" format="1">
  <advance width="367"/>
  <unicode hex="0055"/>
  <outline>
    <contour>
      <point x="287" y="732" type="qcurve" smooth="yes"/>
      <point x="306" y="732"/>
      <point x="306" y="713" type="qcurve" smooth="yes"/>
      <point x="306" y="122" type="line" smooth="yes"/>
      <point x="306" y="97"/>
      <point x="287" y="53"/>
      <point x="254" y="20"/>
      <point x="210" y="1"/>
      <point x="185" y="1" type="qcurve" smooth="yes"/>
      <point x="160" y="1"/>
      <point x="116" y="20"/>
      <point x="83" y="53"/>
      <point x="64" y="97"/>
      <point x="64" y="122" type="qcurve" smooth="yes"/>
      <point x="64" y="713" type="line" smooth="yes"/>
      <point x="64" y="732"/>
      <point x="83" y="732" type="qcurve" smooth="yes"/>
      <point x="91" y="732"/>
      <point x="101" y="721"/>
      <point x="101" y="713" type="qcurve" smooth="yes"/>
      <point x="101" y="122" type="line" smooth="yes"/>
      <point x="101" y="87"/>
      <point x="150" y="39"/>
      <point x="185" y="39" type="qcurve" smooth="yes"/>
      <point x="220" y="39"/>
      <point x="269" y="87"/>
      <point x="269" y="122" type="qcurve" smooth="yes"/>
      <point x="269" y="713" type="line" smooth="yes"/>
      <point x="269" y="721"/>
      <point x="279" y="732"/>
    </contour>
  </outline>
</glyph>
<glyph name="V" format="1">
  <advance width="359"/>
  <unicode hex="0056"/>
  <outline>
    <contour>
      <point x="253" y="730" type="qcurve" smooth="yes"/>
      <point x="277" y="722"/>
      <point x="303" y="694"/>
      <point x="314" y="656"/>
      <point x="309" y="612"/>
      <point x="302" y="588" type="qcurve" smooth="yes"/>
      <point x="196" y="15" type="line" smooth="yes"/>
      <point x="193" y="4"/>
      <point x="182" y="2" type="qcurve" smooth="yes"/>
      <point x="181" y="2" type="line" smooth="yes"/>
      <point x="173" y="0"/>
      <point x="160" y="7"/>
      <point x="158" y="14" type="qcurve" smooth="yes"/>
      <point x="59" y="589" type="line" smooth="yes"/>
      <point x="52" y="613"/>
      <point x="48" y="658"/>
      <point x="59" y="695"/>
      <point x="87" y="723"/>
      <point x="111" y="730" type="qcurve" smooth="yes"/>
      <point x="119" y="732"/>
      <point x="132" y="725"/>
      <point x="134" y="718" type="qcurve" smooth="yes"/>
      <point x="136" y="710"/>
      <point x="129" y="696"/>
      <point x="121" y="694" type="qcurve" smooth="yes"/>
      <point x="89" y="685"/>
      <point x="85" y="633"/>
      <point x="95" y="600" type="qcurve"/>
      <point x="178" y="90" type="line"/>
      <point x="267" y="599" type="line"/>
      <point x="277" y="632"/>
      <point x="274" y="683"/>
      <point x="241" y="694" type="qcurve" smooth="yes"/>
      <point x="234" y="696"/>
      <point x="227" y="709"/>
      <point x="229" y="717" type="qcurve" smooth="yes"/>
      <point x="231" y="725"/>
      <point x="245" y="732"/>
    </contour>
  </outline>
</glyph>
<glyph name="W" format="1">
  <advance width="588"/>
  <unicode hex="0057"/>
  <outline>
    <contour>
      <point x="482" y="732" type="qcurve" smooth="yes"/>
      <point x="506" y="724"/>
      <point x="534" y="696"/>
      <point x="544" y="657"/>
      <point x="540" y="612"/>
      <point x="533" y="588" type="qcurve" smooth="yes"/>
      <point x="425" y="13" type="line" smooth="yes"/>
      <point x="420" y="1"/>
      <point x="410" y="0" type="qcurve" smooth="yes"/>
      <point x="402" y="-2"/>
      <point x="388" y="5"/>
      <point x="386" y="13" type="qcurve" smooth="yes"/>
      <point x="293" y="310" type="line"/>
      <point x="194" y="15" type="line" smooth="yes"/>
      <point x="191" y="4"/>
      <point x="179" y="2" type="qcurve" smooth="yes"/>
      <point x="171" y="0"/>
      <point x="157" y="6"/>
      <point x="155" y="14" type="qcurve" smooth="yes"/>
      <point x="54" y="591" type="line" smooth="yes"/>
      <point x="47" y="615"/>
      <point x="44" y="661"/>
      <point x="55" y="699"/>
      <point x="83" y="727"/>
      <point x="107" y="734" type="qcurve" smooth="yes"/>
      <point x="115" y="736"/>
      <point x="129" y="729"/>
      <point x="131" y="721" type="qcurve" smooth="yes"/>
      <point x="133" y="713"/>
      <point x="126" y="700"/>
      <point x="118" y="698" type="qcurve" smooth="yes"/>
      <point x="101" y="693"/>
      <point x="85" y="674"/>
      <point x="81" y="649"/>
      <point x="86" y="618"/>
      <point x="91" y="602" type="qcurve" smooth="yes"/>
      <point x="175" y="92" type="line"/>
      <point x="266" y="348" type="line" smooth="yes"/>
      <point x="277" y="381"/>
      <point x="273" y="433"/>
      <point x="240" y="444" type="qcurve" smooth="yes"/>
      <point x="232" y="446"/>
      <point x="225" y="460"/>
      <point x="228" y="468" type="qcurve" smooth="yes"/>
      <point x="230" y="476"/>
      <point x="243" y="482"/>
      <point x="251" y="480" type="qcurve" smooth="yes"/>
      <point x="280" y="471"/>
      <point x="295" y="452" type="qcurve"/>
      <point x="310" y="472"/>
      <point x="338" y="479" type="qcurve" smooth="yes"/>
      <point x="346" y="481"/>
      <point x="360" y="474"/>
      <point x="362" y="466" type="qcurve" smooth="yes"/>
      <point x="364" y="458"/>
      <point x="357" y="445"/>
      <point x="349" y="443" type="qcurve" smooth="yes"/>
      <point x="332" y="438"/>
      <point x="316" y="420"/>
      <point x="311" y="394"/>
      <point x="317" y="364"/>
      <point x="322" y="347" type="qcurve" smooth="yes"/>
      <point x="406" y="90" type="line"/>
      <point x="496" y="599" type="line" smooth="yes"/>
      <point x="501" y="616"/>
      <point x="507" y="646"/>
      <point x="503" y="672"/>
      <point x="487" y="690"/>
      <point x="471" y="695" type="qcurve" smooth="yes"/>
      <point x="463" y="698"/>
      <point x="456" y="711"/>
      <point x="458" y="719" type="qcurve" smooth="yes"/>
      <point x="460" y="727"/>
      <point x="474" y="734"/>
    </contour>
  </outline>
</glyph>
<glyph name="X" format="1">
  <advance width="450"/>
  <unicode hex="0058"/>
  <outline>
    <contour>
      <point x="397" y="30" type="line"/>
      <point x="402" y="23"/>
      <point x="399" y="8"/>
      <point x="392" y="3" type="qcurve" smooth="yes"/>
      <point x="385" y="-2"/>
      <point x="370" y="2"/>
      <point x="365" y="9" type="qcurve" smooth="yes"/>
      <point x="226" y="289" type="line"/>
      <point x="87" y="9" type="line" smooth="yes"/>
      <point x="82" y="2"/>
      <point x="67" y="-2"/>
      <point x="60" y="3" type="qcurve" smooth="yes"/>
      <point x="53" y="8"/>
      <point x="50" y="23"/>
      <point x="55" y="30" type="qcurve" smooth="yes"/>
      <point x="205" y="331" type="line"/>
      <point x="83" y="576" type="line" smooth="yes"/>
      <point x="69" y="597"/>
      <point x="52" y="640"/>
      <point x="51" y="680"/>
      <point x="70" y="716"/>
      <point x="91" y="730" type="qcurve" smooth="yes"/>
      <point x="98" y="735"/>
      <point x="113" y="731"/>
      <point x="117" y="725" type="qcurve" smooth="yes"/>
      <point x="122" y="718"/>
      <point x="119" y="703"/>
      <point x="112" y="698" type="qcurve" smooth="yes"/>
      <point x="83" y="678"/>
      <point x="95" y="627"/>
      <point x="115" y="598" type="qcurve"/>
      <point x="226" y="374" type="line"/>
      <point x="337" y="598" type="line"/>
      <point x="357" y="627"/>
      <point x="369" y="678"/>
      <point x="340" y="698" type="qcurve" smooth="yes"/>
      <point x="333" y="703"/>
      <point x="330" y="718"/>
      <point x="335" y="725" type="qcurve" smooth="yes"/>
      <point x="339" y="731"/>
      <point x="354" y="735"/>
      <point x="361" y="730" type="qcurve" smooth="yes"/>
      <point x="382" y="716"/>
      <point x="401" y="680"/>
      <point x="400" y="640"/>
      <point x="383" y="597"/>
      <point x="369" y="576" type="qcurve" smooth="yes"/>
      <point x="247" y="331" type="line"/>
      <point x="397" y="30" type="line"/>
    </contour>
  </outline>
</glyph>
<glyph name="Z" format="1">
  <advance width="356"/>
  <unicode hex="005A"/>
  <outline>
    <contour>
      <point x="286" y="109" type="qcurve" smooth="yes"/>
      <point x="294" y="109"/>
      <point x="305" y="97"/>
      <point x="305" y="89" type="qcurve" smooth="yes"/>
      <point x="305" y="42"/>
      <point x="263" y="0"/>
      <point x="216" y="0" type="qcurve" smooth="yes"/>
      <point x="76" y="0" type="line" smooth="yes"/>
      <point x="75" y="0"/>
      <point x="73" y="1"/>
      <point x="72" y="1" type="qcurve" smooth="yes"/>
      <point x="68" y="1"/>
      <point x="62" y="5" type="qcurve" smooth="yes"/>
      <point x="57" y="12"/>
      <point x="57" y="17" type="qcurve" smooth="yes"/>
      <point x="57" y="19" type="line" smooth="yes"/>
      <point x="57" y="26"/>
      <point x="59" y="30" type="qcurve" smooth="yes"/>
      <point x="59" y="32" type="line"/>
      <point x="260" y="694" type="line"/>
      <point x="147" y="694" type="line" smooth="yes"/>
      <point x="116" y="694"/>
      <point x="96" y="674"/>
      <point x="96" y="643" type="qcurve" smooth="yes"/>
      <point x="96" y="635"/>
      <point x="85" y="624"/>
      <point x="77" y="624" type="qcurve" smooth="yes"/>
      <point x="69" y="624"/>
      <point x="58" y="635"/>
      <point x="58" y="643" type="qcurve" smooth="yes"/>
      <point x="58" y="690"/>
      <point x="100" y="732"/>
      <point x="147" y="732" type="qcurve" smooth="yes"/>
      <point x="283" y="732" type="line" smooth="yes"/>
      <point x="291" y="732"/>
      <point x="302" y="721"/>
      <point x="302" y="713" type="qcurve" smooth="yes"/>
      <point x="302" y="709"/>
      <point x="301" y="707" type="qcurve" smooth="yes"/>
      <point x="98" y="38" type="line"/>
      <point x="216" y="38" type="line" smooth="yes"/>
      <point x="247" y="38"/>
      <point x="267" y="58"/>
      <point x="267" y="89" type="qcurve" smooth="yes"/>
      <point x="267" y="97"/>
      <point x="278" y="109"/>
    </contour>
  </outline>
</glyph>
<glyph name="asciicircum" format="1">
  <advance width="453"/>
  <unicode hex="005E"/>
  <outline>
    <contour>
      <point x="398" y="561" type="qcurve" smooth="yes"/>
      <point x="398" y="551"/>
      <point x="393" y="546" type="qcurve" smooth="yes"/>
      <point x="387" y="539"/>
      <point x="377" y="539" type="qcurve" smooth="yes"/>
      <point x="371" y="539"/>
      <point x="364" y="544" type="qcurve" smooth="yes"/>
      <point x="363" y="545" type="line"/>
      <point x="231" y="710" type="line"/>
      <point x="103" y="545" type="line"/>
      <point x="102" y="544" type="line" smooth="yes"/>
      <point x="95" y="539"/>
      <point x="88" y="539" type="qcurve" smooth="yes"/>
      <point x="79" y="539"/>
      <point x="73" y="546" type="qcurve" smooth="yes"/>
      <point x="68" y="553"/>
      <point x="68" y="560" type="qcurve" smooth="yes"/>
      <point x="68" y="569"/>
      <point x="74" y="574" type="qcurve" smooth="yes"/>
      <point x="230" y="770" type="line"/>
      <point x="392" y="574" type="line" smooth="yes"/>
      <point x="398" y="568"/>
    </contour>
  </outline>
</glyph>
<glyph name="underscore" format="1">
  <advance width="811"/>
  <unicode hex="005F"/>
  <outline>
    <contour>
      <point x="743" y="-17" type="qcurve" smooth="yes"/>
      <point x="743" y="-25"/>
      <point x="732" y="-36"/>
      <point x="724" y="-36" type="qcurve" smooth="yes"/>
      <point x="681" y="-36" type="line"/>
      <point x="185" y="-36" type="line"/>
      <point x="86" y="-36" type="line" smooth="yes"/>
      <point x="78" y="-36"/>
      <point x="67" y="-25"/>
      <point x="67" y="-17" type="qcurve" smooth="yes"/>
      <point x="67" y="2"/>
      <point x="86" y="2" type="qcurve" smooth="yes"/>
      <point x="185" y="2" type="line"/>
      <point x="681" y="2" type="line"/>
      <point x="724" y="2" type="line" smooth="yes"/>
      <point x="732" y="2"/>
      <point x="743" y="-9"/>
    </contour>
  </outline>
</glyph>
<glyph name="grave" format="1">
  <advance width="257"/>
  <unicode hex="0060"/>
  <outline>
    <contour>
      <point x="53" y="641" type="qcurve" smooth="yes"/>
      <point x="57" y="648"/>
      <point x="71" y="652"/>
      <point x="78" y="648" type="qcurve" smooth="yes"/>
      <point x="162" y="603" type="line"/>
      <point x="115" y="628" type="line"/>
      <point x="199" y="583" type="line" smooth="yes"/>
      <point x="206" y="579"/>
      <point x="210" y="565"/>
      <point x="207" y="559" type="qcurve" smooth="yes"/>
      <point x="203" y="552"/>
      <point x="189" y="547"/>
      <point x="182" y="551" type="qcurve" smooth="yes"/>
      <point x="98" y="596" type="line"/>
      <point x="145" y="571" type="line"/>
      <point x="61" y="616" type="line" smooth="yes"/>
      <point x="46" y="625"/>
    </contour>
  </outline>
</glyph>
<glyph name="a" format="1">
  <advance width="430"/>
  <unicode hex="0061"/>
  <outline>
    <contour>
      <point x="368" y="35" type="qcurve" smooth="yes"/>
      <point x="375" y="35"/>
      <point x="385" y="25"/>
      <point x="385" y="17" type="qcurve" smooth="yes"/>
      <point x="385" y="9"/>
      <point x="375" y="-1"/>
      <point x="368" y="-1" type="qcurve" smooth="yes"/>
      <point x="336" y="-1"/>
      <point x="283" y="31"/>
      <point x="268" y="57" type="qcurve"/>
      <point x="252" y="34"/>
      <point x="202" y="5"/>
      <point x="172" y="5" type="qcurve" smooth="yes"/>
      <point x="148" y="5"/>
      <point x="106" y="23"/>
      <point x="75" y="54"/>
      <point x="57" y="96"/>
      <point x="57" y="120" type="qcurve" smooth="yes"/>
      <point x="57" y="410" type="line" smooth="yes"/>
      <point x="57" y="434"/>
      <point x="75" y="475"/>
      <point x="106" y="507"/>
      <point x="148" y="525"/>
      <point x="172" y="525" type="qcurve" smooth="yes"/>
      <point x="196" y="525"/>
      <point x="237" y="507"/>
      <point x="269" y="476"/>
      <point x="287" y="434"/>
      <point x="287" y="410" type="qcurve" smooth="yes"/>
      <point x="288" y="408"/>
      <point x="288" y="403" type="qcurve" smooth="yes"/>
      <point x="288" y="114" type="line" smooth="yes"/>
      <point x="288" y="81"/>
      <point x="335" y="35"/>
    </contour>
    <contour>
      <point x="251" y="410" type="line" smooth="yes"/>
      <point x="251" y="443"/>
      <point x="204" y="489"/>
      <point x="172" y="489" type="qcurve" smooth="yes"/>
      <point x="139" y="489"/>
      <point x="92" y="443"/>
      <point x="92" y="410" type="qcurve" smooth="yes"/>
      <point x="92" y="120" type="line" smooth="yes"/>
      <point x="92" y="87"/>
      <point x="139" y="41"/>
      <point x="172" y="41" type="qcurve" smooth="yes"/>
      <point x="204" y="41"/>
      <point x="251" y="87"/>
      <point x="251" y="120" type="qcurve" smooth="yes"/>
    </contour>
  </outline>
</glyph>
<glyph name="b" format="1">
  <advance width="343"/>
  <unicode hex="0062"/>
  <outline>
    <contour>
      <point x="180" y="534" type="qcurve" smooth="yes"/>
      <point x="204" y="534"/>
      <point x="247" y="515"/>
      <point x="279" y="483"/>
      <point x="298" y="440"/>
      <point x="298" y="416" type="qcurve" smooth="yes"/>
      <point x="298" y="119" type="line" smooth="yes"/>
      <point x="298" y="95"/>
      <point x="279" y="52"/>
      <point x="247" y="20"/>
      <point x="204" y="1"/>
      <point x="180" y="1" type="qcurve" smooth="yes"/>
      <point x="156" y="1"/>
      <point x="113" y="20"/>
      <point x="81" y="52"/>
      <point x="62" y="95"/>
      <point x="62" y="119" type="qcurve" smooth="yes"/>
      <point x="62" y="655" type="line" smooth="yes"/>
      <point x="62" y="679"/>
      <point x="81" y="722"/>
      <point x="113" y="754"/>
      <point x="156" y="773"/>
      <point x="180" y="773" type="qcurve" smooth="yes"/>
      <point x="188" y="773"/>
      <point x="198" y="763"/>
      <point x="198" y="755" type="qcurve" smooth="yes"/>
      <point x="198" y="747"/>
      <point x="188" y="736"/>
      <point x="180" y="736" type="qcurve" smooth="yes"/>
      <point x="146" y="736"/>
      <point x="99" y="689"/>
      <point x="99" y="655" type="qcurve" smooth="yes"/>
      <point x="99" y="501" type="line"/>
      <point x="115" y="516"/>
      <point x="157" y="534"/>
    </contour>
    <contour>
      <point x="261" y="173" type="line"/>
      <point x="261" y="174" type="line"/>
      <point x="261" y="416" type="line" smooth="yes"/>
      <point x="261" y="449"/>
      <point x="214" y="497"/>
      <point x="180" y="497" type="qcurve" smooth="yes"/>
      <point x="146" y="497"/>
      <point x="99" y="449"/>
      <point x="99" y="416" type="qcurve" smooth="yes"/>
      <point x="99" y="119" type="line" smooth="yes"/>
      <point x="99" y="85"/>
      <point x="146" y="37"/>
      <point x="180" y="37" type="qcurve" smooth="yes"/>
      <point x="214" y="37"/>
      <point x="261" y="85"/>
      <point x="261" y="119" type="qcurve" smooth="yes"/>
    </contour>
  </outline>
</glyph>
<glyph name="c" format="1">
  <advance width="333"/>
  <unicode hex="0063"/>
  <outline>
    <contour>
      <point x="254" y="390" type="line"/>
      <point x="254" y="412" type="line" smooth="yes"/>
      <point x="254" y="446"/>
      <point x="207" y="493"/>
      <point x="173" y="493" type="qcurve" smooth="yes"/>
      <point x="139" y="493"/>
      <point x="92" y="446"/>
      <point x="92" y="412" type="qcurve" smooth="yes"/>
      <point x="92" y="117" type="line" smooth="yes"/>
      <point x="92" y="84"/>
      <point x="139" y="36"/>
      <point x="173" y="36" type="qcurve" smooth="yes"/>
      <point x="207" y="36"/>
      <point x="254" y="84"/>
      <point x="254" y="117" type="qcurve" smooth="yes"/>
      <point x="254" y="140" type="line"/>
      <point x="290" y="140" type="line"/>
      <point x="290" y="117" type="line" smooth="yes"/>
      <point x="290" y="93"/>
      <point x="272" y="50"/>
      <point x="240" y="19"/>
      <point x="197" y="0"/>
      <point x="173" y="0" type="qcurve" smooth="yes"/>
      <point x="149" y="0"/>
      <point x="106" y="19"/>
      <point x="74" y="50"/>
      <point x="56" y="93"/>
      <point x="56" y="117" type="qcurve" smooth="yes"/>
      <point x="56" y="412" type="line" smooth="yes"/>
      <point x="56" y="436"/>
      <point x="74" y="479"/>
      <point x="106" y="511"/>
      <point x="149" y="530"/>
      <point x="173" y="530" type="qcurve" smooth="yes"/>
      <point x="197" y="530"/>
      <point x="240" y="511"/>
      <point x="272" y="479"/>
      <point x="290" y="436"/>
      <point x="290" y="412" type="qcurve" smooth="yes"/>
      <point x="290" y="390" type="line"/>
    </contour>
  </outline>
</glyph>
<glyph name="d" format="1">
  <advance width="353"/>
  <unicode hex="0064"/>
  <outline>
    <contour>
      <point x="171" y="772" type="qcurve" smooth="yes"/>
      <point x="195" y="772"/>
      <point x="238" y="753"/>
      <point x="270" y="721"/>
      <point x="289" y="678"/>
      <point x="289" y="654" type="qcurve" smooth="yes"/>
      <point x="289" y="117" type="line" smooth="yes"/>
      <point x="289" y="93"/>
      <point x="270" y="50"/>
      <point x="238" y="18"/>
      <point x="195" y="-1"/>
      <point x="171" y="-1" type="qcurve" smooth="yes"/>
      <point x="147" y="-1"/>
      <point x="104" y="18"/>
      <point x="72" y="50"/>
      <point x="53" y="93"/>
      <point x="53" y="117" type="qcurve" smooth="yes"/>
      <point x="53" y="414" type="line" smooth="yes"/>
      <point x="53" y="438"/>
      <point x="72" y="481"/>
      <point x="104" y="513"/>
      <point x="147" y="532"/>
      <point x="171" y="532" type="qcurve" smooth="yes"/>
      <point x="195" y="532"/>
      <point x="236" y="515"/>
      <point x="252" y="500" type="qcurve"/>
      <point x="252" y="654" type="line" smooth="yes"/>
      <point x="252" y="688"/>
      <point x="205" y="735"/>
      <point x="171" y="735" type="qcurve" smooth="yes"/>
      <point x="163" y="735"/>
      <point x="153" y="746"/>
      <point x="153" y="754" type="qcurve" smooth="yes"/>
      <point x="153" y="762"/>
      <point x="163" y="772"/>
    </contour>
    <contour>
      <point x="252" y="414" type="line" smooth="yes"/>
      <point x="252" y="448"/>
      <point x="205" y="496"/>
      <point x="171" y="496" type="qcurve" smooth="yes"/>
      <point x="137" y="496"/>
      <point x="90" y="448"/>
      <point x="90" y="414" type="qcurve" smooth="yes"/>
      <point x="90" y="172" type="line"/>
      <point x="90" y="171" type="line"/>
      <point x="90" y="117" type="line" smooth="yes"/>
      <point x="90" y="83"/>
      <point x="137" y="35"/>
      <point x="171" y="35" type="qcurve" smooth="yes"/>
      <point x="205" y="35"/>
      <point x="252" y="83"/>
      <point x="252" y="117" type="qcurve" smooth="yes"/>
    </contour>
  </outline>
</glyph>
<glyph name="e" format="1">
  <advance width="333"/>
  <unicode hex="0065"/>
  <outline>
    <contour>
      <point x="91" y="236" type="line"/>
      <point x="91" y="118" type="line" smooth="yes"/>
      <point x="91" y="84"/>
      <point x="138" y="37"/>
      <point x="171" y="37" type="qcurve" smooth="yes"/>
      <point x="204" y="37"/>
      <point x="251" y="84"/>
      <point x="251" y="118" type="qcurve" smooth="yes"/>
      <point x="251" y="144" type="line"/>
      <point x="287" y="144" type="line"/>
      <point x="287" y="118" type="line" smooth="yes"/>
      <point x="287" y="94"/>
      <point x="269" y="51"/>
      <point x="237" y="19"/>
      <point x="195" y="1"/>
      <point x="171" y="1" type="qcurve" smooth="yes"/>
      <point x="147" y="1"/>
      <point x="105" y="19"/>
      <point x="73" y="51"/>
      <point x="55" y="94"/>
      <point x="55" y="118" type="qcurve" smooth="yes"/>
      <point x="55" y="411" type="line" smooth="yes"/>
      <point x="55" y="435"/>
      <point x="73" y="477"/>
      <point x="105" y="509"/>
      <point x="147" y="527"/>
      <point x="171" y="527" type="qcurve" smooth="yes"/>
      <point x="195" y="527"/>
      <point x="237" y="509"/>
      <point x="269" y="477"/>
      <point x="287" y="435"/>
      <point x="287" y="411" type="qcurve" smooth="yes"/>
      <point x="287" y="343" type="line" smooth="yes"/>
      <point x="287" y="317"/>
      <point x="268" y="272"/>
      <point x="251" y="258" type="qcurve" smooth="yes"/>
      <point x="227" y="236"/>
      <point x="198" y="236" type="qcurve" smooth="yes"/>
    </contour>
    <contour>
      <point x="91" y="273" type="line"/>
      <point x="198" y="273" type="line" smooth="yes"/>
      <point x="215" y="273"/>
      <point x="244" y="295"/>
      <point x="251" y="313" type="qcurve"/>
      <point x="251" y="411" type="line" smooth="yes"/>
      <point x="251" y="444"/>
      <point x="204" y="491"/>
      <point x="171" y="491" type="qcurve" smooth="yes"/>
      <point x="138" y="491"/>
      <point x="91" y="444"/>
      <point x="91" y="411" type="qcurve" smooth="yes"/>
    </contour>
  </outline>
</glyph>
<glyph name="f" format="1">
  <advance width="294"/>
  <unicode hex="0066"/>
  <outline>
    <contour>
      <point x="159" y="573" type="line"/>
      <point x="159" y="536" type="line"/>
      <point x="159" y="19" type="line" smooth="yes"/>
      <point x="159" y="11"/>
      <point x="148" y="1"/>
      <point x="140" y="1" type="qcurve" smooth="yes"/>
      <point x="132" y="1"/>
      <point x="122" y="11"/>
      <point x="122" y="19" type="qcurve" smooth="yes"/>
      <point x="122" y="536" type="line"/>
      <point x="54" y="536" type="line" smooth="yes"/>
      <point x="46" y="536"/>
      <point x="36" y="547"/>
      <point x="36" y="555" type="qcurve" smooth="yes"/>
      <point x="36" y="563"/>
      <point x="46" y="573"/>
      <point x="54" y="573" type="qcurve" smooth="yes"/>
      <point x="122" y="573" type="line"/>
      <point x="122" y="656" type="line" smooth="yes"/>
      <point x="122" y="680"/>
      <point x="141" y="723"/>
      <point x="173" y="754"/>
      <point x="216" y="773"/>
      <point x="240" y="773" type="qcurve" smooth="yes"/>
      <point x="248" y="773"/>
      <point x="258" y="763"/>
      <point x="258" y="755" type="qcurve" smooth="yes"/>
      <point x="258" y="747"/>
      <point x="248" y="737"/>
      <point x="240" y="737" type="qcurve" smooth="yes"/>
      <point x="206" y="737"/>
      <point x="159" y="689"/>
      <point x="159" y="656" type="qcurve" smooth="yes"/>
    </contour>
    <contour>
      <point x="136" y="536" type="line"/>
      <point x="138" y="572" type="line"/>
      <point x="225" y="572" type="line" smooth="yes"/>
      <point x="233" y="572"/>
      <point x="244" y="562"/>
      <point x="244" y="554" type="qcurve" smooth="yes"/>
      <point x="244" y="546"/>
      <point x="233" y="536"/>
      <point x="225" y="536" type="qcurve" smooth="yes"/>
    </contour>
  </outline>
</glyph>
<glyph name="g" format="1">
  <advance width="352"/>
  <unicode hex="0067"/>
  <outline>
    <contour>
      <point x="172" y="527" type="qcurve" smooth="yes"/>
      <point x="196" y="527"/>
      <point x="238" y="508"/>
      <point x="270" y="477"/>
      <point x="288" y="434"/>
      <point x="288" y="410" type="qcurve" smooth="yes"/>
      <point x="288" y="-122" type="line" smooth="yes"/>
      <point x="288" y="-146"/>
      <point x="270" y="-188"/>
      <point x="238" y="-220"/>
      <point x="196" y="-238"/>
      <point x="172" y="-238" type="qcurve" smooth="yes"/>
      <point x="164" y="-238"/>
      <point x="154" y="-228"/>
      <point x="154" y="-220" type="qcurve" smooth="yes"/>
      <point x="154" y="-212"/>
      <point x="164" y="-202"/>
      <point x="172" y="-202" type="qcurve" smooth="yes"/>
      <point x="205" y="-202"/>
      <point x="252" y="-155"/>
      <point x="252" y="-122" type="qcurve" smooth="yes"/>
      <point x="252" y="33" type="line"/>
      <point x="236" y="18"/>
      <point x="195" y="1"/>
      <point x="172" y="1" type="qcurve" smooth="yes"/>
      <point x="148" y="1"/>
      <point x="106" y="19"/>
      <point x="74" y="51"/>
      <point x="56" y="93"/>
      <point x="56" y="117" type="qcurve" smooth="yes"/>
      <point x="56" y="410" type="line" smooth="yes"/>
      <point x="56" y="434"/>
      <point x="74" y="477"/>
      <point x="106" y="508"/>
      <point x="148" y="527"/>
    </contour>
    <contour>
      <point x="252" y="410" type="line" smooth="yes"/>
      <point x="252" y="444"/>
      <point x="205" y="491"/>
      <point x="172" y="491" type="qcurve" smooth="yes"/>
      <point x="139" y="491"/>
      <point x="92" y="444"/>
      <point x="92" y="410" type="qcurve" smooth="yes"/>
      <point x="92" y="357" type="line"/>
      <point x="92" y="356" type="line"/>
      <point x="92" y="117" type="line" smooth="yes"/>
      <point x="92" y="84"/>
      <point x="139" y="37"/>
      <point x="172" y="37" type="qcurve" smooth="yes"/>
      <point x="205" y="37"/>
      <point x="252" y="84"/>
      <point x="252" y="117" type="qcurve" smooth="yes"/>
    </contour>
  </outline>
</glyph>
<glyph name="h" format="1">
  <advance width="356"/>
  <unicode hex="0068"/>
  <outline>
    <contour>
      <point x="299" y="420" type="qcurve" smooth="yes"/>
      <point x="299" y="18" type="line" smooth="yes"/>
      <point x="299" y="10"/>
      <point x="289" y="0"/>
      <point x="281" y="0" type="qcurve" smooth="yes"/>
      <point x="273" y="0"/>
      <point x="263" y="10"/>
      <point x="263" y="18" type="qcurve" smooth="yes"/>
      <point x="263" y="420" type="line" smooth="yes"/>
      <point x="263" y="453"/>
      <point x="216" y="501"/>
      <point x="182" y="501" type="qcurve" smooth="yes"/>
      <point x="148" y="501"/>
      <point x="101" y="453"/>
      <point x="101" y="420" type="qcurve" smooth="yes"/>
      <point x="101" y="18" type="line" smooth="yes"/>
      <point x="101" y="10"/>
      <point x="91" y="0"/>
      <point x="83" y="0" type="qcurve" smooth="yes"/>
      <point x="75" y="0"/>
      <point x="65" y="10"/>
      <point x="65" y="18" type="qcurve" smooth="yes"/>
      <point x="65" y="657" type="line" smooth="yes"/>
      <point x="65" y="681"/>
      <point x="83" y="724"/>
      <point x="115" y="755"/>
      <point x="158" y="774"/>
      <point x="182" y="774" type="qcurve" smooth="yes"/>
      <point x="190" y="774"/>
      <point x="200" y="764"/>
      <point x="200" y="756" type="qcurve" smooth="yes"/>
      <point x="200" y="748"/>
      <point x="190" y="738"/>
      <point x="182" y="738" type="qcurve" smooth="yes"/>
      <point x="148" y="738"/>
      <point x="101" y="690"/>
      <point x="101" y="657" type="qcurve" smooth="yes"/>
      <point x="101" y="505" type="line"/>
      <point x="117" y="520"/>
      <point x="159" y="537"/>
      <point x="182" y="537" type="qcurve" smooth="yes"/>
      <point x="206" y="537"/>
      <point x="249" y="518"/>
      <point x="281" y="487"/>
      <point x="299" y="444"/>
    </contour>
  </outline>
</glyph>
<glyph name="i" format="1">
  <advance width="205"/>
  <unicode hex="0069"/>
  <outline>
    <contour>
      <point x="68" y="528" type="qcurve" smooth="yes"/>
      <point x="116" y="528"/>
      <point x="154" y="460"/>
      <point x="154" y="412" type="qcurve" smooth="yes"/>
      <point x="154" y="18" type="line" smooth="yes"/>
      <point x="154" y="10"/>
      <point x="144" y="0"/>
      <point x="136" y="0" type="qcurve" smooth="yes"/>
      <point x="128" y="0"/>
      <point x="118" y="10"/>
      <point x="118" y="18" type="qcurve" smooth="yes"/>
      <point x="118" y="412" type="line" smooth="yes"/>
      <point x="118" y="445"/>
      <point x="101" y="492"/>
      <point x="68" y="492" type="qcurve" smooth="yes"/>
      <point x="60" y="492"/>
      <point x="50" y="502"/>
      <point x="50" y="510" type="qcurve" smooth="yes"/>
      <point x="50" y="517"/>
      <point x="60" y="528"/>
    </contour>
    <contour>
      <point x="136" y="561" type="qcurve" smooth="yes"/>
      <point x="128" y="561"/>
      <point x="118" y="571"/>
      <point x="118" y="579" type="qcurve" smooth="yes"/>
      <point x="118" y="592" type="line" smooth="yes"/>
      <point x="118" y="600"/>
      <point x="128" y="610"/>
      <point x="136" y="610" type="qcurve" smooth="yes"/>
      <point x="144" y="610"/>
      <point x="154" y="600"/>
      <point x="154" y="592" type="qcurve" smooth="yes"/>
      <point x="154" y="579" type="line" smooth="yes"/>
      <point x="154" y="571"/>
      <point x="144" y="561"/>
    </contour>
  </outline>
</glyph>
<glyph name="j" format="1">
  <advance width="235"/>
  <unicode hex="006A"/>
  <outline>
    <contour>
      <point x="152" y="528" type="qcurve" smooth="yes"/>
      <point x="160" y="528"/>
      <point x="170" y="518"/>
      <point x="170" y="510" type="qcurve" smooth="yes"/>
      <point x="170" y="-120" type="line" smooth="yes"/>
      <point x="170" y="-144"/>
      <point x="152" y="-186"/>
      <point x="120" y="-218"/>
      <point x="78" y="-236"/>
      <point x="54" y="-236" type="qcurve" smooth="yes"/>
      <point x="46" y="-236"/>
      <point x="36" y="-226"/>
      <point x="36" y="-218" type="qcurve" smooth="yes"/>
      <point x="36" y="-210"/>
      <point x="46" y="-200"/>
      <point x="54" y="-200" type="qcurve" smooth="yes"/>
      <point x="87" y="-200"/>
      <point x="134" y="-153"/>
      <point x="134" y="-120" type="qcurve" smooth="yes"/>
      <point x="134" y="510" type="line" smooth="yes"/>
      <point x="134" y="518"/>
      <point x="144" y="528"/>
    </contour>
    <contour>
      <point x="152" y="609" type="qcurve" smooth="yes"/>
      <point x="160" y="609"/>
      <point x="170" y="599"/>
      <point x="170" y="591" type="qcurve" smooth="yes"/>
      <point x="170" y="578" type="line" smooth="yes"/>
      <point x="170" y="570"/>
      <point x="160" y="559"/>
      <point x="152" y="559" type="qcurve" smooth="yes"/>
      <point x="144" y="559"/>
      <point x="134" y="570"/>
      <point x="134" y="578" type="qcurve" smooth="yes"/>
      <point x="134" y="591" type="line" smooth="yes"/>
      <point x="134" y="599"/>
      <point x="144" y="609"/>
    </contour>
  </outline>
</glyph>
<glyph name="l" format="1">
  <advance width="255"/>
  <unicode hex="006C"/>
  <outline>
    <contour>
      <point x="181" y="772" type="qcurve" smooth="yes"/>
      <point x="189" y="772"/>
      <point x="199" y="762"/>
      <point x="199" y="754" type="qcurve" smooth="yes"/>
      <point x="199" y="746"/>
      <point x="189" y="735"/>
      <point x="181" y="735" type="qcurve" smooth="yes"/>
      <point x="147" y="735"/>
      <point x="100" y="688"/>
      <point x="100" y="654" type="qcurve" smooth="yes"/>
      <point x="100" y="18" type="line" smooth="yes"/>
      <point x="100" y="10"/>
      <point x="89" y="0"/>
      <point x="81" y="0" type="qcurve" smooth="yes"/>
      <point x="73" y="0"/>
      <point x="63" y="10"/>
      <point x="63" y="18" type="qcurve" smooth="yes"/>
      <point x="63" y="654" type="line" smooth="yes"/>
      <point x="63" y="678"/>
      <point x="82" y="721"/>
      <point x="114" y="753"/>
      <point x="157" y="772"/>
    </contour>
  </outline>
</glyph>
<glyph name="m" format="1">
  <advance width="598"/>
  <unicode hex="006D"/>
  <outline>
    <contour>
      <point x="415" y="526" type="qcurve" smooth="yes"/>
      <point x="439" y="526"/>
      <point x="481" y="508"/>
      <point x="513" y="476"/>
      <point x="531" y="434"/>
      <point x="531" y="410" type="qcurve" smooth="yes"/>
      <point x="531" y="16" type="line" smooth="yes"/>
      <point x="531" y="8"/>
      <point x="521" y="-2"/>
      <point x="513" y="-2" type="qcurve" smooth="yes"/>
      <point x="505" y="-2"/>
      <point x="495" y="8"/>
      <point x="495" y="16" type="qcurve" smooth="yes"/>
      <point x="495" y="410" type="line" smooth="yes"/>
      <point x="495" y="443"/>
      <point x="448" y="490"/>
      <point x="415" y="490" type="qcurve" smooth="yes"/>
      <point x="381" y="490"/>
      <point x="334" y="443"/>
      <point x="334" y="410" type="qcurve" smooth="yes"/>
      <point x="334" y="16" type="line" smooth="yes"/>
      <point x="334" y="8"/>
      <point x="325" y="-2"/>
      <point x="317" y="-2" type="qcurve" smooth="yes"/>
      <point x="315" y="-2" type="line" smooth="yes"/>
      <point x="307" y="-2"/>
      <point x="297" y="8"/>
      <point x="297" y="16" type="qcurve" smooth="yes"/>
      <point x="297" y="410" type="line" smooth="yes"/>
      <point x="297" y="443"/>
      <point x="250" y="490"/>
      <point x="217" y="490" type="qcurve" smooth="yes"/>
      <point x="183" y="490"/>
      <point x="136" y="443"/>
      <point x="136" y="410" type="qcurve" smooth="yes"/>
      <point x="136" y="16" type="line" smooth="yes"/>
      <point x="136" y="8"/>
      <point x="126" y="-2"/>
      <point x="118" y="-2" type="qcurve" smooth="yes"/>
      <point x="110" y="-2"/>
      <point x="100" y="8"/>
      <point x="100" y="16" type="qcurve" smooth="yes"/>
      <point x="100" y="284" type="line"/>
      <point x="100" y="288" type="line"/>
      <point x="100" y="410" type="line" smooth="yes"/>
      <point x="100" y="443"/>
      <point x="82" y="490"/>
      <point x="49" y="490" type="qcurve" smooth="yes"/>
      <point x="41" y="490"/>
      <point x="31" y="500"/>
      <point x="31" y="508" type="qcurve" smooth="yes"/>
      <point x="31" y="516"/>
      <point x="41" y="526"/>
      <point x="49" y="526" type="qcurve" smooth="yes"/>
      <point x="78" y="526"/>
      <point x="114" y="501"/>
      <point x="123" y="479" type="qcurve"/>
      <point x="140" y="501"/>
      <point x="188" y="526"/>
      <point x="217" y="526" type="qcurve" smooth="yes"/>
      <point x="248" y="526"/>
      <point x="300" y="496"/>
      <point x="316" y="471" type="qcurve"/>
      <point x="331" y="496"/>
      <point x="383" y="526"/>
    </contour>
  </outline>
</glyph>
<glyph name="n" format="1">
  <advance width="382"/>
  <unicode hex="006E"/>
  <outline>
    <contour>
      <point x="200" y="527" type="qcurve" smooth="yes"/>
      <point x="224" y="527"/>
      <point x="266" y="509"/>
      <point x="298" y="477"/>
      <point x="316" y="435"/>
      <point x="316" y="411" type="qcurve" smooth="yes"/>
      <point x="316" y="18" type="line" smooth="yes"/>
      <point x="316" y="10"/>
      <point x="306" y="0"/>
      <point x="298" y="0" type="qcurve" smooth="yes"/>
      <point x="290" y="0"/>
      <point x="280" y="10"/>
      <point x="280" y="18" type="qcurve" smooth="yes"/>
      <point x="280" y="411" type="line" smooth="yes"/>
      <point x="280" y="444"/>
      <point x="233" y="491"/>
      <point x="200" y="491" type="qcurve" smooth="yes"/>
      <point x="166" y="491"/>
      <point x="119" y="444"/>
      <point x="119" y="411" type="qcurve" smooth="yes"/>
      <point x="119" y="18" type="line" smooth="yes"/>
      <point x="119" y="10"/>
      <point x="109" y="0"/>
      <point x="101" y="0" type="qcurve" smooth="yes"/>
      <point x="93" y="0"/>
      <point x="83" y="10"/>
      <point x="83" y="18" type="qcurve" smooth="yes"/>
      <point x="83" y="285" type="line"/>
      <point x="83" y="289" type="line"/>
      <point x="83" y="411" type="line" smooth="yes"/>
      <point x="83" y="427"/>
      <point x="80" y="457"/>
      <point x="69" y="478"/>
      <point x="49" y="491"/>
      <point x="32" y="491" type="qcurve" smooth="yes"/>
      <point x="24" y="491"/>
      <point x="14" y="501"/>
      <point x="14" y="509" type="qcurve" smooth="yes"/>
      <point x="14" y="517"/>
      <point x="24" y="527"/>
      <point x="32" y="527" type="qcurve" smooth="yes"/>
      <point x="61" y="527"/>
      <point x="97" y="502"/>
      <point x="107" y="480" type="qcurve"/>
      <point x="123" y="502"/>
      <point x="171" y="527"/>
    </contour>
  </outline>
</glyph>
<glyph name="o" format="1">
  <advance width="348"/>
  <unicode hex="006F"/>
  <outline>
    <contour>
      <point x="173" y="-2" type="qcurve" smooth="yes"/>
      <point x="149" y="-2"/>
      <point x="106" y="17"/>
      <point x="75" y="48"/>
      <point x="56" y="91"/>
      <point x="56" y="115" type="qcurve" smooth="yes"/>
      <point x="56" y="409" type="line" smooth="yes"/>
      <point x="56" y="433"/>
      <point x="75" y="476"/>
      <point x="106" y="508"/>
      <point x="149" y="526"/>
      <point x="173" y="526" type="qcurve" smooth="yes"/>
      <point x="197" y="526"/>
      <point x="240" y="508"/>
      <point x="271" y="476"/>
      <point x="290" y="433"/>
      <point x="290" y="409" type="qcurve" smooth="yes"/>
      <point x="290" y="115" type="line" smooth="yes"/>
      <point x="290" y="91"/>
      <point x="271" y="48"/>
      <point x="240" y="17"/>
      <point x="197" y="-2"/>
    </contour>
    <contour>
      <point x="92" y="355" type="line"/>
      <point x="92" y="354" type="line"/>
      <point x="92" y="115" type="line" smooth="yes"/>
      <point x="92" y="82"/>
      <point x="140" y="34"/>
      <point x="173" y="34" type="qcurve" smooth="yes"/>
      <point x="206" y="34"/>
      <point x="254" y="82"/>
      <point x="254" y="115" type="qcurve" smooth="yes"/>
      <point x="254" y="409" type="line" smooth="yes"/>
      <point x="254" y="443"/>
      <point x="206" y="490"/>
      <point x="173" y="490" type="qcurve" smooth="yes"/>
      <point x="140" y="490"/>
      <point x="92" y="443"/>
      <point x="92" y="409" type="qcurve" smooth="yes"/>
    </contour>
  </outline>
</glyph>
<glyph name="p" format="1">
  <advance width="365"/>
  <unicode hex="0070"/>
  <outline>
    <contour>
      <point x="197" y="528" type="qcurve" smooth="yes"/>
      <point x="221" y="528"/>
      <point x="264" y="509"/>
      <point x="295" y="478"/>
      <point x="314" y="435"/>
      <point x="314" y="411" type="qcurve" smooth="yes"/>
      <point x="314" y="116" type="line" smooth="yes"/>
      <point x="314" y="92"/>
      <point x="295" y="49"/>
      <point x="264" y="17"/>
      <point x="221" y="-1"/>
      <point x="197" y="-1" type="qcurve" smooth="yes"/>
      <point x="150" y="-1"/>
      <point x="115" y="32" type="qcurve"/>
      <point x="115" y="-125" type="line" smooth="yes"/>
      <point x="115" y="-149"/>
      <point x="97" y="-192"/>
      <point x="65" y="-223"/>
      <point x="22" y="-242"/>
      <point x="-2" y="-242" type="qcurve" smooth="yes"/>
      <point x="-10" y="-242"/>
      <point x="-20" y="-232"/>
      <point x="-20" y="-224" type="qcurve" smooth="yes"/>
      <point x="-20" y="-216"/>
      <point x="-10" y="-206"/>
      <point x="-2" y="-206" type="qcurve" smooth="yes"/>
      <point x="32" y="-206"/>
      <point x="79" y="-158"/>
      <point x="79" y="-125" type="qcurve" smooth="yes"/>
      <point x="79" y="508" type="line" smooth="yes"/>
      <point x="79" y="516"/>
      <point x="89" y="527"/>
      <point x="97" y="527" type="qcurve" smooth="yes"/>
      <point x="105" y="527"/>
      <point x="115" y="516"/>
      <point x="115" y="508" type="qcurve" smooth="yes"/>
      <point x="115" y="495" type="line"/>
      <point x="132" y="510"/>
      <point x="173" y="528"/>
    </contour>
    <contour>
      <point x="278" y="411" type="line" smooth="yes"/>
      <point x="278" y="444"/>
      <point x="230" y="492"/>
      <point x="197" y="492" type="qcurve" smooth="yes"/>
      <point x="163" y="492"/>
      <point x="116" y="444"/>
      <point x="116" y="411" type="qcurve" smooth="yes"/>
      <point x="116" y="116" type="line" smooth="yes"/>
      <point x="116" y="82"/>
      <point x="163" y="35"/>
      <point x="197" y="35" type="qcurve" smooth="yes"/>
      <point x="230" y="35"/>
      <point x="278" y="82"/>
      <point x="278" y="116" type="qcurve" smooth="yes"/>
    </contour>
  </outline>
</glyph>
<glyph name="q" format="1">
  <advance width="368"/>
  <unicode hex="0071"/>
  <outline>
    <contour>
      <point x="369" y="-207" type="qcurve" smooth="yes"/>
      <point x="377" y="-207"/>
      <point x="387" y="-217"/>
      <point x="387" y="-225" type="qcurve" smooth="yes"/>
      <point x="387" y="-233"/>
      <point x="377" y="-243"/>
      <point x="369" y="-243" type="qcurve" smooth="yes"/>
      <point x="345" y="-243"/>
      <point x="302" y="-224"/>
      <point x="270" y="-193"/>
      <point x="252" y="-150"/>
      <point x="252" y="-126" type="qcurve" smooth="yes"/>
      <point x="252" y="31" type="line"/>
      <point x="219" y="-2"/>
      <point x="171" y="-2" type="qcurve" smooth="yes"/>
      <point x="147" y="-2"/>
      <point x="104" y="16"/>
      <point x="72" y="48"/>
      <point x="53" y="91"/>
      <point x="53" y="115" type="qcurve" smooth="yes"/>
      <point x="53" y="410" type="line" smooth="yes"/>
      <point x="53" y="434"/>
      <point x="72" y="477"/>
      <point x="104" y="508"/>
      <point x="147" y="527"/>
      <point x="171" y="527" type="qcurve" smooth="yes"/>
      <point x="194" y="527"/>
      <point x="236" y="509"/>
      <point x="252" y="494" type="qcurve"/>
      <point x="252" y="507" type="line" smooth="yes"/>
      <point x="252" y="515"/>
      <point x="262" y="526"/>
      <point x="270" y="526" type="qcurve" smooth="yes"/>
      <point x="278" y="526"/>
      <point x="288" y="515"/>
      <point x="288" y="507" type="qcurve" smooth="yes"/>
      <point x="288" y="-126" type="line" smooth="yes"/>
      <point x="288" y="-159"/>
      <point x="336" y="-207"/>
    </contour>
    <contour>
      <point x="251" y="410" type="line" smooth="yes"/>
      <point x="251" y="443"/>
      <point x="204" y="491"/>
      <point x="171" y="491" type="qcurve" smooth="yes"/>
      <point x="137" y="491"/>
      <point x="90" y="443"/>
      <point x="90" y="410" type="qcurve" smooth="yes"/>
      <point x="90" y="115" type="line" smooth="yes"/>
      <point x="90" y="81"/>
      <point x="137" y="34"/>
      <point x="171" y="34" type="qcurve" smooth="yes"/>
      <point x="204" y="34"/>
      <point x="251" y="81"/>
      <point x="251" y="115" type="qcurve" smooth="yes"/>
      <point x="251" y="355" type="line"/>
      <point x="251" y="356" type="line"/>
    </contour>
  </outline>
</glyph>
<glyph name="s" format="1">
  <advance width="321"/>
  <unicode hex="0073"/>
  <outline>
    <contour>
      <point x="238" y="390" type="line"/>
      <point x="238" y="410" type="line" smooth="yes"/>
      <point x="238" y="443"/>
      <point x="191" y="500"/>
      <point x="158" y="500" type="qcurve" smooth="yes"/>
      <point x="124" y="500"/>
      <point x="77" y="443"/>
      <point x="77" y="410" type="qcurve" smooth="yes"/>
      <point x="75" y="345" type="line" smooth="yes"/>
      <point x="75" y="311"/>
      <point x="110" y="277"/>
      <point x="131" y="275" type="qcurve" smooth="yes"/>
      <point x="192" y="275" type="line" smooth="yes"/>
      <point x="210" y="275"/>
      <point x="241" y="260"/>
      <point x="263" y="236"/>
      <point x="275" y="207"/>
      <point x="275" y="194" type="qcurve" smooth="yes"/>
      <point x="275" y="106" type="line" smooth="yes"/>
      <point x="275" y="82"/>
      <point x="256" y="39"/>
      <point x="225" y="7"/>
      <point x="182" y="-11"/>
      <point x="158" y="-11" type="qcurve" smooth="yes"/>
      <point x="134" y="-11"/>
      <point x="91" y="7"/>
      <point x="60" y="39"/>
      <point x="41" y="82"/>
      <point x="41" y="106" type="qcurve" smooth="yes"/>
      <point x="41" y="130" type="line"/>
      <point x="77" y="130" type="line"/>
      <point x="77" y="106" type="line" smooth="yes"/>
      <point x="77" y="72"/>
      <point x="124" y="25"/>
      <point x="158" y="25" type="qcurve" smooth="yes"/>
      <point x="191" y="25"/>
      <point x="240" y="72"/>
      <point x="240" y="106" type="qcurve" smooth="yes"/>
      <point x="240" y="126"/>
      <point x="240" y="152"/>
      <point x="240" y="172"/>
      <point x="240" y="189"/>
      <point x="240" y="200" type="qcurve" smooth="yes"/>
      <point x="240" y="214"/>
      <point x="210" y="239"/>
      <point x="187" y="239" type="qcurve" smooth="yes"/>
      <point x="127" y="239" type="line"/>
      <point x="83" y="244"/>
      <point x="42" y="301"/>
      <point x="41" y="346" type="qcurve" smooth="yes"/>
      <point x="41" y="410" type="line" smooth="yes"/>
      <point x="41" y="434"/>
      <point x="59" y="487"/>
      <point x="91" y="518"/>
      <point x="134" y="537"/>
      <point x="158" y="537" type="qcurve" smooth="yes"/>
      <point x="182" y="537"/>
      <point x="225" y="518"/>
      <point x="256" y="487"/>
      <point x="275" y="434"/>
      <point x="275" y="410" type="qcurve" smooth="yes"/>
      <point x="275" y="390" type="line"/>
    </contour>
  </outline>
</glyph>
<glyph name="t" format="1">
  <advance width="297"/>
  <unicode hex="0074"/>
  <outline>
    <contour>
      <point x="234" y="36" type="qcurve" smooth="yes"/>
      <point x="242" y="36"/>
      <point x="252" y="26"/>
      <point x="252" y="18" type="qcurve" smooth="yes"/>
      <point x="252" y="10"/>
      <point x="242" y="0"/>
      <point x="234" y="0" type="qcurve" smooth="yes"/>
      <point x="210" y="0"/>
      <point x="167" y="19"/>
      <point x="135" y="50"/>
      <point x="116" y="93"/>
      <point x="116" y="117" type="qcurve" smooth="yes"/>
      <point x="116" y="535" type="line"/>
      <point x="50" y="535" type="line" smooth="yes"/>
      <point x="42" y="535"/>
      <point x="31" y="545"/>
      <point x="31" y="553" type="qcurve" smooth="yes"/>
      <point x="31" y="561"/>
      <point x="42" y="571"/>
      <point x="50" y="571" type="qcurve" smooth="yes"/>
      <point x="116" y="571" type="line"/>
      <point x="116" y="755" type="line" smooth="yes"/>
      <point x="116" y="763"/>
      <point x="127" y="773"/>
      <point x="135" y="773" type="qcurve" smooth="yes"/>
      <point x="143" y="773"/>
      <point x="153" y="763"/>
      <point x="153" y="755" type="qcurve" smooth="yes"/>
      <point x="153" y="572" type="line"/>
      <point x="153" y="535" type="line"/>
      <point x="153" y="117" type="line" smooth="yes"/>
      <point x="153" y="84"/>
      <point x="200" y="36"/>
    </contour>
    <contour>
      <point x="136" y="535" type="line"/>
      <point x="138" y="571" type="line"/>
      <point x="225" y="571" type="line" smooth="yes"/>
      <point x="233" y="571"/>
      <point x="244" y="561"/>
      <point x="244" y="553" type="qcurve" smooth="yes"/>
      <point x="244" y="545"/>
      <point x="233" y="535"/>
      <point x="225" y="535" type="qcurve" smooth="yes"/>
    </contour>
  </outline>
</glyph>
<glyph name="u" format="1">
  <advance width="346"/>
  <unicode hex="0075"/>
  <outline>
    <contour>
      <point x="258" y="509" type="line" smooth="yes"/>
      <point x="258" y="517"/>
      <point x="270" y="527"/>
      <point x="278" y="527" type="qcurve" smooth="yes"/>
      <point x="286" y="527"/>
      <point x="296" y="517"/>
      <point x="296" y="509" type="qcurve" smooth="yes"/>
      <point x="296" y="481"/>
      <point x="296" y="429"/>
      <point x="296" y="372"/>
      <point x="296" y="305"/>
      <point x="295" y="214"/>
      <point x="294" y="96"/>
      <point x="294" y="18" type="qcurve" smooth="yes"/>
      <point x="294" y="10"/>
      <point x="284" y="0"/>
      <point x="276" y="0" type="qcurve" smooth="yes"/>
      <point x="268" y="0"/>
      <point x="258" y="10"/>
      <point x="258" y="18" type="qcurve" smooth="yes"/>
      <point x="258" y="41" type="line"/>
      <point x="242" y="24"/>
      <point x="200" y="0"/>
      <point x="180" y="0" type="qcurve" smooth="yes"/>
      <point x="156" y="-1"/>
      <point x="114" y="17"/>
      <point x="82" y="49"/>
      <point x="64" y="92"/>
      <point x="64" y="116" type="qcurve" smooth="yes"/>
      <point x="64" y="509" type="line" smooth="yes"/>
      <point x="64" y="517"/>
      <point x="74" y="527"/>
      <point x="82" y="527" type="qcurve" smooth="yes"/>
      <point x="89" y="527"/>
      <point x="100" y="517"/>
      <point x="100" y="509" type="qcurve" smooth="yes"/>
      <point x="100" y="116" type="line" smooth="yes"/>
      <point x="100" y="83"/>
      <point x="146" y="36"/>
      <point x="180" y="36" type="qcurve" smooth="yes"/>
      <point x="209" y="36"/>
      <point x="253" y="72"/>
      <point x="258" y="100" type="qcurve"/>
    </contour>
  </outline>
</glyph>
<glyph name="v" format="1">
  <advance width="324"/>
  <unicode hex="0076"/>
  <outline>
    <contour>
      <point x="238" y="523" type="qcurve" smooth="yes"/>
      <point x="260" y="516"/>
      <point x="286" y="489"/>
      <point x="296" y="453"/>
      <point x="292" y="410"/>
      <point x="285" y="388" type="qcurve" smooth="yes"/>
      <point x="184" y="11" type="line" smooth="yes"/>
      <point x="181" y="1"/>
      <point x="171" y="-1" type="qcurve" smooth="yes"/>
      <point x="170" y="-1" type="line" smooth="yes"/>
      <point x="163" y="-3"/>
      <point x="150" y="3"/>
      <point x="148" y="11" type="qcurve" smooth="yes"/>
      <point x="54" y="389" type="line" smooth="yes"/>
      <point x="40" y="435"/>
      <point x="58" y="509"/>
      <point x="103" y="523" type="qcurve" smooth="yes"/>
      <point x="111" y="525"/>
      <point x="123" y="519"/>
      <point x="125" y="511" type="qcurve" smooth="yes"/>
      <point x="127" y="504"/>
      <point x="121" y="491"/>
      <point x="113" y="489" type="qcurve" smooth="yes"/>
      <point x="98" y="484"/>
      <point x="83" y="467"/>
      <point x="79" y="443"/>
      <point x="83" y="415"/>
      <point x="88" y="399" type="qcurve" smooth="yes"/>
      <point x="167" y="83" type="line"/>
      <point x="251" y="399" type="line" smooth="yes"/>
      <point x="261" y="430"/>
      <point x="258" y="479"/>
      <point x="227" y="489" type="qcurve" smooth="yes"/>
      <point x="220" y="491"/>
      <point x="214" y="504"/>
      <point x="216" y="511" type="qcurve" smooth="yes"/>
      <point x="218" y="518"/>
      <point x="231" y="525"/>
    </contour>
  </outline>
</glyph>
<glyph name="w" format="1">
  <advance width="576"/>
  <unicode hex="0077"/>
  <outline>
    <contour>
      <point x="488" y="524" type="qcurve" smooth="yes"/>
      <point x="510" y="517"/>
      <point x="536" y="491"/>
      <point x="546" y="455"/>
      <point x="542" y="412"/>
      <point x="535" y="389" type="qcurve" smooth="yes"/>
      <point x="414" y="10" type="line" smooth="yes"/>
      <point x="411" y="0"/>
      <point x="400" y="-2" type="qcurve" smooth="yes"/>
      <point x="392" y="-4"/>
      <point x="379" y="2"/>
      <point x="377" y="10" type="qcurve" smooth="yes"/>
      <point x="290" y="290" type="line"/>
      <point x="197" y="11" type="line" smooth="yes"/>
      <point x="194" y="3"/>
      <point x="183" y="-1" type="qcurve" smooth="yes"/>
      <point x="175" y="-3"/>
      <point x="163" y="4"/>
      <point x="161" y="11" type="qcurve" smooth="yes"/>
      <point x="46" y="392" type="line" smooth="yes"/>
      <point x="39" y="415"/>
      <point x="36" y="458"/>
      <point x="47" y="494"/>
      <point x="73" y="520"/>
      <point x="96" y="527" type="qcurve" smooth="yes"/>
      <point x="103" y="529"/>
      <point x="116" y="522"/>
      <point x="118" y="514" type="qcurve" smooth="yes"/>
      <point x="120" y="507"/>
      <point x="113" y="494"/>
      <point x="106" y="492" type="qcurve" smooth="yes"/>
      <point x="90" y="487"/>
      <point x="75" y="470"/>
      <point x="71" y="446"/>
      <point x="75" y="418"/>
      <point x="80" y="402" type="qcurve" smooth="yes"/>
      <point x="179" y="84" type="line"/>
      <point x="264" y="324" type="line" smooth="yes"/>
      <point x="269" y="340"/>
      <point x="274" y="368"/>
      <point x="271" y="392"/>
      <point x="256" y="410"/>
      <point x="240" y="415" type="qcurve" smooth="yes"/>
      <point x="233" y="417"/>
      <point x="226" y="430"/>
      <point x="228" y="437" type="qcurve" smooth="yes"/>
      <point x="230" y="445"/>
      <point x="243" y="451"/>
      <point x="251" y="449" type="qcurve" smooth="yes"/>
      <point x="277" y="440"/>
      <point x="291" y="423" type="qcurve"/>
      <point x="299" y="431"/>
      <point x="318" y="444"/>
      <point x="332" y="448" type="qcurve" smooth="yes"/>
      <point x="340" y="450"/>
      <point x="353" y="444"/>
      <point x="355" y="436" type="qcurve" smooth="yes"/>
      <point x="357" y="429"/>
      <point x="350" y="416"/>
      <point x="342" y="414" type="qcurve" smooth="yes"/>
      <point x="327" y="409"/>
      <point x="312" y="392"/>
      <point x="308" y="368"/>
      <point x="312" y="340"/>
      <point x="317" y="324" type="qcurve" smooth="yes"/>
      <point x="396" y="82" type="line"/>
      <point x="501" y="400" type="line" smooth="yes"/>
      <point x="506" y="416"/>
      <point x="511" y="444"/>
      <point x="508" y="468"/>
      <point x="493" y="485"/>
      <point x="477" y="490" type="qcurve" smooth="yes"/>
      <point x="470" y="492"/>
      <point x="463" y="505"/>
      <point x="465" y="513" type="qcurve" smooth="yes"/>
      <point x="467" y="520"/>
      <point x="480" y="526"/>
    </contour>
  </outline>
</glyph>
<glyph name="x" format="1">
  <advance width="394"/>
  <unicode hex="0078"/>
  <outline>
    <contour>
      <point x="338" y="28" type="line" smooth="yes"/>
      <point x="343" y="22"/>
      <point x="340" y="7"/>
      <point x="334" y="2" type="qcurve" smooth="yes"/>
      <point x="328" y="-2"/>
      <point x="314" y="0"/>
      <point x="309" y="6" type="qcurve" smooth="yes"/>
      <point x="196" y="193" type="line"/>
      <point x="83" y="6" type="line" smooth="yes"/>
      <point x="78" y="0"/>
      <point x="64" y="-2"/>
      <point x="58" y="2" type="qcurve" smooth="yes"/>
      <point x="52" y="7"/>
      <point x="49" y="22"/>
      <point x="54" y="28" type="qcurve" smooth="yes"/>
      <point x="175" y="228" type="line"/>
      <point x="84" y="378" type="line"/>
      <point x="55" y="417"/>
      <point x="46" y="494"/>
      <point x="85" y="523" type="qcurve" smooth="yes"/>
      <point x="91" y="528"/>
      <point x="105" y="525"/>
      <point x="110" y="519" type="qcurve" smooth="yes"/>
      <point x="115" y="513"/>
      <point x="112" y="499"/>
      <point x="106" y="494" type="qcurve" smooth="yes"/>
      <point x="80" y="474"/>
      <point x="93" y="426"/>
      <point x="113" y="400" type="qcurve" smooth="yes"/>
      <point x="196" y="262" type="line"/>
      <point x="279" y="400" type="line" smooth="yes"/>
      <point x="299" y="426"/>
      <point x="312" y="474"/>
      <point x="286" y="494" type="qcurve" smooth="yes"/>
      <point x="280" y="499"/>
      <point x="277" y="513"/>
      <point x="282" y="519" type="qcurve" smooth="yes"/>
      <point x="287" y="525"/>
      <point x="301" y="528"/>
      <point x="307" y="523" type="qcurve" smooth="yes"/>
      <point x="346" y="494"/>
      <point x="337" y="417"/>
      <point x="308" y="378" type="qcurve"/>
      <point x="217" y="228" type="line"/>
    </contour>
  </outline>
</glyph>
<glyph name="y" format="1">
  <advance width="353"/>
  <unicode hex="0079"/>
  <outline>
    <contour>
      <point x="285" y="507" type="line"/>
      <point x="285" y="-118" type="line" smooth="yes"/>
      <point x="285" y="-142"/>
      <point x="267" y="-184"/>
      <point x="235" y="-216"/>
      <point x="193" y="-234"/>
      <point x="169" y="-234" type="qcurve" smooth="yes"/>
      <point x="161" y="-234"/>
      <point x="151" y="-224"/>
      <point x="151" y="-216" type="qcurve" smooth="yes"/>
      <point x="151" y="-208"/>
      <point x="161" y="-198"/>
      <point x="169" y="-198" type="qcurve" smooth="yes"/>
      <point x="202" y="-198"/>
      <point x="249" y="-151"/>
      <point x="249" y="-118" type="qcurve" smooth="yes"/>
      <point x="249" y="32" type="line"/>
      <point x="233" y="17"/>
      <point x="192" y="0"/>
      <point x="169" y="0" type="qcurve" smooth="yes"/>
      <point x="145" y="0"/>
      <point x="103" y="18"/>
      <point x="71" y="50"/>
      <point x="53" y="92"/>
      <point x="53" y="116" type="qcurve" smooth="yes"/>
      <point x="53" y="507" type="line" smooth="yes"/>
      <point x="53" y="515"/>
      <point x="63" y="525"/>
      <point x="71" y="525" type="qcurve" smooth="yes"/>
      <point x="79" y="525"/>
      <point x="89" y="515"/>
      <point x="89" y="507" type="qcurve" smooth="yes"/>
      <point x="89" y="116" type="line" smooth="yes"/>
      <point x="89" y="83"/>
      <point x="136" y="36"/>
      <point x="169" y="36" type="qcurve" smooth="yes"/>
      <point x="202" y="36"/>
      <point x="249" y="83"/>
      <point x="249" y="116" type="qcurve" smooth="yes"/>
      <point x="249" y="507" type="line"/>
      <point x="249" y="508" type="line"/>
      <point x="249" y="510" type="line" smooth="yes"/>
      <point x="251" y="525"/>
      <point x="267" y="525" type="qcurve" smooth="yes"/>
      <point x="282" y="525"/>
      <point x="284" y="510" type="qcurve" smooth="yes"/>
      <point x="284" y="509"/>
      <point x="285" y="509"/>
      <point x="285" y="508" type="qcurve" smooth="yes"/>
    </contour>
  </outline>
</glyph>
<glyph name="z" format="1">
  <advance width="342"/>
  <unicode hex="007A"/>
  <outline>
    <contour>
      <point x="272" y="103" type="qcurve" smooth="yes"/>
      <point x="280" y="103"/>
      <point x="290" y="92"/>
      <point x="290" y="84" type="qcurve" smooth="yes"/>
      <point x="290" y="40"/>
      <point x="251" y="0"/>
      <point x="206" y="0" type="qcurve" smooth="yes"/>
      <point x="73" y="0" type="line"/>
      <point x="69" y="0" type="line" smooth="yes"/>
      <point x="63" y="2"/>
      <point x="60" y="5" type="qcurve" smooth="yes"/>
      <point x="56" y="9"/>
      <point x="56" y="16" type="qcurve"/>
      <point x="55" y="16"/>
      <point x="55" y="18" type="qcurve" smooth="yes"/>
      <point x="55" y="24"/>
      <point x="57" y="28" type="qcurve" smooth="yes"/>
      <point x="57" y="30"/>
      <point x="58" y="30" type="qcurve" smooth="yes"/>
      <point x="244" y="491" type="line"/>
      <point x="141" y="491" type="line" smooth="yes"/>
      <point x="112" y="491"/>
      <point x="92" y="472"/>
      <point x="92" y="443" type="qcurve" smooth="yes"/>
      <point x="92" y="435"/>
      <point x="82" y="424"/>
      <point x="74" y="424" type="qcurve" smooth="yes"/>
      <point x="66" y="424"/>
      <point x="56" y="435"/>
      <point x="56" y="443" type="qcurve" smooth="yes"/>
      <point x="56" y="487"/>
      <point x="96" y="527"/>
      <point x="141" y="527" type="qcurve" smooth="yes"/>
      <point x="270" y="527" type="line" smooth="yes"/>
      <point x="278" y="527"/>
      <point x="288" y="517"/>
      <point x="288" y="509" type="qcurve" smooth="yes"/>
      <point x="288" y="504"/>
      <point x="285" y="500" type="qcurve" smooth="yes"/>
      <point x="97" y="36" type="line"/>
      <point x="206" y="36" type="line" smooth="yes"/>
      <point x="235" y="36"/>
      <point x="254" y="55"/>
      <point x="254" y="84" type="qcurve" smooth="yes"/>
      <point x="254" y="92"/>
      <point x="264" y="103"/>
    </contour>
  </outline>
</glyph>
<glyph name="asciitilde" format="1">
  <advance width="407"/>
  <unicode hex="007E"/>
  <outline>
    <contour>
      <point x="45" y="386" type="qcurve" smooth="yes"/>
      <point x="45" y="395"/>
      <point x="65" y="419"/>
      <point x="79" y="423" type="qcurve" smooth="yes"/>
      <point x="101" y="429"/>
      <point x="146" y="426"/>
      <point x="191" y="414"/>
      <point x="235" y="398"/>
      <point x="258" y="393" type="qcurve"/>
      <point x="232" y="399"/>
      <point x="183" y="417"/>
      <point x="158" y="422" type="qcurve"/>
      <point x="180" y="417"/>
      <point x="225" y="401"/>
      <point x="270" y="389"/>
      <point x="314" y="386"/>
      <point x="336" y="392" type="qcurve" smooth="yes"/>
      <point x="350" y="396"/>
      <point x="370" y="395"/>
      <point x="370" y="386" type="qcurve" smooth="yes"/>
      <point x="370" y="378"/>
      <point x="350" y="354"/>
      <point x="336" y="349" type="qcurve" smooth="yes"/>
      <point x="314" y="343"/>
      <point x="270" y="347"/>
      <point x="225" y="359"/>
      <point x="180" y="375"/>
      <point x="158" y="380" type="qcurve"/>
      <point x="183" y="374"/>
      <point x="232" y="356"/>
      <point x="258" y="350" type="qcurve"/>
      <point x="235" y="355"/>
      <point x="191" y="371"/>
      <point x="146" y="383"/>
      <point x="101" y="387"/>
      <point x="79" y="381" type="qcurve" smooth="yes"/>
      <point x="65" y="377"/>
      <point x="45" y="378"/>
    </contour>
  </outline>
</glyph>
<glyph name="exclamdown" format="1">
  <advance width="183"/>
  <unicode hex="00A1"/>
  <outline>
    <contour>
      <point x="79" y="654" type="qcurve" smooth="yes"/>
      <point x="87" y="654"/>
      <point x="96" y="644"/>
      <point x="96" y="637" type="qcurve" smooth="yes"/>
      <point x="96" y="547" type="line"/>
      <point x="96" y="99" type="line"/>
      <point x="96" y="16" type="line" smooth="yes"/>
      <point x="96" y="9"/>
      <point x="87" y="-1"/>
      <point x="79" y="-1" type="qcurve" smooth="yes"/>
      <point x="72" y="-1"/>
      <point x="62" y="9"/>
      <point x="62" y="16" type="qcurve" smooth="yes"/>
      <point x="62" y="99" type="line"/>
      <point x="62" y="547" type="line"/>
      <point x="62" y="637" type="line" smooth="yes"/>
      <point x="62" y="644"/>
      <point x="72" y="654"/>
    </contour>
    <contour>
      <point x="79" y="731" type="qcurve" smooth="yes"/>
      <point x="87" y="731"/>
      <point x="96" y="721"/>
      <point x="96" y="714" type="qcurve" smooth="yes"/>
      <point x="96" y="701" type="line" smooth="yes"/>
      <point x="96" y="694"/>
      <point x="87" y="684"/>
      <point x="79" y="684" type="qcurve" smooth="yes"/>
      <point x="72" y="684"/>
      <point x="62" y="694"/>
      <point x="62" y="701" type="qcurve" smooth="yes"/>
      <point x="62" y="714" type="line" smooth="yes"/>
      <point x="62" y="721"/>
      <point x="72" y="731"/>
    </contour>
  </outline>
</glyph>
<glyph name="cent" format="1">
  <advance width="311"/>
  <unicode hex="00A2"/>
  <outline>
    <contour>
      <point x="236" y="390" type="line"/>
      <point x="236" y="412" type="line" smooth="yes"/>
      <point x="236" y="446"/>
      <point x="189" y="493"/>
      <point x="155" y="493" type="qcurve" smooth="yes"/>
      <point x="121" y="493"/>
      <point x="74" y="446"/>
      <point x="74" y="412" type="qcurve" smooth="yes"/>
      <point x="74" y="117" type="line" smooth="yes"/>
      <point x="74" y="84"/>
      <point x="121" y="36"/>
      <point x="155" y="36" type="qcurve" smooth="yes"/>
      <point x="189" y="36"/>
      <point x="236" y="84"/>
      <point x="236" y="117" type="qcurve" smooth="yes"/>
      <point x="236" y="140" type="line"/>
      <point x="272" y="140" type="line"/>
      <point x="272" y="117" type="line" smooth="yes"/>
      <point x="272" y="93"/>
      <point x="254" y="50"/>
      <point x="222" y="19"/>
      <point x="179" y="0"/>
      <point x="155" y="0" type="qcurve" smooth="yes"/>
      <point x="131" y="0"/>
      <point x="88" y="19"/>
      <point x="56" y="50"/>
      <point x="38" y="93"/>
      <point x="38" y="117" type="qcurve" smooth="yes"/>
      <point x="38" y="412" type="line" smooth="yes"/>
      <point x="38" y="436"/>
      <point x="56" y="479"/>
      <point x="88" y="511"/>
      <point x="131" y="530"/>
      <point x="155" y="530" type="qcurve" smooth="yes"/>
      <point x="179" y="530"/>
      <point x="222" y="511"/>
      <point x="254" y="479"/>
      <point x="272" y="436"/>
      <point x="272" y="412" type="qcurve" smooth="yes"/>
      <point x="272" y="390" type="line"/>
    </contour>
    <contour>
      <point x="158" y="641" type="qcurve" smooth="yes"/>
      <point x="166" y="641"/>
      <point x="177" y="630"/>
      <point x="177" y="622" type="qcurve" smooth="yes"/>
      <point x="177" y="523" type="line"/>
      <point x="177" y="27" type="line"/>
      <point x="177" y="-72" type="line" smooth="yes"/>
      <point x="177" y="-80"/>
      <point x="166" y="-91"/>
      <point x="158" y="-91" type="qcurve" smooth="yes"/>
      <point x="139" y="-91"/>
      <point x="139" y="-72" type="qcurve" smooth="yes"/>
      <point x="139" y="27" type="line"/>
      <point x="139" y="523" type="line"/>
      <point x="139" y="622" type="line" smooth="yes"/>
      <point x="139" y="630"/>
      <point x="150" y="641"/>
    </contour>
  </outline>
</glyph>
<glyph name="currency" format="1">
  <advance width="604"/>
  <unicode hex="00A4"/>
  <outline>
    <contour>
      <point x="547" y="121" type="line" smooth="yes"/>
      <point x="554" y="114"/>
      <point x="554" y="96"/>
      <point x="547" y="89" type="qcurve" smooth="yes"/>
      <point x="541" y="82"/>
      <point x="522" y="82"/>
      <point x="516" y="89" type="qcurve" smooth="yes"/>
      <point x="455" y="149" type="line"/>
      <point x="404" y="201" type="line"/>
      <point x="384" y="184"/>
      <point x="332" y="165"/>
      <point x="302" y="165" type="qcurve" smooth="yes"/>
      <point x="272" y="165"/>
      <point x="220" y="184"/>
      <point x="200" y="201" type="qcurve"/>
      <point x="130" y="131" type="line"/>
      <point x="88" y="89" type="line" smooth="yes"/>
      <point x="81" y="82"/>
      <point x="63" y="82"/>
      <point x="56" y="89" type="qcurve" smooth="yes"/>
      <point x="50" y="96"/>
      <point x="50" y="114"/>
      <point x="56" y="121" type="qcurve" smooth="yes"/>
      <point x="117" y="181" type="line"/>
      <point x="171" y="236" type="line"/>
      <point x="157" y="261"/>
      <point x="157" y="289" type="qcurve" smooth="yes"/>
      <point x="157" y="459" type="line" smooth="yes"/>
      <point x="157" y="496"/>
      <point x="181" y="528" type="qcurve" smooth="yes"/>
      <point x="180" y="529"/>
      <point x="178" y="530"/>
      <point x="177" y="531" type="qcurve" smooth="yes"/>
      <point x="117" y="592" type="line"/>
      <point x="56" y="652" type="line" smooth="yes"/>
      <point x="50" y="659"/>
      <point x="50" y="677"/>
      <point x="56" y="684" type="qcurve" smooth="yes"/>
      <point x="63" y="691"/>
      <point x="81" y="690"/>
      <point x="88" y="684" type="qcurve" smooth="yes"/>
      <point x="148" y="623" type="line"/>
      <point x="209" y="563" type="line" smooth="yes"/>
      <point x="211" y="561"/>
      <point x="213" y="557" type="qcurve"/>
      <point x="252" y="582"/>
      <point x="302" y="582" type="qcurve" smooth="yes"/>
      <point x="352" y="582"/>
      <point x="391" y="557" type="qcurve"/>
      <point x="393" y="561"/>
      <point x="395" y="563" type="qcurve" smooth="yes"/>
      <point x="455" y="623" type="line"/>
      <point x="516" y="684" type="line" smooth="yes"/>
      <point x="522" y="690"/>
      <point x="541" y="690"/>
      <point x="547" y="684" type="qcurve" smooth="yes"/>
      <point x="554" y="677"/>
      <point x="554" y="659"/>
      <point x="547" y="652" type="qcurve" smooth="yes"/>
      <point x="467" y="572" type="line"/>
      <point x="427" y="531" type="line" smooth="yes"/>
      <point x="426" y="530"/>
      <point x="422" y="528" type="qcurve"/>
      <point x="447" y="497"/>
      <point x="447" y="459" type="qcurve" smooth="yes"/>
      <point x="447" y="289" type="line" smooth="yes"/>
      <point x="447" y="261"/>
      <point x="433" y="236" type="qcurve"/>
      <point x="487" y="181" type="line"/>
    </contour>
    <contour>
      <point x="302" y="204" type="qcurve" smooth="yes"/>
      <point x="323" y="204"/>
      <point x="359" y="217"/>
      <point x="386" y="240"/>
      <point x="402" y="271"/>
      <point x="402" y="289" type="qcurve" smooth="yes"/>
      <point x="402" y="346" type="line"/>
      <point x="402" y="347" type="line"/>
      <point x="402" y="459" type="line" smooth="yes"/>
      <point x="402" y="477"/>
      <point x="386" y="508"/>
      <point x="359" y="531"/>
      <point x="323" y="544"/>
      <point x="302" y="544" type="qcurve" smooth="yes"/>
      <point x="281" y="544"/>
      <point x="245" y="531"/>
      <point x="218" y="508"/>
      <point x="202" y="477"/>
      <point x="202" y="459" type="qcurve" smooth="yes"/>
      <point x="202" y="289" type="line" smooth="yes"/>
      <point x="202" y="271"/>
      <point x="218" y="240"/>
      <point x="245" y="217"/>
      <point x="281" y="204"/>
    </contour>
  </outline>
</glyph>
<glyph name="section" format="1">
  <advance width="466"/>
  <unicode hex="00A7"/>
  <outline>
    <contour>
      <point x="402" y="736" type="line" smooth="yes"/>
      <point x="411" y="736"/>
      <point x="424" y="725"/>
      <point x="424" y="717" type="qcurve" smooth="yes"/>
      <point x="424" y="709"/>
      <point x="411" y="698"/>
      <point x="402" y="698" type="qcurve" smooth="yes"/>
      <point x="235" y="698" type="line" smooth="yes"/>
      <point x="199" y="698"/>
      <point x="149" y="656"/>
      <point x="149" y="625" type="qcurve" smooth="yes"/>
      <point x="149" y="597"/>
      <point x="195" y="555"/>
      <point x="228" y="553" type="qcurve" smooth="yes"/>
      <point x="235" y="553" type="line" smooth="yes"/>
      <point x="241" y="553"/>
      <point x="245" y="552" type="qcurve" smooth="yes"/>
      <point x="248" y="552" type="line"/>
      <point x="255" y="552" type="line"/>
      <point x="302" y="544"/>
      <point x="333" y="515" type="qcurve" smooth="yes"/>
      <point x="364" y="484"/>
      <point x="364" y="442" type="qcurve" smooth="yes"/>
      <point x="364" y="293" type="line" smooth="yes"/>
      <point x="364" y="265"/>
      <point x="334" y="217"/>
      <point x="307" y="202" type="qcurve"/>
      <point x="333" y="186"/>
      <point x="363" y="138"/>
      <point x="363" y="111" type="qcurve" smooth="yes"/>
      <point x="363" y="88"/>
      <point x="343" y="48"/>
      <point x="307" y="18"/>
      <point x="260" y="0"/>
      <point x="233" y="0" type="qcurve" smooth="yes"/>
      <point x="65" y="0" type="line" smooth="yes"/>
      <point x="56" y="0"/>
      <point x="44" y="11"/>
      <point x="44" y="19" type="qcurve" smooth="yes"/>
      <point x="44" y="27"/>
      <point x="56" y="38"/>
      <point x="65" y="38" type="qcurve" smooth="yes"/>
      <point x="233" y="38" type="line" smooth="yes"/>
      <point x="269" y="38"/>
      <point x="319" y="80"/>
      <point x="319" y="111" type="qcurve" smooth="yes"/>
      <point x="319" y="139"/>
      <point x="275" y="180"/>
      <point x="242" y="183" type="qcurve" smooth="yes"/>
      <point x="235" y="183" type="line"/>
      <point x="221" y="183" type="line"/>
      <point x="220" y="183" type="line" smooth="yes"/>
      <point x="218" y="183"/>
      <point x="215" y="184"/>
      <point x="213" y="184" type="qcurve" smooth="yes"/>
      <point x="166" y="192"/>
      <point x="136" y="222" type="qcurve" smooth="yes"/>
      <point x="105" y="253"/>
      <point x="105" y="293" type="qcurve" smooth="yes"/>
      <point x="105" y="442" type="line" smooth="yes"/>
      <point x="105" y="470"/>
      <point x="135" y="518"/>
      <point x="162" y="534" type="qcurve"/>
      <point x="135" y="550"/>
      <point x="105" y="598"/>
      <point x="105" y="625" type="qcurve" smooth="yes"/>
      <point x="105" y="648"/>
      <point x="125" y="688"/>
      <point x="161" y="718"/>
      <point x="208" y="736"/>
      <point x="235" y="736" type="qcurve" smooth="yes"/>
    </contour>
    <contour>
      <point x="228" y="515" type="line" smooth="yes"/>
      <point x="195" y="513"/>
      <point x="149" y="471"/>
      <point x="149" y="442" type="qcurve" smooth="yes"/>
      <point x="149" y="293" type="line" smooth="yes"/>
      <point x="149" y="266"/>
      <point x="192" y="225"/>
      <point x="224" y="221" type="qcurve"/>
      <point x="233" y="221" type="line"/>
      <point x="242" y="221" type="line" smooth="yes"/>
      <point x="275" y="223"/>
      <point x="321" y="265"/>
      <point x="321" y="293" type="qcurve" smooth="yes"/>
      <point x="321" y="343" type="line"/>
      <point x="321" y="344" type="line"/>
      <point x="321" y="442" type="line" smooth="yes"/>
      <point x="321" y="471"/>
      <point x="276" y="512"/>
      <point x="243" y="515" type="qcurve" smooth="yes"/>
      <point x="235" y="515" type="line"/>
    </contour>
  </outline>
</glyph>
<glyph name="guillemotleft" format="1">
  <advance width="544"/>
  <unicode hex="00AB"/>
  <outline>
    <contour>
      <point x="479" y="1" type="qcurve" smooth="yes"/>
      <point x="469" y="1"/>
      <point x="465" y="7" type="qcurve" smooth="yes"/>
      <point x="151" y="366" type="line"/>
      <point x="465" y="725" type="line" smooth="yes"/>
      <point x="470" y="731"/>
      <point x="486" y="732"/>
      <point x="492" y="727" type="qcurve" smooth="yes"/>
      <point x="498" y="722"/>
      <point x="499" y="705"/>
      <point x="494" y="699" type="qcurve" smooth="yes"/>
      <point x="203" y="366" type="line"/>
      <point x="494" y="33" type="line" smooth="yes"/>
      <point x="499" y="27"/>
      <point x="498" y="10"/>
      <point x="492" y="5" type="qcurve" smooth="yes"/>
      <point x="487" y="1"/>
    </contour>
    <contour>
      <point x="371" y="-2" type="qcurve" smooth="yes"/>
      <point x="361" y="-2"/>
      <point x="357" y="4" type="qcurve" smooth="yes"/>
      <point x="43" y="363" type="line"/>
      <point x="357" y="722" type="line" smooth="yes"/>
      <point x="362" y="728"/>
      <point x="378" y="729"/>
      <point x="384" y="724" type="qcurve" smooth="yes"/>
      <point x="390" y="719"/>
      <point x="391" y="702"/>
      <point x="386" y="696" type="qcurve" smooth="yes"/>
      <point x="95" y="363" type="line"/>
      <point x="386" y="30" type="line" smooth="yes"/>
      <point x="391" y="24"/>
      <point x="390" y="7"/>
      <point x="384" y="2" type="qcurve" smooth="yes"/>
      <point x="379" y="-2"/>
    </contour>
  </outline>
</glyph>
<glyph name="uni00AD" format="1">
  <advance width="373"/>
  <unicode hex="00AD"/>
  <outline>
    <contour>
      <point x="291" y="404" type="line"/>
      <point x="299" y="404"/>
      <point x="309" y="394"/>
      <point x="309" y="386" type="qcurve" smooth="yes"/>
      <point x="309" y="378"/>
      <point x="299" y="368"/>
      <point x="291" y="368" type="qcurve" smooth="yes"/>
      <point x="249" y="368" type="line"/>
      <point x="124" y="368" type="line"/>
      <point x="82" y="368" type="line" smooth="yes"/>
      <point x="74" y="368"/>
      <point x="64" y="378"/>
      <point x="64" y="386" type="qcurve" smooth="yes"/>
      <point x="64" y="394"/>
      <point x="74" y="404"/>
      <point x="82" y="404" type="qcurve" smooth="yes"/>
      <point x="124" y="404" type="line"/>
      <point x="249" y="404" type="line"/>
      <point x="291" y="404" type="line"/>
    </contour>
  </outline>
</glyph>
<glyph name="registered" format="1">
  <advance width="539"/>
  <unicode hex="00AE"/>
  <outline>
    <contour>
      <point x="269" y="711" type="qcurve" smooth="yes"/>
      <point x="314" y="711"/>
      <point x="393" y="685"/>
      <point x="452" y="640"/>
      <point x="486" y="581"/>
      <point x="486" y="547" type="qcurve" smooth="yes"/>
      <point x="486" y="226" type="line" smooth="yes"/>
      <point x="486" y="192"/>
      <point x="452" y="132"/>
      <point x="393" y="88"/>
      <point x="314" y="62"/>
      <point x="269" y="62" type="qcurve" smooth="yes"/>
      <point x="224" y="62"/>
      <point x="145" y="88"/>
      <point x="86" y="132"/>
      <point x="52" y="192"/>
      <point x="52" y="226" type="qcurve" smooth="yes"/>
      <point x="52" y="547" type="line" smooth="yes"/>
      <point x="52" y="581"/>
      <point x="86" y="640"/>
      <point x="145" y="685"/>
      <point x="224" y="711"/>
    </contour>
    <contour>
      <point x="449" y="548" type="line" smooth="yes"/>
      <point x="449" y="571"/>
      <point x="418" y="617"/>
      <point x="368" y="653"/>
      <point x="306" y="676"/>
      <point x="275" y="676" type="qcurve" smooth="yes"/>
      <point x="244" y="676"/>
      <point x="179" y="653"/>
      <point x="126" y="616"/>
      <point x="92" y="570"/>
      <point x="92" y="547" type="qcurve" smooth="yes"/>
      <point x="92" y="215" type="line" smooth="yes"/>
      <point x="92" y="192"/>
      <point x="126" y="149"/>
      <point x="179" y="117"/>
      <point x="244" y="98"/>
      <point x="275" y="98" type="qcurve" smooth="yes"/>
      <point x="306" y="98"/>
      <point x="368" y="119"/>
      <point x="418" y="153"/>
      <point x="449" y="197"/>
      <point x="449" y="220" type="qcurve" smooth="yes"/>
    </contour>
    <contour>
      <point x="351" y="431" type="line"/>
      <point x="347" y="406"/>
      <point x="311" y="371"/>
      <point x="286" y="367" type="qcurve"/>
      <point x="302" y="236" type="line" smooth="yes"/>
      <point x="304" y="212"/>
      <point x="316" y="197"/>
      <point x="325" y="197" type="qcurve" smooth="yes"/>
      <point x="326" y="197"/>
      <point x="327" y="198"/>
      <point x="329" y="198" type="qcurve" smooth="yes"/>
      <point x="331" y="198" type="line" smooth="yes"/>
      <point x="350" y="198"/>
      <point x="352" y="179" type="qcurve" smooth="yes"/>
      <point x="353" y="171"/>
      <point x="342" y="157"/>
      <point x="334" y="156" type="qcurve" smooth="yes"/>
      <point x="325" y="156" type="line" smooth="yes"/>
      <point x="269" y="156"/>
      <point x="260" y="231" type="qcurve" smooth="yes"/>
      <point x="244" y="366" type="line"/>
      <point x="228" y="366" type="line"/>
      <point x="228" y="176" type="line" smooth="yes"/>
      <point x="228" y="167"/>
      <point x="215" y="155"/>
      <point x="207" y="155" type="qcurve" smooth="yes"/>
      <point x="198" y="155"/>
      <point x="186" y="167"/>
      <point x="186" y="176" type="qcurve" smooth="yes"/>
      <point x="186" y="545" type="line"/>
      <point x="190" y="576"/>
      <point x="237" y="618"/>
      <point x="269" y="618" type="qcurve" smooth="yes"/>
      <point x="304" y="618"/>
      <point x="352" y="570"/>
      <point x="352" y="535" type="qcurve" smooth="yes"/>
      <point x="352" y="431" type="line"/>
    </contour>
    <contour>
      <point x="275" y="408" type="line" smooth="yes"/>
      <point x="289" y="408"/>
      <point x="310" y="429"/>
      <point x="310" y="443" type="qcurve" smooth="yes"/>
      <point x="310" y="444" type="line"/>
      <point x="310" y="535" type="line" smooth="yes"/>
      <point x="310" y="552"/>
      <point x="286" y="576"/>
      <point x="269" y="576" type="qcurve" smooth="yes"/>
      <point x="252" y="576"/>
      <point x="228" y="552"/>
      <point x="228" y="535" type="qcurve" smooth="yes"/>
      <point x="228" y="408" type="line"/>
    </contour>
  </outline>
</glyph>
<glyph name="acute" format="1">
  <advance width="227"/>
  <unicode hex="00B4"/>
  <outline>
    <contour>
      <point x="190" y="662" type="qcurve" smooth="yes"/>
      <point x="197" y="646"/>
      <point x="182" y="637" type="qcurve" smooth="yes"/>
      <point x="99" y="593" type="line"/>
      <point x="146" y="617" type="line"/>
      <point x="62" y="573" type="line" smooth="yes"/>
      <point x="56" y="569"/>
      <point x="42" y="573"/>
      <point x="38" y="580" type="qcurve" smooth="yes"/>
      <point x="34" y="587"/>
      <point x="39" y="601"/>
      <point x="45" y="605" type="qcurve" smooth="yes"/>
      <point x="129" y="649" type="line"/>
      <point x="82" y="624" type="line"/>
      <point x="165" y="669" type="line" smooth="yes"/>
      <point x="172" y="673"/>
      <point x="186" y="668"/>
    </contour>
  </outline>
</glyph>
<glyph name="onesuperior" format="1">
  <advance width="168"/>
  <unicode hex="00B9"/>
  <outline>
    <contour>
      <point x="104" y="765" type="line"/>
      <point x="104" y="372" type="line" smooth="yes"/>
      <point x="104" y="364"/>
      <point x="93" y="353"/>
      <point x="85" y="353" type="qcurve" smooth="yes"/>
      <point x="66" y="353"/>
      <point x="66" y="372" type="qcurve" smooth="yes"/>
      <point x="66" y="729" type="line" smooth="yes"/>
      <point x="64" y="713"/>
      <point x="47" y="713" type="qcurve" smooth="yes"/>
      <point x="39" y="713"/>
      <point x="28" y="724"/>
      <point x="28" y="732" type="qcurve" smooth="yes"/>
      <point x="28" y="743"/>
      <point x="33" y="763"/>
      <point x="41" y="768" type="qcurve" smooth="yes"/>
      <point x="48" y="773"/>
      <point x="66" y="774"/>
      <point x="80" y="774" type="qcurve" smooth="yes"/>
      <point x="85" y="774" type="line" smooth="yes"/>
      <point x="95" y="774"/>
      <point x="101" y="765" type="qcurve"/>
    </contour>
  </outline>
</glyph>
<glyph name="guillemotright" format="1">
  <advance width="564"/>
  <unicode hex="00BB"/>
  <outline>
    <contour>
      <point x="63" y="5" type="qcurve" smooth="yes"/>
      <point x="55" y="5"/>
      <point x="51" y="9" type="qcurve" smooth="yes"/>
      <point x="44" y="14"/>
      <point x="44" y="31"/>
      <point x="49" y="37" type="qcurve" smooth="yes"/>
      <point x="342" y="373" type="line"/>
      <point x="49" y="709" type="line" smooth="yes"/>
      <point x="44" y="715"/>
      <point x="44" y="731"/>
      <point x="51" y="737" type="qcurve" smooth="yes"/>
      <point x="57" y="742"/>
      <point x="73" y="741"/>
      <point x="78" y="735" type="qcurve" smooth="yes"/>
      <point x="394" y="373" type="line"/>
      <point x="78" y="11" type="line" smooth="yes"/>
      <point x="72" y="5"/>
    </contour>
    <contour>
      <point x="194" y="11" type="qcurve" smooth="yes"/>
      <point x="186" y="11"/>
      <point x="182" y="15" type="qcurve" smooth="yes"/>
      <point x="175" y="20"/>
      <point x="175" y="37"/>
      <point x="180" y="43" type="qcurve" smooth="yes"/>
      <point x="473" y="379" type="line"/>
      <point x="180" y="715" type="line" smooth="yes"/>
      <point x="175" y="721"/>
      <point x="175" y="737"/>
      <point x="182" y="743" type="qcurve" smooth="yes"/>
      <point x="188" y="748"/>
      <point x="204" y="747"/>
      <point x="209" y="741" type="qcurve" smooth="yes"/>
      <point x="525" y="379" type="line"/>
      <point x="209" y="17" type="line" smooth="yes"/>
      <point x="203" y="11"/>
    </contour>
  </outline>
</glyph>
<glyph name="onehalf" format="1">
  <advance width="525"/>
  <unicode hex="00BD"/>
  <outline>
    <contour>
      <point x="383" y="756" type="qcurve" smooth="yes"/>
      <point x="345" y="653" type="line"/>
      <point x="152" y="87" type="line"/>
      <point x="115" y="-17" type="line" smooth="yes"/>
      <point x="112" y="-25"/>
      <point x="96" y="-32"/>
      <point x="88" y="-29" type="qcurve" smooth="yes"/>
      <point x="80" y="-26"/>
      <point x="72" y="-10"/>
      <point x="75" y="-2" type="qcurve" smooth="yes"/>
      <point x="113" y="101" type="line"/>
      <point x="306" y="667" type="line"/>
      <point x="344" y="771" type="line" smooth="yes"/>
      <point x="347" y="779"/>
      <point x="363" y="786"/>
      <point x="371" y="783" type="qcurve" smooth="yes"/>
      <point x="379" y="780"/>
      <point x="386" y="764"/>
    </contour>
    <contour>
      <point x="102" y="764" type="line"/>
      <point x="97" y="773"/>
      <point x="86" y="773" type="qcurve" smooth="yes"/>
      <point x="82" y="773" type="line" smooth="yes"/>
      <point x="68" y="773"/>
      <point x="50" y="772"/>
      <point x="43" y="767" type="qcurve" smooth="yes"/>
      <point x="35" y="762"/>
      <point x="30" y="742"/>
      <point x="30" y="731" type="qcurve" smooth="yes"/>
      <point x="30" y="712"/>
      <point x="49" y="712" type="qcurve" smooth="yes"/>
      <point x="64" y="712"/>
      <point x="68" y="728" type="qcurve"/>
      <point x="68" y="371" type="line" smooth="yes"/>
      <point x="68" y="363"/>
      <point x="78" y="352"/>
      <point x="86" y="352" type="qcurve" smooth="yes"/>
      <point x="105" y="352"/>
      <point x="105" y="371" type="qcurve" smooth="yes"/>
      <point x="105" y="764" type="line"/>
    </contour>
    <contour>
      <point x="476" y="192" type="line"/>
      <point x="476" y="346" type="line" smooth="yes"/>
      <point x="476" y="377"/>
      <point x="432" y="421"/>
      <point x="401" y="421" type="qcurve" smooth="yes"/>
      <point x="369" y="421"/>
      <point x="325" y="377"/>
      <point x="325" y="346" type="qcurve" smooth="yes"/>
      <point x="325" y="304" type="line"/>
      <point x="363" y="304" type="line"/>
      <point x="363" y="346" type="line" smooth="yes"/>
      <point x="363" y="361"/>
      <point x="385" y="383"/>
      <point x="401" y="383" type="qcurve" smooth="yes"/>
      <point x="416" y="383"/>
      <point x="438" y="361"/>
      <point x="438" y="346" type="qcurve" smooth="yes"/>
      <point x="438" y="257" type="line"/>
      <point x="438" y="230" type="line"/>
      <point x="325" y="230" type="line"/>
      <point x="325" y="77" type="line" smooth="yes"/>
      <point x="325" y="45"/>
      <point x="369" y="1"/>
      <point x="401" y="1" type="qcurve" smooth="yes"/>
      <point x="432" y="1"/>
      <point x="476" y="45"/>
      <point x="476" y="77" type="qcurve" smooth="yes"/>
      <point x="476" y="103" type="line"/>
      <point x="438" y="103" type="line"/>
      <point x="438" y="77" type="line" smooth="yes"/>
      <point x="438" y="61"/>
      <point x="416" y="39"/>
      <point x="401" y="39" type="qcurve" smooth="yes"/>
      <point x="385" y="39"/>
      <point x="363" y="61"/>
      <point x="363" y="77" type="qcurve" smooth="yes"/>
      <point x="363" y="192" type="line"/>
    </contour>
  </outline>
</glyph>
<glyph name="AE" format="1">
  <advance width="538"/>
  <unicode hex="00C6"/>
  <outline>
    <contour>
      <point x="456" y="551" type="line"/>
      <point x="456" y="610" type="line" smooth="yes"/>
      <point x="456" y="628"/>
      <point x="443" y="658"/>
      <point x="420" y="681"/>
      <point x="389" y="694"/>
      <point x="372" y="694" type="qcurve" smooth="yes"/>
      <point x="337" y="694"/>
      <point x="288" y="646"/>
      <point x="288" y="611" type="qcurve" smooth="yes"/>
      <point x="288" y="385" type="line"/>
      <point x="382" y="385" type="line" smooth="yes"/>
      <point x="413" y="385"/>
      <point x="456" y="429"/>
      <point x="456" y="459" type="qcurve" smooth="yes"/>
      <point x="456" y="478"/>
      <point x="475" y="478" type="qcurve" smooth="yes"/>
      <point x="483" y="478"/>
      <point x="494" y="467"/>
      <point x="494" y="459" type="qcurve" smooth="yes"/>
      <point x="494" y="436"/>
      <point x="476" y="396"/>
      <point x="446" y="366"/>
      <point x="405" y="348"/>
      <point x="382" y="348" type="qcurve" smooth="yes"/>
      <point x="288" y="348" type="line"/>
      <point x="288" y="120" type="line" smooth="yes"/>
      <point x="288" y="85"/>
      <point x="337" y="37"/>
      <point x="372" y="37" type="qcurve" smooth="yes"/>
      <point x="407" y="37"/>
      <point x="456" y="86"/>
      <point x="456" y="121" type="qcurve" smooth="yes"/>
      <point x="456" y="156" type="line"/>
      <point x="494" y="156" type="line"/>
      <point x="494" y="121" type="line" smooth="yes"/>
      <point x="494" y="96"/>
      <point x="475" y="51"/>
      <point x="442" y="18"/>
      <point x="397" y="-1"/>
      <point x="372" y="-1" type="qcurve" smooth="yes"/>
      <point x="347" y="-1"/>
      <point x="305" y="17"/>
      <point x="288" y="33" type="qcurve"/>
      <point x="288" y="17" type="line" smooth="yes"/>
      <point x="288" y="9"/>
      <point x="277" y="-2"/>
      <point x="269" y="-2" type="qcurve" smooth="yes"/>
      <point x="250" y="-2"/>
      <point x="250" y="17" type="qcurve" smooth="yes"/>
      <point x="250" y="120" type="line"/>
      <point x="250" y="121" type="line"/>
      <point x="250" y="376" type="line"/>
      <point x="219" y="348"/>
      <point x="176" y="348" type="qcurve" smooth="yes"/>
      <point x="82" y="348" type="line"/>
      <point x="82" y="17" type="line" smooth="yes"/>
      <point x="82" y="9"/>
      <point x="71" y="-2"/>
      <point x="63" y="-2" type="qcurve" smooth="yes"/>
      <point x="55" y="-2"/>
      <point x="44" y="9"/>
      <point x="44" y="17" type="qcurve" smooth="yes"/>
      <point x="44" y="612" type="line" smooth="yes"/>
      <point x="44" y="637"/>
      <point x="63" y="682"/>
      <point x="96" y="715"/>
      <point x="141" y="734"/>
      <point x="166" y="734" type="qcurve" smooth="yes"/>
      <point x="199" y="734"/>
      <point x="253" y="702"/>
      <point x="269" y="676" type="qcurve"/>
      <point x="286" y="702"/>
      <point x="340" y="732"/>
      <point x="372" y="732" type="qcurve" smooth="yes"/>
      <point x="397" y="732"/>
      <point x="442" y="713"/>
      <point x="475" y="680"/>
      <point x="494" y="635"/>
      <point x="494" y="610" type="qcurve" smooth="yes"/>
      <point x="494" y="551" type="line"/>
    </contour>
    <contour>
      <point x="176" y="386" type="line" smooth="yes"/>
      <point x="207" y="386"/>
      <point x="250" y="428"/>
      <point x="250" y="459" type="qcurve" smooth="yes"/>
      <point x="250" y="610" type="line"/>
      <point x="250" y="611" type="line"/>
      <point x="250" y="612" type="line" smooth="yes"/>
      <point x="250" y="647"/>
      <point x="201" y="696"/>
      <point x="166" y="696" type="qcurve" smooth="yes"/>
      <point x="131" y="696"/>
      <point x="82" y="647"/>
      <point x="82" y="612" type="qcurve" smooth="yes"/>
      <point x="82" y="386" type="line"/>
    </contour>
  </outline>
</glyph>
<glyph name="Eth" format="1">
  <advance width="418"/>
  <unicode hex="00D0"/>
  <outline>
    <contour>
      <point x="252" y="733" type="qcurve" smooth="yes"/>
      <point x="277" y="733"/>
      <point x="322" y="714"/>
      <point x="355" y="681"/>
      <point x="374" y="636"/>
      <point x="374" y="611" type="qcurve" smooth="yes"/>
      <point x="374" y="122" type="line" smooth="yes"/>
      <point x="374" y="97"/>
      <point x="355" y="52"/>
      <point x="322" y="19"/>
      <point x="277" y="0"/>
      <point x="252" y="0" type="qcurve" smooth="yes"/>
      <point x="227" y="0"/>
      <point x="185" y="18"/>
      <point x="168" y="34" type="qcurve"/>
      <point x="168" y="20" type="line" smooth="yes"/>
      <point x="168" y="12"/>
      <point x="157" y="1"/>
      <point x="149" y="1" type="qcurve" smooth="yes"/>
      <point x="141" y="1"/>
      <point x="130" y="12"/>
      <point x="130" y="20" type="qcurve" smooth="yes"/>
      <point x="130" y="119" type="line"/>
      <point x="130" y="122" type="line"/>
      <point x="128" y="419" type="line"/>
      <point x="130" y="614" type="line"/>
      <point x="130" y="713" type="line" smooth="yes"/>
      <point x="130" y="721"/>
      <point x="141" y="732"/>
      <point x="149" y="732" type="qcurve" smooth="yes"/>
      <point x="157" y="732"/>
      <point x="168" y="721"/>
      <point x="168" y="713" type="qcurve" smooth="yes"/>
      <point x="168" y="699" type="line"/>
      <point x="185" y="715"/>
      <point x="227" y="733"/>
    </contour>
    <contour>
      <point x="336" y="450" type="line"/>
      <point x="336" y="451" type="line"/>
      <point x="336" y="611" type="line" smooth="yes"/>
      <point x="336" y="646"/>
      <point x="287" y="695"/>
      <point x="252" y="695" type="qcurve" smooth="yes"/>
      <point x="217" y="695"/>
      <point x="168" y="646"/>
      <point x="168" y="611" type="qcurve" smooth="yes"/>
      <point x="168" y="122" type="line" smooth="yes"/>
      <point x="168" y="87"/>
      <point x="217" y="38"/>
      <point x="252" y="38" type="qcurve" smooth="yes"/>
      <point x="287" y="38"/>
      <point x="336" y="87"/>
      <point x="336" y="122" type="qcurve" smooth="yes"/>
    </contour>
    <contour>
      <point x="271" y="418" type="line" smooth="yes"/>
      <point x="279" y="418"/>
      <point x="289" y="408"/>
      <point x="289" y="400" type="qcurve" smooth="yes"/>
      <point x="289" y="392"/>
      <point x="279" y="382"/>
      <point x="271" y="382" type="qcurve" smooth="yes"/>
      <point x="229" y="382" type="line"/>
      <point x="104" y="382" type="line"/>
      <point x="62" y="382" type="line" smooth="yes"/>
      <point x="54" y="382"/>
      <point x="44" y="392"/>
      <point x="44" y="400" type="qcurve" smooth="yes"/>
      <point x="44" y="408"/>
      <point x="54" y="418"/>
      <point x="62" y="418" type="qcurve" smooth="yes"/>
      <point x="104" y="418" type="line"/>
      <point x="229" y="418" type="line"/>
    </contour>
  </outline>
</glyph>
<glyph name="multiply" format="1">
  <advance width="380"/>
  <unicode hex="00D7"/>
  <outline>
    <contour>
      <point x="332" y="28" type="line" smooth="yes"/>
      <point x="337" y="22"/>
      <point x="334" y="7"/>
      <point x="328" y="2" type="qcurve" smooth="yes"/>
      <point x="322" y="-2"/>
      <point x="308" y="0"/>
      <point x="303" y="6" type="qcurve" smooth="yes"/>
      <point x="190" y="193" type="line"/>
      <point x="77" y="6" type="line" smooth="yes"/>
      <point x="72" y="0"/>
      <point x="58" y="-2"/>
      <point x="52" y="2" type="qcurve" smooth="yes"/>
      <point x="46" y="7"/>
      <point x="43" y="22"/>
      <point x="48" y="28" type="qcurve" smooth="yes"/>
      <point x="169" y="228" type="line"/>
      <point x="78" y="378" type="line"/>
      <point x="49" y="417"/>
      <point x="40" y="494"/>
      <point x="79" y="523" type="qcurve" smooth="yes"/>
      <point x="85" y="528"/>
      <point x="99" y="525"/>
      <point x="104" y="519" type="qcurve" smooth="yes"/>
      <point x="109" y="513"/>
      <point x="106" y="499"/>
      <point x="100" y="494" type="qcurve" smooth="yes"/>
      <point x="74" y="474"/>
      <point x="87" y="426"/>
      <point x="107" y="400" type="qcurve" smooth="yes"/>
      <point x="190" y="262" type="line"/>
      <point x="273" y="400" type="line" smooth="yes"/>
      <point x="293" y="426"/>
      <point x="306" y="474"/>
      <point x="280" y="494" type="qcurve" smooth="yes"/>
      <point x="274" y="499"/>
      <point x="271" y="513"/>
      <point x="276" y="519" type="qcurve" smooth="yes"/>
      <point x="281" y="525"/>
      <point x="295" y="528"/>
      <point x="301" y="523" type="qcurve" smooth="yes"/>
      <point x="340" y="494"/>
      <point x="331" y="417"/>
      <point x="302" y="378" type="qcurve"/>
      <point x="211" y="228" type="line"/>
    </contour>
  </outline>
</glyph>
<glyph name="iacute" format="1">
  <advance width="245"/>
  <unicode hex="00ED"/>
  <outline>
    <contour>
      <point x="109" y="528" type="qcurve" smooth="yes"/>
      <point x="157" y="528"/>
      <point x="195" y="460"/>
      <point x="195" y="412" type="qcurve" smooth="yes"/>
      <point x="195" y="18" type="line" smooth="yes"/>
      <point x="195" y="10"/>
      <point x="185" y="0"/>
      <point x="177" y="0" type="qcurve" smooth="yes"/>
      <point x="169" y="0"/>
      <point x="159" y="10"/>
      <point x="159" y="18" type="qcurve" smooth="yes"/>
      <point x="159" y="412" type="line" smooth="yes"/>
      <point x="159" y="445"/>
      <point x="142" y="492"/>
      <point x="109" y="492" type="qcurve" smooth="yes"/>
      <point x="101" y="492"/>
      <point x="91" y="502"/>
      <point x="91" y="510" type="qcurve" smooth="yes"/>
      <point x="91" y="517"/>
      <point x="101" y="528"/>
    </contour>
    <contour>
      <point x="199" y="646" type="qcurve" smooth="yes"/>
      <point x="206" y="630"/>
      <point x="191" y="621" type="qcurve" smooth="yes"/>
      <point x="108" y="577" type="line"/>
      <point x="155" y="601" type="line"/>
      <point x="71" y="557" type="line" smooth="yes"/>
      <point x="65" y="553"/>
      <point x="51" y="557"/>
      <point x="47" y="564" type="qcurve" smooth="yes"/>
      <point x="43" y="571"/>
      <point x="48" y="585"/>
      <point x="54" y="589" type="qcurve" smooth="yes"/>
      <point x="138" y="633" type="line"/>
      <point x="91" y="608" type="line"/>
      <point x="174" y="653" type="line" smooth="yes"/>
      <point x="181" y="657"/>
      <point x="195" y="652"/>
    </contour>
  </outline>
</glyph>
<glyph name="idieresis" format="1">
  <advance width="221"/>
  <unicode hex="00EF"/>
  <outline>
    <contour>
      <point x="62" y="528" type="qcurve" smooth="yes"/>
      <point x="110" y="528"/>
      <point x="148" y="460"/>
      <point x="148" y="412" type="qcurve" smooth="yes"/>
      <point x="148" y="18" type="line" smooth="yes"/>
      <point x="148" y="10"/>
      <point x="138" y="0"/>
      <point x="130" y="0" type="qcurve" smooth="yes"/>
      <point x="122" y="0"/>
      <point x="112" y="10"/>
      <point x="112" y="18" type="qcurve" smooth="yes"/>
      <point x="112" y="412" type="line" smooth="yes"/>
      <point x="112" y="445"/>
      <point x="95" y="492"/>
      <point x="62" y="492" type="qcurve" smooth="yes"/>
      <point x="54" y="492"/>
      <point x="44" y="502"/>
      <point x="44" y="510" type="qcurve" smooth="yes"/>
      <point x="44" y="517"/>
      <point x="54" y="528"/>
    </contour>
    <contour>
      <point x="67" y="632" type="qcurve" smooth="yes"/>
      <point x="77" y="632"/>
      <point x="90" y="616"/>
      <point x="90" y="603" type="qcurve" smooth="yes"/>
      <point x="90" y="581" type="line" smooth="yes"/>
      <point x="90" y="568"/>
      <point x="77" y="552"/>
      <point x="67" y="552" type="qcurve" smooth="yes"/>
      <point x="58" y="552"/>
      <point x="46" y="568"/>
      <point x="46" y="581" type="qcurve" smooth="yes"/>
      <point x="46" y="603" type="line" smooth="yes"/>
      <point x="46" y="616"/>
      <point x="58" y="632"/>
    </contour>
    <contour>
      <point x="155" y="632" type="qcurve" smooth="yes"/>
      <point x="165" y="632"/>
      <point x="177" y="616"/>
      <point x="177" y="603" type="qcurve" smooth="yes"/>
      <point x="177" y="581" type="line" smooth="yes"/>
      <point x="177" y="568"/>
      <point x="165" y="552"/>
      <point x="155" y="552" type="qcurve" smooth="yes"/>
      <point x="146" y="552"/>
      <point x="133" y="568"/>
      <point x="133" y="581" type="qcurve" smooth="yes"/>
      <point x="133" y="603" type="line" smooth="yes"/>
      <point x="133" y="616"/>
      <point x="146" y="632"/>
    </contour>
  </outline>
</glyph>
<glyph name="eth" format="1">
  <advance width="322"/>
  <unicode hex="00F0"/>
  <outline>
    <contour>
      <point x="275" y="435" type="qcurve" smooth="yes"/>
      <point x="278" y="423"/>
      <point x="278" y="410" type="qcurve" smooth="yes"/>
      <point x="278" y="116" type="line" smooth="yes"/>
      <point x="278" y="92"/>
      <point x="259" y="49"/>
      <point x="228" y="17"/>
      <point x="185" y="-1"/>
      <point x="161" y="-1" type="qcurve" smooth="yes"/>
      <point x="137" y="-1"/>
      <point x="94" y="17"/>
      <point x="63" y="49"/>
      <point x="44" y="92"/>
      <point x="44" y="116" type="qcurve" smooth="yes"/>
      <point x="44" y="410" type="line" smooth="yes"/>
      <point x="44" y="434"/>
      <point x="63" y="477"/>
      <point x="94" y="508"/>
      <point x="137" y="527"/>
      <point x="161" y="527" type="qcurve" smooth="yes"/>
      <point x="185" y="527"/>
      <point x="208" y="517" type="qcurve"/>
      <point x="207" y="519" type="line"/>
      <point x="155" y="689" type="line"/>
      <point x="123" y="663" type="line"/>
      <point x="98" y="645" type="line" smooth="yes"/>
      <point x="96" y="643"/>
      <point x="87" y="650"/>
      <point x="82" y="656" type="qcurve" smooth="yes"/>
      <point x="78" y="662"/>
      <point x="75" y="672"/>
      <point x="77" y="674" type="qcurve" smooth="yes"/>
      <point x="102" y="692" type="line"/>
      <point x="143" y="726" type="line"/>
      <point x="113" y="810" type="line" smooth="yes"/>
      <point x="110" y="817"/>
      <point x="116" y="830"/>
      <point x="124" y="833" type="qcurve" smooth="yes"/>
      <point x="140" y="838"/>
      <point x="147" y="822" type="qcurve" smooth="yes"/>
      <point x="173" y="750" type="line"/>
      <point x="231" y="797" type="line"/>
      <point x="256" y="815" type="line" smooth="yes"/>
      <point x="258" y="817"/>
      <point x="266" y="810"/>
      <point x="271" y="804" type="qcurve" smooth="yes"/>
      <point x="281" y="789"/>
      <point x="277" y="785" type="qcurve" smooth="yes"/>
      <point x="252" y="768" type="line"/>
      <point x="185" y="714" type="line"/>
      <point x="241" y="532" type="line"/>
      <point x="274" y="442" type="line" smooth="yes"/>
      <point x="275" y="440"/>
    </contour>
    <contour>
      <point x="242" y="410" type="line" smooth="yes"/>
      <point x="242" y="443"/>
      <point x="194" y="490"/>
      <point x="161" y="490" type="qcurve" smooth="yes"/>
      <point x="128" y="490"/>
      <point x="80" y="443"/>
      <point x="80" y="410" type="qcurve" smooth="yes"/>
      <point x="80" y="356" type="line"/>
      <point x="80" y="355" type="line"/>
      <point x="80" y="116" type="line" smooth="yes"/>
      <point x="80" y="82"/>
      <point x="128" y="35"/>
      <point x="161" y="35" type="qcurve" smooth="yes"/>
      <point x="194" y="35"/>
      <point x="242" y="82"/>
      <point x="242" y="116" type="qcurve" smooth="yes"/>
    </contour>
  </outline>
</glyph>
<glyph name="lslash" format="1">
  <advance width="473"/>
  <unicode hex="0142"/>
  <outline>
    <contour>
      <point x="423" y="593" type="qcurve" smooth="yes"/>
      <point x="438" y="573"/>
      <point x="443" y="536"/>
      <point x="430" y="500"/>
      <point x="401" y="467"/>
      <point x="382" y="452" type="qcurve" smooth="yes"/>
      <point x="252" y="355" type="line"/>
      <point x="252" y="19" type="line" smooth="yes"/>
      <point x="252" y="11"/>
      <point x="242" y="1"/>
      <point x="234" y="1" type="qcurve" smooth="yes"/>
      <point x="226" y="1"/>
      <point x="215" y="11"/>
      <point x="215" y="19" type="qcurve" smooth="yes"/>
      <point x="215" y="328" type="line"/>
      <point x="62" y="212" type="line" smooth="yes"/>
      <point x="56" y="207"/>
      <point x="41" y="210"/>
      <point x="36" y="216" type="qcurve" smooth="yes"/>
      <point x="31" y="222"/>
      <point x="34" y="236"/>
      <point x="40" y="241" type="qcurve" smooth="yes"/>
      <point x="215" y="373" type="line"/>
      <point x="215" y="655" type="line" smooth="yes"/>
      <point x="215" y="679"/>
      <point x="234" y="722"/>
      <point x="266" y="754"/>
      <point x="309" y="773"/>
      <point x="333" y="773" type="qcurve" smooth="yes"/>
      <point x="341" y="773"/>
      <point x="351" y="763"/>
      <point x="351" y="755" type="qcurve" smooth="yes"/>
      <point x="351" y="747"/>
      <point x="341" y="736"/>
      <point x="333" y="736" type="qcurve" smooth="yes"/>
      <point x="299" y="736"/>
      <point x="252" y="689"/>
      <point x="252" y="655" type="qcurve" smooth="yes"/>
      <point x="252" y="401" type="line"/>
      <point x="360" y="482" type="line" smooth="yes"/>
      <point x="387" y="502"/>
      <point x="414" y="545"/>
      <point x="394" y="571" type="qcurve" smooth="yes"/>
      <point x="389" y="577"/>
      <point x="392" y="592"/>
      <point x="398" y="597" type="qcurve" smooth="yes"/>
      <point x="404" y="602"/>
      <point x="418" y="599"/>
    </contour>
  </outline>
</glyph>
<glyph name="OE" format="1">
  <advance width="570"/>
  <unicode hex="0152"/>
  <outline>
    <contour>
      <point x="478" y="553" type="line"/>
      <point x="478" y="612" type="line" smooth="yes"/>
      <point x="478" y="630"/>
      <point x="465" y="661"/>
      <point x="442" y="684"/>
      <point x="411" y="697"/>
      <point x="394" y="697" type="qcurve" smooth="yes"/>
      <point x="359" y="697"/>
      <point x="311" y="650"/>
      <point x="309" y="616" type="qcurve" smooth="yes"/>
      <point x="309" y="612" type="line"/>
      <point x="309" y="553" type="line"/>
      <point x="309" y="386" type="line"/>
      <point x="404" y="386" type="line" smooth="yes"/>
      <point x="435" y="386"/>
      <point x="478" y="429"/>
      <point x="478" y="460" type="qcurve" smooth="yes"/>
      <point x="478" y="468"/>
      <point x="489" y="479"/>
      <point x="497" y="479" type="qcurve" smooth="yes"/>
      <point x="516" y="479"/>
      <point x="516" y="460" type="qcurve" smooth="yes"/>
      <point x="516" y="437"/>
      <point x="498" y="396"/>
      <point x="468" y="366"/>
      <point x="427" y="348"/>
      <point x="404" y="348" type="qcurve" smooth="yes"/>
      <point x="309" y="348" type="line"/>
      <point x="309" y="155" type="line"/>
      <point x="309" y="120" type="line"/>
      <point x="309" y="116" type="line" smooth="yes"/>
      <point x="311" y="82"/>
      <point x="359" y="35"/>
      <point x="394" y="35" type="qcurve" smooth="yes"/>
      <point x="411" y="35"/>
      <point x="442" y="48"/>
      <point x="465" y="71"/>
      <point x="478" y="102"/>
      <point x="478" y="120" type="qcurve" smooth="yes"/>
      <point x="478" y="155" type="line"/>
      <point x="516" y="155" type="line"/>
      <point x="516" y="120" type="line" smooth="yes"/>
      <point x="516" y="94"/>
      <point x="497" y="50"/>
      <point x="464" y="16"/>
      <point x="419" y="-3"/>
      <point x="394" y="-3" type="qcurve" smooth="yes"/>
      <point x="361" y="-3"/>
      <point x="307" y="28"/>
      <point x="290" y="54" type="qcurve"/>
      <point x="273" y="28"/>
      <point x="219" y="-3"/>
      <point x="186" y="-3" type="qcurve" smooth="yes"/>
      <point x="161" y="-3"/>
      <point x="116" y="16"/>
      <point x="83" y="50"/>
      <point x="64" y="94"/>
      <point x="64" y="120" type="qcurve" smooth="yes"/>
      <point x="64" y="612" type="line" smooth="yes"/>
      <point x="64" y="637"/>
      <point x="83" y="682"/>
      <point x="116" y="716"/>
      <point x="161" y="735"/>
      <point x="186" y="735" type="qcurve" smooth="yes"/>
      <point x="219" y="735"/>
      <point x="273" y="704"/>
      <point x="290" y="678" type="qcurve"/>
      <point x="307" y="704"/>
      <point x="361" y="735"/>
      <point x="394" y="735" type="qcurve" smooth="yes"/>
      <point x="419" y="735"/>
      <point x="464" y="716"/>
      <point x="497" y="682"/>
      <point x="516" y="637"/>
      <point x="516" y="612" type="qcurve" smooth="yes"/>
      <point x="516" y="553" type="line"/>
    </contour>
    <contour>
      <point x="186" y="35" type="qcurve" smooth="yes"/>
      <point x="221" y="35"/>
      <point x="269" y="82"/>
      <point x="271" y="115" type="qcurve" smooth="yes"/>
      <point x="271" y="120" type="line"/>
      <point x="271" y="612" type="line"/>
      <point x="271" y="616" type="line" smooth="yes"/>
      <point x="269" y="650"/>
      <point x="221" y="697"/>
      <point x="186" y="697" type="qcurve" smooth="yes"/>
      <point x="169" y="697"/>
      <point x="138" y="684"/>
      <point x="115" y="661"/>
      <point x="102" y="630"/>
      <point x="102" y="612" type="qcurve" smooth="yes"/>
      <point x="102" y="120" type="line" smooth="yes"/>
      <point x="102" y="102"/>
      <point x="115" y="71"/>
      <point x="138" y="48"/>
      <point x="169" y="35"/>
    </contour>
  </outline>
</glyph>
<glyph name="oe" format="1">
  <advance width="545"/>
  <unicode hex="0153"/>
  <outline>
    <contour>
      <point x="295" y="235" type="line"/>
      <point x="295" y="116" type="line" smooth="yes"/>
      <point x="295" y="83"/>
      <point x="342" y="36"/>
      <point x="375" y="36" type="qcurve" smooth="yes"/>
      <point x="408" y="36"/>
      <point x="455" y="83"/>
      <point x="455" y="116" type="qcurve" smooth="yes"/>
      <point x="455" y="143" type="line"/>
      <point x="491" y="143" type="line"/>
      <point x="491" y="116" type="line" smooth="yes"/>
      <point x="491" y="92"/>
      <point x="473" y="50"/>
      <point x="441" y="18"/>
      <point x="399" y="0"/>
      <point x="375" y="0" type="qcurve" smooth="yes"/>
      <point x="343" y="0"/>
      <point x="292" y="30"/>
      <point x="276" y="55" type="qcurve"/>
      <point x="260" y="30"/>
      <point x="209" y="0"/>
      <point x="177" y="0" type="qcurve" smooth="yes"/>
      <point x="153" y="0"/>
      <point x="111" y="18"/>
      <point x="79" y="50"/>
      <point x="61" y="92"/>
      <point x="61" y="116" type="qcurve" smooth="yes"/>
      <point x="61" y="409" type="line" smooth="yes"/>
      <point x="61" y="433"/>
      <point x="79" y="476"/>
      <point x="111" y="507"/>
      <point x="153" y="526"/>
      <point x="177" y="526" type="qcurve" smooth="yes"/>
      <point x="209" y="526"/>
      <point x="260" y="496"/>
      <point x="276" y="471" type="qcurve"/>
      <point x="292" y="496"/>
      <point x="343" y="526"/>
      <point x="375" y="526" type="qcurve" smooth="yes"/>
      <point x="399" y="526"/>
      <point x="441" y="507"/>
      <point x="473" y="476"/>
      <point x="491" y="433"/>
      <point x="491" y="409" type="qcurve" smooth="yes"/>
      <point x="491" y="342" type="line" smooth="yes"/>
      <point x="491" y="316"/>
      <point x="472" y="271"/>
      <point x="455" y="256" type="qcurve" smooth="yes"/>
      <point x="431" y="235"/>
      <point x="401" y="235" type="qcurve" smooth="yes"/>
    </contour>
    <contour>
      <point x="295" y="271" type="line"/>
      <point x="401" y="271" type="line" smooth="yes"/>
      <point x="419" y="271"/>
      <point x="448" y="294"/>
      <point x="455" y="312" type="qcurve"/>
      <point x="455" y="409" type="line" smooth="yes"/>
      <point x="455" y="443"/>
      <point x="408" y="490"/>
      <point x="375" y="490" type="qcurve" smooth="yes"/>
      <point x="342" y="490"/>
      <point x="295" y="443"/>
      <point x="295" y="409" type="qcurve" smooth="yes"/>
    </contour>
    <contour>
      <point x="257" y="409" type="line" smooth="yes"/>
      <point x="257" y="443"/>
      <point x="210" y="490"/>
      <point x="177" y="490" type="qcurve" smooth="yes"/>
      <point x="144" y="490"/>
      <point x="97" y="443"/>
      <point x="97" y="409" type="qcurve" smooth="yes"/>
      <point x="97" y="356" type="line"/>
      <point x="97" y="355" type="line"/>
      <point x="97" y="116" type="line" smooth="yes"/>
      <point x="97" y="83"/>
      <point x="144" y="36"/>
      <point x="177" y="36" type="qcurve" smooth="yes"/>
      <point x="210" y="36"/>
      <point x="257" y="83"/>
      <point x="257" y="116" type="qcurve" smooth="yes"/>
    </contour>
  </outline>
</glyph>
<glyph name="circumflex" format="1">
  <advance width="305"/>
  <unicode hex="02C6"/>
  <outline>
    <contour>
      <point x="252" y="581" type="line"/>
      <point x="259" y="576"/>
      <point x="262" y="558"/>
      <point x="255" y="550" type="qcurve" smooth="yes"/>
      <point x="250" y="543"/>
      <point x="234" y="541"/>
      <point x="226" y="547" type="qcurve" smooth="yes"/>
      <point x="205" y="562" type="line" smooth="yes"/>
      <point x="188" y="578"/>
      <point x="166" y="596"/>
      <point x="142" y="594"/>
      <point x="112" y="570"/>
      <point x="87" y="545" type="qcurve" smooth="yes"/>
      <point x="81" y="539"/>
      <point x="63" y="535"/>
      <point x="56" y="540" type="qcurve" smooth="yes"/>
      <point x="41" y="555"/>
      <point x="52" y="571" type="qcurve" smooth="yes"/>
      <point x="91" y="610"/>
      <point x="135" y="647"/>
      <point x="169" y="650"/>
      <point x="203" y="623"/>
      <point x="231" y="596" type="qcurve"/>
      <point x="252" y="581" type="line"/>
    </contour>
  </outline>
</glyph>
<glyph name="caron" format="1">
  <advance width="242"/>
  <unicode hex="02C7"/>
  <outline>
    <contour>
      <point x="215" y="651" type="qcurve" smooth="yes"/>
      <point x="221" y="646"/>
      <point x="223" y="631"/>
      <point x="218" y="625" type="qcurve" smooth="yes"/>
      <point x="184" y="591"/>
      <point x="145" y="558"/>
      <point x="116" y="555"/>
      <point x="86" y="579"/>
      <point x="61" y="602" type="qcurve" smooth="yes"/>
      <point x="43" y="616" type="line" smooth="yes"/>
      <point x="37" y="621"/>
      <point x="34" y="636"/>
      <point x="39" y="642" type="qcurve" smooth="yes"/>
      <point x="44" y="649"/>
      <point x="60" y="651"/>
      <point x="66" y="646" type="qcurve" smooth="yes"/>
      <point x="84" y="633" type="line" smooth="yes"/>
      <point x="99" y="618"/>
      <point x="119" y="602"/>
      <point x="140" y="604"/>
      <point x="166" y="626"/>
      <point x="188" y="648" type="qcurve" smooth="yes"/>
      <point x="193" y="653"/>
      <point x="208" y="656"/>
    </contour>
  </outline>
</glyph>
<glyph name="dotaccent" format="1">
  <advance width="237"/>
  <unicode hex="02D9"/>
  <outline>
    <contour>
      <point x="118" y="720" type="qcurve" smooth="yes"/>
      <point x="143" y="720"/>
      <point x="177" y="686"/>
      <point x="177" y="660" type="qcurve" smooth="yes"/>
      <point x="177" y="615" type="line" smooth="yes"/>
      <point x="177" y="589"/>
      <point x="143" y="553"/>
      <point x="118" y="553" type="qcurve" smooth="yes"/>
      <point x="92" y="553"/>
      <point x="58" y="589"/>
      <point x="58" y="615" type="qcurve" smooth="yes"/>
      <point x="58" y="660" type="line" smooth="yes"/>
      <point x="58" y="686"/>
      <point x="92" y="720"/>
    </contour>
  </outline>
</glyph>
<glyph name="ring" format="1">
  <advance width="187"/>
  <unicode hex="02DA"/>
  <outline>
    <contour>
      <point x="93" y="695" type="qcurve" smooth="yes"/>
      <point x="114" y="695"/>
      <point x="144" y="665"/>
      <point x="144" y="644" type="qcurve" smooth="yes"/>
      <point x="144" y="616" type="line" smooth="yes"/>
      <point x="144" y="595"/>
      <point x="114" y="565"/>
      <point x="93" y="565" type="qcurve" smooth="yes"/>
      <point x="72" y="565"/>
      <point x="42" y="595"/>
      <point x="42" y="616" type="qcurve" smooth="yes"/>
      <point x="42" y="644" type="line" smooth="yes"/>
      <point x="42" y="665"/>
      <point x="72" y="695"/>
    </contour>
    <contour>
      <point x="93" y="592" type="qcurve" smooth="yes"/>
      <point x="103" y="592"/>
      <point x="117" y="606"/>
      <point x="117" y="616" type="qcurve" smooth="yes"/>
      <point x="117" y="644" type="line" smooth="yes"/>
      <point x="117" y="655"/>
      <point x="103" y="668"/>
      <point x="93" y="668" type="qcurve" smooth="yes"/>
      <point x="83" y="668"/>
      <point x="69" y="655"/>
      <point x="69" y="644" type="qcurve" smooth="yes"/>
      <point x="69" y="616" type="line" smooth="yes"/>
      <point x="69" y="606"/>
      <point x="83" y="592"/>
    </contour>
  </outline>
</glyph>
<glyph name="tilde" format="1">
  <advance width="368"/>
  <unicode hex="02DC"/>
  <outline>
    <contour>
      <point x="67" y="566" type="qcurve" smooth="yes"/>
      <point x="67" y="576"/>
      <point x="82" y="605"/>
      <point x="93" y="610" type="qcurve" smooth="yes"/>
      <point x="110" y="617"/>
      <point x="144" y="613"/>
      <point x="177" y="599"/>
      <point x="211" y="580"/>
      <point x="228" y="574" type="qcurve"/>
      <point x="209" y="582"/>
      <point x="171" y="602"/>
      <point x="152" y="610" type="qcurve"/>
      <point x="169" y="603"/>
      <point x="203" y="584"/>
      <point x="236" y="569"/>
      <point x="270" y="564"/>
      <point x="287" y="572" type="qcurve" smooth="yes"/>
      <point x="298" y="577"/>
      <point x="312" y="576"/>
      <point x="312" y="566" type="qcurve" smooth="yes"/>
      <point x="312" y="555"/>
      <point x="298" y="526"/>
      <point x="287" y="521" type="qcurve" smooth="yes"/>
      <point x="270" y="513"/>
      <point x="236" y="519"/>
      <point x="203" y="533"/>
      <point x="169" y="552"/>
      <point x="152" y="558" type="qcurve"/>
      <point x="171" y="551"/>
      <point x="209" y="530"/>
      <point x="228" y="523" type="qcurve"/>
      <point x="211" y="529"/>
      <point x="177" y="547"/>
      <point x="144" y="562"/>
      <point x="110" y="566"/>
      <point x="93" y="559" type="qcurve" smooth="yes"/>
      <point x="82" y="554"/>
      <point x="67" y="555"/>
    </contour>
  </outline>
</glyph>
<glyph name="uni0BA4" format="1">
  <advance width="510"/>
  <unicode hex="0BA4"/>
  <outline>
    <contour>
      <point x="341" y="324" type="line" smooth="yes"/>
      <point x="364" y="324"/>
      <point x="402" y="307"/>
      <point x="431" y="278"/>
      <point x="448" y="239"/>
      <point x="448" y="216" type="qcurve" smooth="yes"/>
      <point x="448" y="-5" type="line" smooth="yes"/>
      <point x="448" y="-28"/>
      <point x="431" y="-68"/>
      <point x="402" y="-96"/>
      <point x="364" y="-114"/>
      <point x="341" y="-114" type="qcurve" smooth="yes"/>
      <point x="304" y="-114" type="line"/>
      <point x="301" y="-114" type="line"/>
      <point x="155" y="-114" type="line" smooth="yes"/>
      <point x="125" y="-114"/>
      <point x="86" y="-153"/>
      <point x="86" y="-182" type="qcurve" smooth="yes"/>
      <point x="86" y="-190"/>
      <point x="75" y="-200"/>
      <point x="67" y="-200" type="qcurve" smooth="yes"/>
      <point x="59" y="-200"/>
      <point x="50" y="-190"/>
      <point x="50" y="-182" type="qcurve" smooth="yes"/>
      <point x="50" y="-160"/>
      <point x="66" y="-123"/>
      <point x="95" y="-94"/>
      <point x="132" y="-78"/>
      <point x="155" y="-78" type="qcurve" smooth="yes"/>
      <point x="249" y="-78" type="line"/>
      <point x="251" y="-78" type="line"/>
      <point x="341" y="-78" type="line" smooth="yes"/>
      <point x="371" y="-78"/>
      <point x="413" y="-36"/>
      <point x="413" y="-5" type="qcurve" smooth="yes"/>
      <point x="413" y="216" type="line" smooth="yes"/>
      <point x="413" y="247"/>
      <point x="371" y="290"/>
      <point x="341" y="290" type="qcurve" smooth="yes"/>
      <point x="312" y="290" type="line"/>
      <point x="312" y="110" type="line" smooth="yes"/>
      <point x="312" y="87"/>
      <point x="295" y="48"/>
      <point x="265" y="17"/>
      <point x="226" y="0"/>
      <point x="203" y="0" type="qcurve" smooth="yes"/>
      <point x="161" y="0" type="line" smooth="yes"/>
      <point x="138" y="0"/>
      <point x="99" y="17"/>
      <point x="70" y="48"/>
      <point x="53" y="87"/>
      <point x="53" y="110" type="qcurve" smooth="yes"/>
      <point x="53" y="216" type="line" smooth="yes"/>
      <point x="53" y="255"/>
      <point x="100" y="314"/>
      <point x="135" y="322" type="qcurve"/>
      <point x="134" y="322" type="line"/>
      <point x="134" y="441" type="line" smooth="yes"/>
      <point x="134" y="463"/>
      <point x="152" y="503"/>
      <point x="181" y="531"/>
      <point x="221" y="548"/>
      <point x="243" y="548" type="qcurve" smooth="yes"/>
      <point x="390" y="548" type="line" smooth="yes"/>
      <point x="397" y="548"/>
      <point x="408" y="538"/>
      <point x="408" y="530" type="qcurve" smooth="yes"/>
      <point x="408" y="524"/>
      <point x="397" y="514"/>
      <point x="390" y="514" type="qcurve" smooth="yes"/>
      <point x="312" y="514" type="line"/>
      <point x="312" y="324" type="line"/>
    </contour>
    <contour>
      <point x="275" y="290" type="line"/>
      <point x="161" y="290" type="line" smooth="yes"/>
      <point x="131" y="290"/>
      <point x="89" y="247"/>
      <point x="89" y="216" type="qcurve" smooth="yes"/>
      <point x="89" y="110" type="line" smooth="yes"/>
      <point x="89" y="78"/>
      <point x="131" y="37"/>
      <point x="161" y="37" type="qcurve" smooth="yes"/>
      <point x="203" y="37" type="line" smooth="yes"/>
      <point x="233" y="37"/>
      <point x="275" y="78"/>
      <point x="275" y="110" type="qcurve" smooth="yes"/>
    </contour>
    <contour>
      <point x="275" y="324" type="line"/>
      <point x="275" y="514" type="line"/>
      <point x="243" y="514" type="line" smooth="yes"/>
      <point x="212" y="514"/>
      <point x="171" y="470"/>
      <point x="171" y="441" type="qcurve" smooth="yes"/>
      <point x="171" y="324" type="line"/>
    </contour>
  </outline>
</glyph>
